<?xml version="1.0" encoding="UTF-8"?><svg id="Laag_1" xmlns="http://www.w3.org/2000/svg" viewBox="0 0 247.1 190.2"><defs><style>.cls-1{fill:#4a90e2;}.cls-1,.cls-2,.cls-3,.cls-4,.cls-5{stroke-width:3px;}.cls-1,.cls-2,.cls-3,.cls-4,.cls-5,.cls-6,.cls-7{stroke:#333;}.cls-2{fill:#ffd3b6;}.cls-3{fill:#ffc610;}.cls-4{fill:#ff00c0;}.cls-5,.cls-6{fill:none;}.cls-6{stroke-width:6px;}.cls-7{fill:#b3b3b3;stroke-width:2px;}.cls-8{fill:#333;}.cls-8,.cls-9{stroke-width:0px;}.cls-9{fill:#737dff;}</style></defs><path class="cls-9" d="m42,190.2c-14.4,0-25-3.4-31.8-10.2S0,162.7,0,148.4V42C0,27.4,3.4,16.8,10.2,10,17,3.2,27.6-.1,42,0h163.1c14.5,0,25.1,3.4,31.9,10.1,6.8,6.8,10.1,17.4,10.1,31.9v106.2c0,14.4-3.4,25-10.1,31.8-6.8,6.8-17.4,10.2-31.9,10.2H42Z"/><circle class="cls-4" cx="123.7" cy="94.98" r="65.38"/><circle class="cls-3" cx="123" cy="94.9" r="45.91"/><circle class="cls-2" cx="123.7" cy="66.03" r="26.77"/><circle class="cls-8" cx="115.67" cy="60.68" r="2.68"/><circle class="cls-8" cx="131.73" cy="60.68" r="2.68"/><path class="cls-5" d="m115.67,74.06c5.35,5.35,10.71,5.35,16.06,0"/><rect class="cls-1" x="102.29" y="92.8" width="42.83" height="53.53"/><line class="cls-6" x1="102.29" y1="103.51" x2="80.87" y2="124.92"/><line class="cls-6" x1="145.11" y1="103.51" x2="166.53" y2="124.92"/><line class="cls-6" x1="112.99" y1="146.33" x2="107.64" y2="173.1"/><line class="cls-6" x1="134.41" y1="146.33" x2="139.76" y2="173.1"/><rect class="cls-7" x="107.64" y="33.92" width="32.12" height="21.41"/><line class="cls-5" x1="118.35" y1="33.92" x2="118.35" y2="12.5"/><line class="cls-5" x1="129.05" y1="33.92" x2="129.05" y2="12.5"/><circle class="cls-8" cx="118.35" cy="12.5" r="2.68"/><circle class="cls-8" cx="129.05" cy="12.5" r="2.68"/></svg>