<svg xmlns="http://www.w3.org/2000/svg" xmlns:xlink="http://www.w3.org/1999/xlink" contentStyleType="text/css" data-diagram-type="CLASS" height="899px" preserveAspectRatio="none" style="width:215px;height:899px;background:#FFFFFF;" version="1.1" viewBox="0 0 215 899" width="215px" zoomAndPan="magnify"><defs/><g><!--class Persoon--><g class="entity" data-entity="Persoon" data-source-line="1" data-uid="ent0002" id="entity_Persoon"><rect fill="#F1F1F1" height="96.8906" rx="2.5" ry="2.5" style="stroke:#181818;stroke-width:0.5;" width="177.4707" x="31.49" y="164.6"/><ellipse cx="87.9207" cy="180.6" fill="#ADD1B2" rx="11" ry="11" style="stroke:#181818;stroke-width:1;"/><path d="M90.8894,186.2406 Q90.3113,186.5375 89.6707,186.6781 Q89.03,186.8344 88.3269,186.8344 Q85.8269,186.8344 84.4988,185.1938 Q83.1863,183.5375 83.1863,180.4125 Q83.1863,177.2875 84.4988,175.6313 Q85.8269,173.975 88.3269,173.975 Q89.03,173.975 89.6707,174.1313 Q90.3269,174.2875 90.8894,174.5844 L90.8894,177.3031 Q90.2644,176.725 89.6707,176.4594 Q89.0769,176.1781 88.4519,176.1781 Q87.1082,176.1781 86.4207,177.2563 Q85.7332,178.3188 85.7332,180.4125 Q85.7332,182.5063 86.4207,183.5844 Q87.1082,184.6469 88.4519,184.6469 Q89.0769,184.6469 89.6707,184.3813 Q90.2644,184.1 90.8894,183.5219 L90.8894,186.2406 Z " fill="#000000"/><text fill="#000000" font-family="sans-serif" font-size="14" lengthAdjust="spacing" textLength="56.1094" x="108.4207" y="185.4467">Persoon</text><line style="stroke:#181818;stroke-width:0.5;" x1="32.49" x2="207.9607" y1="196.6" y2="196.6"/><rect fill="none" height="6" style="stroke:#C82930;stroke-width:1;" width="6" x="39.49" y="207.2484"/><text fill="#000000" font-family="sans-serif" font-size="14" lengthAdjust="spacing" textLength="90.6172" x="51.49" y="213.5951">naam: String</text><rect fill="none" height="6" style="stroke:#C82930;stroke-width:1;" width="6" x="39.49" y="223.5453"/><text fill="#000000" font-family="sans-serif" font-size="14" lengthAdjust="spacing" textLength="151.4707" x="51.49" y="229.892">geboortedatum: Date</text><line style="stroke:#181818;stroke-width:0.5;" x1="32.49" x2="207.9607" y1="237.1938" y2="237.1938"/><ellipse cx="42.49" cy="250.8422" fill="#84BE84" rx="3" ry="3" style="stroke:#038048;stroke-width:1;"/><text fill="#000000" font-family="sans-serif" font-size="14" lengthAdjust="spacing" textLength="113.4424" x="51.49" y="254.1889">getLeeftijd(): int</text></g><!--class Docent--><g class="entity" data-entity="Docent" data-source-line="7" data-uid="ent0003" id="entity_Docent"><rect fill="#F1F1F1" height="80.5938" rx="2.5" ry="2.5" style="stroke:#181818;stroke-width:0.5;" width="116.4531" x="7" y="322.49"/><ellipse cx="37.4956" cy="338.49" fill="#ADD1B2" rx="11" ry="11" style="stroke:#181818;stroke-width:1;"/><path d="M40.4643,344.1306 Q39.8862,344.4275 39.2456,344.5681 Q38.6049,344.7244 37.9018,344.7244 Q35.4018,344.7244 34.0737,343.0838 Q32.7612,341.4275 32.7612,338.3025 Q32.7612,335.1775 34.0737,333.5213 Q35.4018,331.865 37.9018,331.865 Q38.6049,331.865 39.2456,332.0213 Q39.9018,332.1775 40.4643,332.4744 L40.4643,335.1931 Q39.8393,334.615 39.2456,334.3494 Q38.6518,334.0681 38.0268,334.0681 Q36.6831,334.0681 35.9956,335.1463 Q35.3081,336.2088 35.3081,338.3025 Q35.3081,340.3963 35.9956,341.4744 Q36.6831,342.5369 38.0268,342.5369 Q38.6518,342.5369 39.2456,342.2713 Q39.8393,341.99 40.4643,341.4119 L40.4643,344.1306 Z " fill="#000000"/><text fill="#000000" font-family="sans-serif" font-size="14" lengthAdjust="spacing" textLength="50.0186" x="54.939" y="343.3367">Docent</text><line style="stroke:#181818;stroke-width:0.5;" x1="8" x2="122.4531" y1="354.49" y2="354.49"/><rect fill="none" height="6" style="stroke:#C82930;stroke-width:1;" width="6" x="15" y="365.1384"/><text fill="#000000" font-family="sans-serif" font-size="14" lengthAdjust="spacing" textLength="90.4531" x="27" y="371.4851">docentID: int</text><line style="stroke:#181818;stroke-width:0.5;" x1="8" x2="122.4531" y1="378.7869" y2="378.7869"/><ellipse cx="18" cy="392.4353" fill="#84BE84" rx="3" ry="3" style="stroke:#038048;stroke-width:1;"/><text fill="#000000" font-family="sans-serif" font-size="14" lengthAdjust="spacing" textLength="65.6729" x="27" y="395.782">geefLes()</text></g><!--class Student--><g class="entity" data-entity="Student" data-source-line="12" data-uid="ent0004" id="entity_Student"><rect fill="#F1F1F1" height="80.5938" rx="2.5" ry="2.5" style="stroke:#181818;stroke-width:0.5;" width="121.8467" x="59.3" y="480.08"/><ellipse cx="89.9309" cy="496.08" fill="#ADD1B2" rx="11" ry="11" style="stroke:#181818;stroke-width:1;"/><path d="M92.8997,501.7206 Q92.3215,502.0175 91.6809,502.1581 Q91.0403,502.3144 90.3372,502.3144 Q87.8372,502.3144 86.509,500.6738 Q85.1965,499.0175 85.1965,495.8925 Q85.1965,492.7675 86.509,491.1113 Q87.8372,489.455 90.3372,489.455 Q91.0403,489.455 91.6809,489.6113 Q92.3372,489.7675 92.8997,490.0644 L92.8997,492.7831 Q92.2747,492.205 91.6809,491.9394 Q91.0872,491.6581 90.4622,491.6581 Q89.1184,491.6581 88.4309,492.7363 Q87.7434,493.7988 87.7434,495.8925 Q87.7434,497.9863 88.4309,499.0644 Q89.1184,500.1269 90.4622,500.1269 Q91.0872,500.1269 91.6809,499.8613 Q92.2747,499.58 92.8997,499.0019 L92.8997,501.7206 Z " fill="#000000"/><text fill="#000000" font-family="sans-serif" font-size="14" lengthAdjust="spacing" textLength="55.1113" x="107.4044" y="500.9267">Student</text><line style="stroke:#181818;stroke-width:0.5;" x1="60.3" x2="180.1467" y1="512.08" y2="512.08"/><rect fill="none" height="6" style="stroke:#C82930;stroke-width:1;" width="6" x="67.3" y="522.7284"/><text fill="#000000" font-family="sans-serif" font-size="14" lengthAdjust="spacing" textLength="95.8467" x="79.3" y="529.0751">studentID: int</text><line style="stroke:#181818;stroke-width:0.5;" x1="60.3" x2="180.1467" y1="536.3769" y2="536.3769"/><ellipse cx="70.3" cy="550.0253" fill="#84BE84" rx="3" ry="3" style="stroke:#038048;stroke-width:1;"/><text fill="#000000" font-family="sans-serif" font-size="14" lengthAdjust="spacing" textLength="64.2578" x="79.3" y="553.372">volgLes()</text></g><!--class School--><g class="entity" data-entity="School" data-source-line="17" data-uid="ent0005" id="entity_School"><rect fill="#F1F1F1" height="80.5938" rx="2.5" ry="2.5" style="stroke:#181818;stroke-width:0.5;" width="153.1143" x="43.67" y="7"/><ellipse cx="92.7384" cy="23" fill="#ADD1B2" rx="11" ry="11" style="stroke:#181818;stroke-width:1;"/><path d="M95.7071,28.6406 Q95.129,28.9375 94.4884,29.0781 Q93.8477,29.2344 93.1446,29.2344 Q90.6446,29.2344 89.3165,27.5938 Q88.004,25.9375 88.004,22.8125 Q88.004,19.6875 89.3165,18.0313 Q90.6446,16.375 93.1446,16.375 Q93.8477,16.375 94.4884,16.5313 Q95.1446,16.6875 95.7071,16.9844 L95.7071,19.7031 Q95.0821,19.125 94.4884,18.8594 Q93.8946,18.5781 93.2696,18.5781 Q91.9259,18.5781 91.2384,19.6563 Q90.5509,20.7188 90.5509,22.8125 Q90.5509,24.9063 91.2384,25.9844 Q91.9259,27.0469 93.2696,27.0469 Q93.8946,27.0469 94.4884,26.7813 Q95.0821,26.5 95.7071,25.9219 L95.7071,28.6406 Z " fill="#000000"/><text fill="#000000" font-family="sans-serif" font-size="14" lengthAdjust="spacing" textLength="46.4775" x="113.2384" y="27.8467">School</text><line style="stroke:#181818;stroke-width:0.5;" x1="44.67" x2="195.7843" y1="39" y2="39"/><rect fill="none" height="6" style="stroke:#C82930;stroke-width:1;" width="6" x="51.67" y="49.6484"/><text fill="#000000" font-family="sans-serif" font-size="14" lengthAdjust="spacing" textLength="90.6172" x="63.67" y="55.9951">naam: String</text><line style="stroke:#181818;stroke-width:0.5;" x1="44.67" x2="195.7843" y1="63.2969" y2="63.2969"/><ellipse cx="54.67" cy="76.9453" fill="#84BE84" rx="3" ry="3" style="stroke:#038048;stroke-width:1;"/><text fill="#000000" font-family="sans-serif" font-size="14" lengthAdjust="spacing" textLength="127.1143" x="63.67" y="80.292">voegPersoonToe()</text></g><!--class Vak--><g class="entity" data-entity="Vak" data-source-line="22" data-uid="ent0006" id="entity_Vak"><rect fill="#F1F1F1" height="80.5938" rx="2.5" ry="2.5" style="stroke:#181818;stroke-width:0.5;" width="143.2158" x="48.62" y="637.68"/><ellipse cx="102.8461" cy="653.68" fill="#ADD1B2" rx="11" ry="11" style="stroke:#181818;stroke-width:1;"/><path d="M105.8148,659.3206 Q105.2367,659.6175 104.5961,659.7581 Q103.9554,659.9144 103.2523,659.9144 Q100.7523,659.9144 99.4242,658.2738 Q98.1117,656.6175 98.1117,653.4925 Q98.1117,650.3675 99.4242,648.7113 Q100.7523,647.055 103.2523,647.055 Q103.9554,647.055 104.5961,647.2113 Q105.2523,647.3675 105.8148,647.6644 L105.8148,650.3831 Q105.1898,649.805 104.5961,649.5394 Q104.0023,649.2581 103.3773,649.2581 Q102.0336,649.2581 101.3461,650.3363 Q100.6586,651.3988 100.6586,653.4925 Q100.6586,655.5863 101.3461,656.6644 Q102.0336,657.7269 103.3773,657.7269 Q104.0023,657.7269 104.5961,657.4613 Q105.1898,657.18 105.8148,656.6019 L105.8148,659.3206 Z " fill="#000000"/><text fill="#000000" font-family="sans-serif" font-size="14" lengthAdjust="spacing" textLength="26.2637" x="123.3461" y="658.5267">Vak</text><line style="stroke:#181818;stroke-width:0.5;" x1="49.62" x2="190.8358" y1="669.68" y2="669.68"/><rect fill="none" height="6" style="stroke:#C82930;stroke-width:1;" width="6" x="56.62" y="680.3284"/><text fill="#000000" font-family="sans-serif" font-size="14" lengthAdjust="spacing" textLength="117.1885" x="68.62" y="686.6751">vakNaam: String</text><line style="stroke:#181818;stroke-width:0.5;" x1="49.62" x2="190.8358" y1="693.9769" y2="693.9769"/><ellipse cx="59.62" cy="707.6253" fill="#84BE84" rx="3" ry="3" style="stroke:#038048;stroke-width:1;"/><text fill="#000000" font-family="sans-serif" font-size="14" lengthAdjust="spacing" textLength="117.2158" x="68.62" y="710.972">toonVakDetails()</text></g><!--class Lesmateriaal--><g class="entity" data-entity="Lesmateriaal" data-source-line="27" data-uid="ent0007" id="entity_Lesmateriaal"><rect fill="#F1F1F1" height="96.8906" rx="2.5" ry="2.5" style="stroke:#181818;stroke-width:0.5;" width="135.2725" x="52.59" y="795.27"/><ellipse cx="73.2387" cy="811.27" fill="#ADD1B2" rx="11" ry="11" style="stroke:#181818;stroke-width:1;"/><path d="M76.2075,816.9106 Q75.6294,817.2075 74.9887,817.3481 Q74.3481,817.5044 73.645,817.5044 Q71.145,817.5044 69.8169,815.8638 Q68.5044,814.2075 68.5044,811.0825 Q68.5044,807.9575 69.8169,806.3013 Q71.145,804.645 73.645,804.645 Q74.3481,804.645 74.9887,804.8013 Q75.645,804.9575 76.2075,805.2544 L76.2075,807.9731 Q75.5825,807.395 74.9887,807.1294 Q74.395,806.8481 73.77,806.8481 Q72.4262,806.8481 71.7387,807.9263 Q71.0512,808.9888 71.0512,811.0825 Q71.0512,813.1763 71.7387,814.2544 Q72.4262,815.3169 73.77,815.3169 Q74.395,815.3169 74.9887,815.0513 Q75.5825,814.77 76.2075,814.1919 L76.2075,816.9106 Z " fill="#000000"/><text fill="#000000" font-family="sans-serif" font-size="14" lengthAdjust="spacing" textLength="90.7197" x="88.494" y="816.1167">Lesmateriaal</text><line style="stroke:#181818;stroke-width:0.5;" x1="53.59" x2="186.8625" y1="827.27" y2="827.27"/><rect fill="none" height="6" style="stroke:#C82930;stroke-width:1;" width="6" x="60.59" y="837.9184"/><text fill="#000000" font-family="sans-serif" font-size="14" lengthAdjust="spacing" textLength="78.3193" x="72.59" y="844.2651">titel: String</text><rect fill="none" height="6" style="stroke:#C82930;stroke-width:1;" width="6" x="60.59" y="854.2153"/><text fill="#000000" font-family="sans-serif" font-size="14" lengthAdjust="spacing" textLength="98.9092" x="72.59" y="860.562">inhoud: String</text><line style="stroke:#181818;stroke-width:0.5;" x1="53.59" x2="186.8625" y1="867.8638" y2="867.8638"/><ellipse cx="63.59" cy="881.5122" fill="#84BE84" rx="3" ry="3" style="stroke:#038048;stroke-width:1;"/><text fill="#000000" font-family="sans-serif" font-size="14" lengthAdjust="spacing" textLength="109.2725" x="72.59" y="884.8589">printMateriaal()</text></g><!--reverse link Persoon to Docent--><g class="link" data-entity-1="Persoon" data-entity-2="Docent" data-source-line="34" data-uid="lnk8" id="link_Persoon_Docent"><path codeLine="34" d="M96.2442,278.4705 C88.9642,298.0405 86.9,303.58 79.95,322.23 " fill="none" id="Persoon-backto-Docent" style="stroke:#181818;stroke-width:1;"/><polygon fill="none" points="102.52,261.6,90.6207,276.3786,101.8677,280.5625,102.52,261.6" style="stroke:#181818;stroke-width:1;"/></g><!--reverse link Persoon to Student--><g class="link" data-entity-1="Persoon" data-entity-2="Student" data-source-line="35" data-uid="lnk9" id="link_Persoon_Student"><path codeLine="35" d="M142.7557,279.1472 C157.5957,327.1572 169.16,385.76 154.23,450.08 C151.89,460.13 147.89,470.41 143.43,479.86 " fill="none" id="Persoon-backto-Student" style="stroke:#181818;stroke-width:1;"/><polygon fill="none" points="137.44,261.95,137.0233,280.9191,148.4881,277.3753,137.44,261.95" style="stroke:#181818;stroke-width:1;"/></g><!--link School to Persoon--><g class="link" data-entity-1="School" data-entity-2="Persoon" data-source-line="36" data-uid="lnk10" id="link_School_Persoon"><path codeLine="36" d="M120.23,87.94 C120.23,110.94 120.23,140.06 120.23,164.31 " fill="none" id="School-Persoon" style="stroke:#181818;stroke-width:1;"/><polygon fill="#000000" points="125.23,131.1664,128.1689,122.1213,122.2911,122.1213,125.23,131.1664" style="stroke:#000000;stroke-width:1;"/><text fill="#000000" font-family="sans-serif" font-size="13" lengthAdjust="spacing" textLength="37.0068" x="134.23" y="130.6669">bevat</text><text fill="#000000" font-family="sans-serif" font-size="13" lengthAdjust="spacing" textLength="8.271" x="111.6146" y="107.6903">1</text><text fill="#000000" font-family="sans-serif" font-size="13" lengthAdjust="spacing" textLength="6.5" x="113.8439" y="153.4781">*</text></g><!--link Docent to Student--><g class="link" data-entity-1="Docent" data-entity-2="Student" data-source-line="37" data-uid="lnk11" id="link_Docent_Student"><path codeLine="37" d="M65.37,403.33 C66.45,418.33 68.93,435.34 74.23,450.08 C77.89,460.27 83.35,470.44 89.25,479.72 " fill="none" id="Docent-Student" style="stroke:#181818;stroke-width:1;"/><polygon fill="#000000" points="80.7218,446.4187,80.8281,436.9087,75.218,438.6625,80.7218,446.4187" style="stroke:#000000;stroke-width:1;"/><text fill="#000000" font-family="sans-serif" font-size="13" lengthAdjust="spacing" textLength="61.0708" x="88.23" y="446.1469">begeleidt</text><text fill="#000000" font-family="sans-serif" font-size="13" lengthAdjust="spacing" textLength="8.271" x="56.777" y="423.0644">1</text><text fill="#000000" font-family="sans-serif" font-size="13" lengthAdjust="spacing" textLength="6.5" x="77.8753" y="469.1225">*</text></g><!--reverse link Student to Vak--><g class="link" data-entity-1="Student" data-entity-2="Vak" data-source-line="38" data-uid="lnk12" id="link_Student_Vak"><path codeLine="38" d="M120.23,573.04 C120.23,596.45 120.23,613.98 120.23,637.38 " fill="none" id="Student-backto-Vak" style="stroke:#181818;stroke-width:1;"/><polygon fill="none" points="120.23,561.04,116.23,567.04,120.23,573.04,124.23,567.04,120.23,561.04" style="stroke:#181818;stroke-width:1;"/><polygon fill="#000000" points="125.23,604.2464,128.1689,595.2013,122.2911,595.2013,125.23,604.2464" style="stroke:#000000;stroke-width:1;"/><text fill="#000000" font-family="sans-serif" font-size="13" lengthAdjust="spacing" textLength="32.6079" x="134.23" y="603.7469">volgt</text><text fill="#000000" font-family="sans-serif" font-size="13" lengthAdjust="spacing" textLength="6.5" x="113.7928" y="580.7935">*</text><text fill="#000000" font-family="sans-serif" font-size="13" lengthAdjust="spacing" textLength="6.5" x="113.7749" y="626.4918">*</text></g><!--reverse link Vak to Lesmateriaal--><g class="link" data-entity-1="Vak" data-entity-2="Lesmateriaal" data-source-line="39" data-uid="lnk13" id="link_Vak_Lesmateriaal"><path codeLine="39" d="M120.23,730.61 C120.23,753.61 120.23,770.73 120.23,794.99 " fill="none" id="Vak-backto-Lesmateriaal" style="stroke:#181818;stroke-width:1;"/><polygon fill="#181818" points="120.23,718.61,116.23,724.61,120.23,730.61,124.23,724.61,120.23,718.61" style="stroke:#181818;stroke-width:1;"/><polygon fill="#000000" points="125.23,761.8364,128.1689,752.7913,122.2911,752.7913,125.23,761.8364" style="stroke:#000000;stroke-width:1;"/><text fill="#000000" font-family="sans-serif" font-size="13" lengthAdjust="spacing" textLength="37.0068" x="134.23" y="761.3369">bevat</text><text fill="#000000" font-family="sans-serif" font-size="13" lengthAdjust="spacing" textLength="8.271" x="111.6144" y="738.3587">1</text><text fill="#000000" font-family="sans-serif" font-size="13" lengthAdjust="spacing" textLength="8.271" x="111.6871" y="784.1595">1</text></g><!--SRC=[RP4nJyCm48Lt_mehKrkKWJL2J5cGMeHKn7wDhwwfwqFn9Glmtx4Jkuqh9kUUttUNU-uiU2_ViFT4JduBAMlf02wDt7Dld9u4ZGUYdb413-6c1SQWFmITjuX7DfzgjMwaSIn-XUYcbYrrw3XrL5FnqiwU6SNZ5lrgVIFsFAWRukTgoOnazJtJdOZi__yT0THfjNV29VS1vmIDS7wzvpW0mT4YWx75l33-4hRl3K2UoeRH5d4PTw915Hs_mXVlCZbt53drfv-wJdcLMaf4f2shnqe6jTfKrmThv057OFaiKjuBJyupUZHQD2hwiXeTb9mnZMQADpfY5TjiucquYvsl0_y0]--></g></svg>