<?xml version="1.0" encoding="utf-8"?>
<!-- Generator: Adobe Illustrator 26.5.0, SVG Export Plug-In . SVG Version: 6.00 Build 0)  -->
<svg version="1.1" id="Laag_1" xmlns="http://www.w3.org/2000/svg" xmlns:xlink="http://www.w3.org/1999/xlink" x="0px" y="0px"
	 viewBox="0 0 451.4 225.2" style="enable-background:new 0 0 451.4 225.2;" xml:space="preserve">
<style type="text/css">
	.st0{fill:none;stroke:#333333;stroke-width:3.2292;stroke-linecap:round;stroke-linejoin:round;}
	.st1{fill:none;stroke:#333333;stroke-width:1.4173;stroke-miterlimit:10;}
	.st2{fill:#FFFFFF;stroke:#333333;stroke-width:3.2292;stroke-linecap:round;stroke-linejoin:round;}
	.st3{fill:#FFFFFF;stroke:#333333;stroke-width:3.7241;stroke-linecap:round;stroke-linejoin:round;}
	.st4{fill:#FFFFFF;stroke:#333333;stroke-width:3.75;stroke-linecap:round;stroke-linejoin:round;}
	.st5{fill:none;stroke:#333333;stroke-width:3.75;stroke-linecap:round;stroke-linejoin:round;}
	.st6{stroke:#FFFFFF;stroke-width:5.6693;stroke-miterlimit:10;}
</style>
<line id="Path_00000036950618002192935070000005078392616971235754_" class="st0" x1="283.1" y1="132.7" x2="283.1" y2="123.8"/>
<line id="Path_00000145032435382922889190000001669535765482676670_" class="st0" x1="322.5" y1="137.9" x2="378.1" y2="137.9"/>
<g>
	<path id="Path_00000106834963271328940520000015563033559695368353_" class="st0" d="M313.8,118.8h-63.3c-2.4,0-4.3-1.9-4.3-4.3
		V92.9c0-2.4,1.9-4.3,4.3-4.3h63.3c2.4,0,4.3,1.9,4.3,4.3v21.6C318.1,116.8,316.1,118.8,313.8,118.8z"/>
	<path id="Path_00000139262834704939028220000004371850748906849435_" class="st0" d="M256.3,96.5c-0.3,0-0.5,0.2-0.5,0.5
		s0.2,0.5,0.5,0.5c0.3,0,0.5-0.2,0.5-0.5S256.6,96.5,256.3,96.5"/>
	<path id="Path_00000143584445371326105210000005699253397314114989_" class="st0" d="M256.3,103.2c-0.3,0-0.5,0.2-0.5,0.5
		s0.2,0.5,0.5,0.5c0.3,0,0.5-0.2,0.5-0.5C256.8,103.5,256.6,103.2,256.3,103.2"/>
	<path id="Path_00000002344008796094065950000000768946412059858333_" class="st0" d="M256.3,110c-0.3,0-0.5,0.2-0.5,0.5
		s0.2,0.5,0.5,0.5c0.3,0,0.5-0.2,0.5-0.5S256.6,110,256.3,110"/>
	<line id="Path_00000041257725442397055300000009493829562054268092_" class="st0" x1="305.1" y1="110.5" x2="310.5" y2="110.5"/>
</g>
<g>
	<path id="Path_00000056404897176641764250000002202490251515161769_" class="st0" d="M313.8,81.1h-63.3c-2.4,0-4.3-1.9-4.3-4.3
		V55.1c0-2.4,1.9-4.3,4.3-4.3h63.3c2.4,0,4.3,1.9,4.3,4.3v21.6C318.1,79.1,316.1,81.1,313.8,81.1z"/>
	<path id="Path_00000069386247649626870030000001791551490745944502_" class="st0" d="M256.3,58.8c-0.3,0-0.5,0.2-0.5,0.5
		s0.2,0.5,0.5,0.5c0.3,0,0.5-0.2,0.5-0.5C256.8,59.1,256.6,58.8,256.3,58.8"/>
	<path id="Path_00000098192424230581176110000015031722076884082338_" class="st0" d="M256.3,65.5c-0.3,0-0.5,0.2-0.5,0.5
		s0.2,0.5,0.5,0.5c0.3,0,0.5-0.2,0.5-0.5S256.6,65.5,256.3,65.5"/>
	<path id="Path_00000168822913053294516350000016687058950755916194_" class="st0" d="M256.3,72.3c-0.3,0-0.5,0.2-0.5,0.5
		s0.2,0.5,0.5,0.5c0.3,0,0.5-0.2,0.5-0.5S256.6,72.3,256.3,72.3"/>
	<line id="Path_00000132048394503506592630000008125226447360912296_" class="st0" x1="305.1" y1="72.8" x2="310.5" y2="72.8"/>
</g>
<line id="Path_00000170261721640504105950000007766847829078234508_" class="st0" x1="169.7" y1="132.7" x2="169.7" y2="123.8"/>
<polyline id="Path_00000145058214645294019380000016932765182470340027_" class="st0" points="65.5,137.9 196.5,137.9 254.3,137.9 
	334.3,137.9 "/>
<line id="Path_00000084490939022542943910000001008148840223694230_" class="st1" x1="225.4" y1="208.2" x2="225.4" y2="222.5"/>
<line id="Path_00000176010436961151078020000000119089963641325727_" class="st1" x1="225.4" y1="182.7" x2="225.4" y2="197"/>
<line id="Path_00000137829859329756322110000006468600669868726944_" class="st1" x1="225.4" y1="157.1" x2="225.4" y2="171.4"/>
<line id="Path_00000095335438640600548410000009722597327274256825_" class="st1" x1="225.4" y1="131.6" x2="225.4" y2="145.9"/>
<line id="Path_00000045614906634808159960000008549546379801873816_" class="st1" x1="225.4" y1="106" x2="225.4" y2="120.3"/>
<line id="Path_00000133499893554156047970000015393953877686076296_" class="st1" x1="225.4" y1="80.4" x2="225.4" y2="94.7"/>
<line id="Path_00000003786372133957000660000005100836680531768748_" class="st1" x1="225.4" y1="54.9" x2="225.4" y2="69.2"/>
<line id="Path_00000160179916566406858120000017214117639840769453_" class="st1" x1="225.4" y1="29.3" x2="225.4" y2="43.6"/>
<line id="Path_00000078034776938551022880000008791821053550954923_" class="st1" x1="225.4" y1="3.8" x2="225.4" y2="18.1"/>
<g>
	<path id="Path_00000158007578511625820690000016704221876246996612_" class="st0" d="M200.4,118.8H137c-2.4,0-4.3-1.9-4.3-4.3V92.9
		c0-2.4,1.9-4.3,4.3-4.3h63.3c2.4,0,4.3,1.9,4.3,4.3v21.6C204.7,116.8,202.8,118.8,200.4,118.8z"/>
	<path id="Path_00000046304524574255169160000015188840693254097825_" class="st0" d="M142.9,96.5c-0.3,0-0.5,0.2-0.5,0.5
		s0.2,0.5,0.5,0.5s0.5-0.2,0.5-0.5S143.2,96.5,142.9,96.5"/>
	<path id="Path_00000099633502538517706430000008966326484573687474_" class="st0" d="M142.9,103.2c-0.3,0-0.5,0.2-0.5,0.5
		s0.2,0.5,0.5,0.5s0.5-0.2,0.5-0.5C143.4,103.5,143.2,103.2,142.9,103.2"/>
	<path id="Path_00000034088112305920655040000010115295247291236514_" class="st0" d="M142.9,110c-0.3,0-0.5,0.2-0.5,0.5
		s0.2,0.5,0.5,0.5s0.5-0.2,0.5-0.5S143.2,110,142.9,110"/>
	<line id="Path_00000129902964785028110100000014141497785144994954_" class="st0" x1="191.8" y1="110.5" x2="197.2" y2="110.5"/>
</g>
<g>
	<path id="Path_00000045586003258299317510000006640617895696610455_" class="st0" d="M200.4,81.1H137c-2.4,0-4.3-1.9-4.3-4.3V55.1
		c0-2.4,1.9-4.3,4.3-4.3h63.3c2.4,0,4.3,1.9,4.3,4.3v21.6C204.7,79.1,202.8,81.1,200.4,81.1z"/>
	<path id="Path_00000087381956573410545050000004794561061750138544_" class="st0" d="M142.9,58.8c-0.3,0-0.5,0.2-0.5,0.5
		s0.2,0.5,0.5,0.5s0.5-0.2,0.5-0.5C143.4,59.1,143.2,58.8,142.9,58.8"/>
	<path id="Path_00000010272460512310479360000017892223877723347093_" class="st0" d="M142.9,65.5c-0.3,0-0.5,0.2-0.5,0.5
		s0.2,0.5,0.5,0.5s0.5-0.2,0.5-0.5S143.2,65.5,142.9,65.5"/>
	<path id="Path_00000132072522700997922340000007457477560964103810_" class="st0" d="M142.9,72.3c-0.3,0-0.5,0.2-0.5,0.5
		s0.2,0.5,0.5,0.5s0.5-0.2,0.5-0.5S143.2,72.3,142.9,72.3"/>
	<line id="Path_00000138570421032688503060000012133116308926302899_" class="st0" x1="191.8" y1="72.8" x2="197.2" y2="72.8"/>
</g>
<path class="st2" d="M128.9,123.2c0,0-2-9.7,5.5-13.7c8.7-4.6,15,0,15,0s11.4-12.5,22.8-5.6c11.3,6.9,5,19.3,5,19.3
	s12.2,2.3,12.2,12.3c0,11.5-14.9,11.5-14.9,11.5h-48.3c0,0-10.5-1.5-10.5-12.7C115.6,123.8,128.9,123.2,128.9,123.2z"/>
<g>
	<path id="Path_00000061443530283133808820000005891483169238792884_" class="st3" d="M281.3,99.4l3.9,1.3c0.9,0.3,1.5,1.1,1.5,2.1
		v3.7c0,2.1,1.7,3.8,3.8,3.9l3.5,0.1c0.8,0,1.5,0.5,1.9,1.2l1.8,3.6c0.4,0.8,0.3,1.8-0.4,2.5l-2.6,2.6c-1.5,1.5-1.5,3.9-0.1,5.4
		l2.4,2.5c0.6,0.6,0.7,1.4,0.5,2.2l-1.3,3.9c-0.3,0.9-1.1,1.5-2.1,1.5h-3.7c-2.1,0-3.8,1.7-3.9,3.8l-0.1,3.5c0,0.8-0.5,1.5-1.2,1.9
		l-3.6,1.8c-0.8,0.4-1.8,0.3-2.5-0.4l-2.6-2.6c-1.5-1.5-3.9-1.5-5.4-0.1l-2.5,2.4c-0.6,0.6-1.4,0.7-2.2,0.5l-3.9-1.3
		c-0.9-0.3-1.5-1.1-1.5-2.1v-3.7c0-2.1-1.7-3.8-3.8-3.9l-3.5-0.1c-0.8,0-1.5-0.5-1.9-1.2l-1.8-3.6c-0.4-0.8-0.3-1.8,0.4-2.5l2.6-2.6
		c1.5-1.5,1.5-3.9,0.1-5.4l-2.4-2.5c-0.6-0.6-0.7-1.4-0.5-2.2l1.3-3.9c0.3-0.9,1.1-1.5,2.1-1.5h3.7c2.1,0,3.8-1.7,3.9-3.8l0.1-3.5
		c0-0.8,0.5-1.5,1.2-1.9l3.6-1.8c0.8-0.4,1.8-0.3,2.5,0.4l2.6,2.6c1.5,1.5,3.9,1.5,5.4,0.1l2.5-2.4
		C279.6,99.3,280.5,99.2,281.3,99.4z"/>
	<path id="Path_00000012468424693184910400000011790335184971718289_" class="st3" d="M277.9,119c2.2,2.2,2.2,5.9,0,8.1
		c-2.2,2.2-5.9,2.2-8.1,0s-2.2-5.9,0-8.1C272,116.7,275.6,116.7,277.9,119"/>
</g>
<g>
	<path id="Path_00000017517146719209977070000012282029159152642737_" class="st4" d="M73.3,144.7H20c-3.7,0-6.7-3-6.7-6.7V91.4
		c0-3.7,3-6.7,6.7-6.7h53.2c3.7,0,6.7,3,6.7,6.7V138C79.9,141.8,76.9,144.7,73.3,144.7z"/>
	<line id="Path_00000114066451958512976710000012469473429401389495_" class="st5" x1="13.4" y1="101.5" x2="79.9" y2="101.5"/>
	<path id="Path_00000067947230231396547050000011761025901800118704_" class="st5" d="M22.6,93.1L22.6,93.1
		C22.6,93.2,22.6,93.2,22.6,93.1C22.6,93.2,22.6,93.2,22.6,93.1L22.6,93.1"/>
	<path id="Path_00000091714381582917421440000017836767178174987420_" class="st5" d="M31.1,93.1L31.1,93.1
		C31.1,93.2,31.1,93.2,31.1,93.1C31.1,93.2,31.1,93.2,31.1,93.1L31.1,93.1"/>
	<path id="Path_00000144308287550998285020000004734952421276001163_" class="st5" d="M39.5,93.1L39.5,93.1
		C39.5,93.2,39.5,93.2,39.5,93.1C39.5,93.2,39.5,93.2,39.5,93.1L39.5,93.1"/>
	<line id="Path_00000016781060690694730230000004454570739768035233_" class="st5" x1="49.2" y1="111.5" x2="44" y2="134.8"/>
	<polyline id="Path_00000014633263267772129950000003448813834914105771_" class="st5" points="57.5,117.3 63.3,123.1 57.5,128.9 	
		"/>
	<polyline id="Path_00000063619675848979218530000003025188817276041906_" class="st5" points="35.8,128.9 30,123.1 35.8,117.3 	"/>
</g>
<g>
	<path class="st4" d="M364.3,135.1c0,5.2,11.7,9.3,26.1,9.3s26.1-4.2,26.1-9.3V90.3c0-5.2-11.7-9.3-26.1-9.3s-26.1,4.2-26.1,9.3
		V135.1z"/>
	<path class="st5" d="M416.5,90.4c0,5.2-11.7,9.3-26.1,9.3s-26.1-4.2-26.1-9.3"/>
	<path class="st5" d="M416.5,120.2c0,5.2-11.7,9.3-26.1,9.3s-26.1-4.2-26.1-9.3"/>
	<path class="st5" d="M416.5,105.3c0,5.2-11.7,9.3-26.1,9.3s-26.1-4.2-26.1-9.3"/>
</g>
<g>
	<path d="M23.5,161.3c0.4,0,0.8,0,1.1,0.1s0.6,0.2,0.9,0.4c0.2,0.2,0.4,0.4,0.6,0.7c0.1,0.3,0.2,0.6,0.2,1s-0.1,0.8-0.3,1.1
		c-0.2,0.3-0.5,0.5-0.9,0.7c0.5,0.2,0.9,0.4,1.2,0.8c0.3,0.4,0.4,0.8,0.4,1.4c0,0.4-0.1,0.8-0.3,1.1c-0.2,0.3-0.4,0.6-0.7,0.8
		c-0.3,0.2-0.6,0.3-1,0.4c-0.4,0.1-0.7,0.1-1.1,0.1h-4.2v-8.6H23.5z M23.3,164.8c0.3,0,0.6-0.1,0.8-0.2c0.2-0.2,0.3-0.4,0.3-0.8
		c0-0.2,0-0.4-0.1-0.5s-0.2-0.2-0.3-0.3s-0.3-0.1-0.4-0.1c-0.2,0-0.3,0-0.5,0h-1.8v2L23.3,164.8L23.3,164.8z M23.4,168.4
		c0.2,0,0.4,0,0.5-0.1c0.2,0,0.3-0.1,0.4-0.2c0.1-0.1,0.2-0.2,0.3-0.3s0.1-0.3,0.1-0.6c0-0.4-0.1-0.8-0.4-0.9
		c-0.2-0.2-0.6-0.3-1-0.3h-2.1v2.4L23.4,168.4L23.4,168.4z"/>
	<path d="M29.4,163.6v1.2l0,0c0.1-0.2,0.2-0.4,0.3-0.5c0.1-0.2,0.3-0.3,0.5-0.4c0.2-0.1,0.4-0.2,0.6-0.3s0.4-0.1,0.6-0.1
		c0.1,0,0.2,0,0.4,0.1v1.6c-0.1,0-0.2,0-0.3,0c-0.1,0-0.2,0-0.3,0c-0.3,0-0.6,0.1-0.8,0.2c-0.2,0.1-0.4,0.2-0.5,0.4
		s-0.2,0.4-0.3,0.6c-0.1,0.2-0.1,0.5-0.1,0.8v2.8h-1.7v-6.2h1.6V163.6z"/>
	<path d="M32.3,165.4c0.2-0.4,0.4-0.7,0.6-1c0.3-0.3,0.6-0.5,1-0.7s0.8-0.2,1.3-0.2s0.9,0.1,1.3,0.2c0.4,0.2,0.7,0.4,1,0.7
		s0.5,0.6,0.6,1c0.2,0.4,0.2,0.9,0.2,1.4s-0.1,0.9-0.2,1.3s-0.4,0.7-0.6,1c-0.3,0.3-0.6,0.5-1,0.7s-0.8,0.2-1.3,0.2
		s-0.9-0.1-1.3-0.2c-0.4-0.2-0.7-0.4-1-0.7s-0.5-0.6-0.6-1c-0.2-0.4-0.2-0.8-0.2-1.3S32.1,165.8,32.3,165.4z M33.8,167.5
		c0,0.2,0.1,0.4,0.2,0.6c0.1,0.2,0.3,0.3,0.5,0.5c0.2,0.1,0.4,0.2,0.7,0.2s0.5-0.1,0.7-0.2c0.2-0.1,0.4-0.3,0.5-0.5s0.2-0.4,0.2-0.6
		c0-0.2,0.1-0.5,0.1-0.7s0-0.5-0.1-0.7c0-0.2-0.1-0.5-0.2-0.6c-0.1-0.2-0.3-0.3-0.5-0.5c-0.2-0.1-0.4-0.2-0.7-0.2s-0.5,0.1-0.7,0.2
		s-0.3,0.3-0.5,0.5c-0.1,0.2-0.2,0.4-0.2,0.6s-0.1,0.5-0.1,0.7S33.8,167.2,33.8,167.5z"/>
	<path d="M44.9,169.9l-1.1-4.2l0,0l-1.1,4.2h-1.8l-2-6.2h1.8l1.1,4.2l0,0l1-4.2h1.7l1.1,4.2l0,0l1.1-4.2h1.8l-2,6.2H44.9z"/>
	<path d="M50.8,168.3c0.1,0.1,0.2,0.2,0.3,0.3s0.3,0.1,0.4,0.2c0.2,0,0.3,0.1,0.5,0.1c0.1,0,0.2,0,0.4,0c0.1,0,0.3-0.1,0.4-0.1
		c0.1-0.1,0.2-0.1,0.3-0.2c0.1-0.1,0.1-0.2,0.1-0.4c0-0.3-0.2-0.4-0.5-0.6c-0.3-0.1-0.8-0.3-1.4-0.4c-0.2-0.1-0.5-0.1-0.7-0.2
		s-0.4-0.2-0.6-0.3s-0.3-0.3-0.4-0.5c-0.1-0.2-0.2-0.4-0.2-0.7c0-0.4,0.1-0.7,0.2-1c0.2-0.3,0.4-0.5,0.6-0.6
		c0.3-0.1,0.5-0.3,0.9-0.3c0.3-0.1,0.6-0.1,1-0.1s0.7,0,1,0.1s0.6,0.2,0.8,0.3c0.2,0.2,0.5,0.4,0.6,0.6s0.3,0.6,0.3,1H53
		c0-0.3-0.1-0.6-0.4-0.7c-0.2-0.1-0.5-0.2-0.8-0.2c-0.1,0-0.2,0-0.3,0s-0.2,0-0.3,0.1s-0.2,0.1-0.2,0.2s-0.1,0.2-0.1,0.3
		c0,0.2,0.1,0.3,0.2,0.4c0.1,0.1,0.3,0.2,0.4,0.2c0.2,0.1,0.4,0.1,0.6,0.2s0.5,0.1,0.7,0.2c0.2,0.1,0.5,0.1,0.7,0.2
		c0.2,0.1,0.4,0.2,0.6,0.3s0.3,0.3,0.4,0.5c0.1,0.2,0.2,0.4,0.2,0.7c0,0.4-0.1,0.8-0.2,1c-0.2,0.3-0.4,0.5-0.6,0.7s-0.6,0.3-0.9,0.4
		c-0.3,0.1-0.7,0.1-1,0.1c-0.4,0-0.7,0-1.1-0.1c-0.3-0.1-0.6-0.2-0.9-0.4c-0.3-0.2-0.5-0.4-0.7-0.7s-0.3-0.6-0.3-1h1.6
		C50.6,168,50.7,168.2,50.8,168.3z"/>
	<path d="M57.6,168.4c0.3,0.2,0.6,0.4,1.1,0.4c0.3,0,0.6-0.1,0.9-0.3s0.4-0.4,0.5-0.5h1.5c-0.2,0.7-0.6,1.3-1.1,1.6
		s-1.1,0.5-1.8,0.5c-0.5,0-0.9-0.1-1.3-0.2s-0.7-0.4-1-0.7s-0.5-0.6-0.6-1s-0.2-0.8-0.2-1.3s0.1-0.9,0.2-1.3c0.2-0.4,0.4-0.7,0.6-1
		c0.3-0.3,0.6-0.5,1-0.7s0.8-0.3,1.3-0.3s1,0.1,1.4,0.3s0.7,0.5,1,0.8s0.4,0.7,0.5,1.2c0.1,0.4,0.2,0.9,0.1,1.4h-4.5
		C57.2,167.7,57.3,168.1,57.6,168.4z M59.5,165.1c-0.2-0.2-0.5-0.3-0.9-0.3c-0.3,0-0.5,0-0.7,0.1s-0.3,0.2-0.4,0.3
		c-0.1,0.1-0.2,0.3-0.2,0.4c0,0.2-0.1,0.3-0.1,0.4H60C59.9,165.7,59.7,165.3,59.5,165.1z"/>
	<path d="M64.3,163.6v1.2l0,0c0.1-0.2,0.2-0.4,0.3-0.5c0.1-0.2,0.3-0.3,0.5-0.4c0.2-0.1,0.4-0.2,0.6-0.3s0.4-0.1,0.6-0.1
		c0.1,0,0.2,0,0.4,0.1v1.6c-0.1,0-0.2,0-0.3,0c-0.1,0-0.2,0-0.3,0c-0.3,0-0.6,0.1-0.8,0.2c-0.2,0.1-0.4,0.2-0.5,0.4
		s-0.2,0.4-0.3,0.6c-0.1,0.2-0.1,0.5-0.1,0.8v2.8h-1.7v-6.2h1.6V163.6z"/>
</g>
<g>
	<path d="M277.3,29.9l3.2,8.6h-2l-0.6-1.9h-3.2l-0.7,1.9h-1.9l3.2-8.6C275.3,29.9,277.3,29.9,277.3,29.9z M277.4,35.1l-1.1-3.1l0,0
		l-1.1,3.1H277.4z"/>
	<path d="M285.1,29.9c0.5,0,1,0.1,1.4,0.2s0.7,0.4,0.9,0.6s0.4,0.5,0.5,0.9c0.1,0.3,0.2,0.7,0.2,1s-0.1,0.7-0.2,1
		c-0.1,0.3-0.3,0.6-0.5,0.9s-0.5,0.5-0.9,0.6c-0.4,0.2-0.8,0.2-1.4,0.2h-2v3.1h-1.9v-8.6h3.9V29.9z M284.6,33.9c0.2,0,0.4,0,0.6,0
		s0.4-0.1,0.5-0.2c0.2-0.1,0.3-0.2,0.4-0.4s0.1-0.4,0.1-0.7s0-0.5-0.1-0.7c-0.1-0.2-0.2-0.3-0.4-0.4c-0.2-0.1-0.3-0.2-0.5-0.2
		s-0.4,0-0.6,0h-1.5v2.6C283.1,33.9,284.6,33.9,284.6,33.9z"/>
	<path d="M291.1,29.9v8.6h-1.9v-8.6C289.2,29.9,291.1,29.9,291.1,29.9z"/>
</g>
<g>
	<path d="M263.9,168.7v7h4.2v1.6H262v-8.6H263.9z"/>
	<path d="M268.9,173c0-0.4,0.1-0.7,0.3-1c0.2-0.3,0.4-0.5,0.7-0.6c0.3-0.2,0.6-0.3,0.9-0.3c0.3-0.1,0.7-0.1,1-0.1s0.6,0,0.9,0.1
		c0.3,0,0.6,0.1,0.9,0.3c0.3,0.1,0.5,0.3,0.6,0.5c0.2,0.2,0.3,0.5,0.3,0.9v3.2c0,0.3,0,0.5,0,0.8s0.1,0.4,0.2,0.6H273
		c0-0.1-0.1-0.2-0.1-0.3s0-0.2,0-0.3c-0.3,0.3-0.6,0.5-1,0.6s-0.7,0.2-1.1,0.2c-0.3,0-0.6,0-0.8-0.1s-0.5-0.2-0.7-0.3
		c-0.2-0.2-0.3-0.3-0.5-0.6c-0.1-0.2-0.2-0.5-0.2-0.8c0-0.4,0.1-0.6,0.2-0.9c0.1-0.2,0.3-0.4,0.5-0.5s0.4-0.2,0.7-0.3
		c0.3-0.1,0.5-0.1,0.8-0.2s0.5-0.1,0.8-0.1c0.2,0,0.5-0.1,0.7-0.1s0.3-0.1,0.5-0.2c0.1-0.1,0.2-0.2,0.2-0.4s0-0.3-0.1-0.4
		c-0.1-0.1-0.1-0.2-0.2-0.3s-0.2-0.1-0.3-0.1c-0.1,0-0.3,0-0.4,0c-0.3,0-0.6,0.1-0.8,0.2c-0.2,0.1-0.3,0.4-0.3,0.7h-2V173z
		 M272.8,174.2c-0.1,0.1-0.2,0.1-0.3,0.2c-0.1,0-0.2,0.1-0.3,0.1c-0.1,0-0.3,0-0.4,0.1c-0.1,0-0.3,0-0.4,0.1c-0.1,0-0.3,0.1-0.4,0.1
		s-0.2,0.1-0.3,0.2s-0.2,0.2-0.2,0.3c-0.1,0.1-0.1,0.2-0.1,0.4s0,0.3,0.1,0.4c0.1,0.1,0.1,0.2,0.2,0.2c0.1,0.1,0.2,0.1,0.3,0.1
		c0.1,0,0.3,0,0.4,0c0.3,0,0.6-0.1,0.8-0.2c0.2-0.1,0.3-0.2,0.4-0.4s0.1-0.3,0.2-0.5c0-0.2,0-0.3,0-0.4L272.8,174.2L272.8,174.2z"/>
	<path d="M277.5,171.1v1.2l0,0c0.1-0.2,0.2-0.4,0.3-0.5s0.3-0.3,0.5-0.4s0.4-0.2,0.6-0.3s0.4-0.1,0.6-0.1c0.1,0,0.2,0,0.4,0.1v1.6
		c-0.1,0-0.2,0-0.3,0c-0.1,0-0.2,0-0.3,0c-0.3,0-0.6,0.1-0.8,0.2c-0.2,0.1-0.4,0.2-0.5,0.4s-0.2,0.4-0.3,0.6
		c-0.1,0.2-0.1,0.5-0.1,0.8v2.8h-1.7v-6.2h1.6V171.1z"/>
	<path d="M280.4,173c0-0.4,0.1-0.7,0.3-1c0.2-0.3,0.4-0.5,0.7-0.6c0.3-0.2,0.6-0.3,0.9-0.3c0.3-0.1,0.7-0.1,1-0.1s0.6,0,0.9,0.1
		c0.3,0,0.6,0.1,0.9,0.3c0.3,0.1,0.5,0.3,0.6,0.5c0.2,0.2,0.3,0.5,0.3,0.9v3.2c0,0.3,0,0.5,0,0.8s0.1,0.4,0.2,0.6h-1.7
		c0-0.1-0.1-0.2-0.1-0.3s0-0.2,0-0.3c-0.3,0.3-0.6,0.5-1,0.6s-0.7,0.2-1.1,0.2c-0.3,0-0.6,0-0.8-0.1s-0.5-0.2-0.7-0.3
		c-0.2-0.2-0.3-0.3-0.5-0.6c-0.1-0.2-0.2-0.5-0.2-0.8c0-0.4,0.1-0.6,0.2-0.9c0.1-0.2,0.3-0.4,0.5-0.5s0.4-0.2,0.7-0.3
		c0.3-0.1,0.5-0.1,0.8-0.2s0.5-0.1,0.8-0.1c0.2,0,0.5-0.1,0.7-0.1s0.3-0.1,0.5-0.2c0.1-0.1,0.2-0.2,0.2-0.4s0-0.3-0.1-0.4
		c-0.1-0.1-0.1-0.2-0.2-0.3s-0.2-0.1-0.3-0.1c-0.1,0-0.3,0-0.4,0c-0.3,0-0.6,0.1-0.8,0.2c-0.2,0.1-0.3,0.4-0.3,0.7h-2V173z
		 M284.4,174.2c-0.1,0.1-0.2,0.1-0.3,0.2c-0.1,0-0.2,0.1-0.3,0.1c-0.1,0-0.3,0-0.4,0.1c-0.1,0-0.3,0-0.4,0.1c-0.1,0-0.3,0.1-0.4,0.1
		s-0.2,0.1-0.3,0.2s-0.2,0.2-0.2,0.3c-0.1,0.1-0.1,0.2-0.1,0.4s0,0.3,0.1,0.4c0.1,0.1,0.1,0.2,0.2,0.2c0.1,0.1,0.2,0.1,0.3,0.1
		c0.1,0,0.3,0,0.4,0c0.3,0,0.6-0.1,0.8-0.2c0.2-0.1,0.3-0.2,0.4-0.4s0.1-0.3,0.2-0.5c0-0.2,0-0.3,0-0.4L284.4,174.2L284.4,174.2z"/>
	<path d="M288.9,177.3l-2.1-6.2h1.8l1.3,4.2l0,0l1.3-4.2h1.7l-2.1,6.2H288.9z"/>
	<path d="M295.5,175.8c0.3,0.2,0.6,0.4,1.1,0.4c0.3,0,0.6-0.1,0.9-0.3s0.4-0.4,0.5-0.5h1.5c-0.2,0.7-0.6,1.3-1.1,1.6
		s-1.1,0.5-1.8,0.5c-0.5,0-0.9-0.1-1.3-0.2c-0.4-0.2-0.7-0.4-1-0.7s-0.5-0.6-0.6-1s-0.2-0.8-0.2-1.3s0.1-0.9,0.2-1.3
		c0.2-0.4,0.4-0.7,0.6-1s0.6-0.5,1-0.7s0.8-0.3,1.3-0.3s1,0.1,1.4,0.3s0.7,0.5,1,0.8s0.4,0.7,0.5,1.2c0.1,0.4,0.2,0.9,0.1,1.4H295
		C295.1,175.1,295.2,175.5,295.5,175.8z M297.4,172.5c-0.2-0.2-0.5-0.3-0.9-0.3c-0.3,0-0.5,0-0.7,0.1s-0.3,0.2-0.4,0.3
		s-0.2,0.3-0.2,0.4c0,0.2-0.1,0.3-0.1,0.4h2.8C297.7,173.1,297.6,172.7,297.4,172.5z"/>
	<path d="M302.3,168.7v8.6h-1.7v-8.6H302.3z"/>
	<path d="M274.3,183.1c0.5,0,1,0.1,1.4,0.2s0.7,0.4,0.9,0.6s0.4,0.5,0.5,0.9c0.1,0.3,0.2,0.7,0.2,1s-0.1,0.7-0.2,1s-0.3,0.6-0.5,0.9
		s-0.5,0.5-0.9,0.6c-0.4,0.2-0.8,0.2-1.4,0.2h-2v3.1h-1.9V183h3.9V183.1z M273.8,187.1c0.2,0,0.4,0,0.6,0s0.4-0.1,0.5-0.2
		c0.2-0.1,0.3-0.2,0.4-0.4s0.1-0.4,0.1-0.7s0-0.5-0.1-0.7s-0.2-0.3-0.4-0.4c-0.2-0.1-0.3-0.2-0.5-0.2s-0.4,0-0.6,0h-1.5v2.6
		L273.8,187.1L273.8,187.1z"/>
	<path d="M280.3,183.1v3.3h3.5v-3.3h1.9v8.6h-1.9V188h-3.5v3.7h-1.9v-8.6H280.3z"/>
	<path d="M291.2,183.1c0.5,0,1,0.1,1.4,0.2s0.7,0.4,0.9,0.6c0.2,0.3,0.4,0.5,0.5,0.9c0.1,0.3,0.2,0.7,0.2,1s-0.1,0.7-0.2,1
		s-0.3,0.6-0.5,0.9c-0.2,0.3-0.5,0.5-0.9,0.6c-0.4,0.2-0.8,0.2-1.4,0.2h-2v3.1h-1.9V183h3.9V183.1z M290.7,187.1c0.2,0,0.4,0,0.6,0
		s0.4-0.1,0.5-0.2c0.2-0.1,0.3-0.2,0.4-0.4s0.1-0.4,0.1-0.7s0-0.5-0.1-0.7s-0.2-0.3-0.4-0.4s-0.3-0.2-0.5-0.2s-0.4,0-0.6,0h-1.5v2.6
		L290.7,187.1L290.7,187.1z"/>
	<path d="M280.6,199.8c-0.1-0.2-0.3-0.3-0.4-0.5s-0.4-0.2-0.6-0.3s-0.4-0.1-0.7-0.1c-0.4,0-0.8,0.1-1.1,0.2
		c-0.3,0.2-0.5,0.4-0.7,0.7s-0.3,0.6-0.4,0.9c-0.1,0.4-0.1,0.7-0.1,1.1c0,0.4,0,0.7,0.1,1s0.2,0.6,0.4,0.9c0.2,0.3,0.4,0.5,0.7,0.7
		s0.7,0.2,1.1,0.2c0.6,0,1-0.2,1.3-0.5c0.3-0.4,0.5-0.8,0.6-1.4h1.8c0,0.5-0.2,1-0.4,1.5c-0.2,0.4-0.5,0.8-0.8,1.1s-0.7,0.5-1.2,0.7
		c-0.4,0.2-0.9,0.2-1.5,0.2c-0.7,0-1.2-0.1-1.8-0.3c-0.5-0.2-1-0.5-1.3-0.9c-0.4-0.4-0.6-0.9-0.8-1.4c-0.2-0.5-0.3-1.1-0.3-1.7
		c0-0.6,0.1-1.2,0.3-1.8c0.2-0.5,0.5-1,0.8-1.4c0.4-0.4,0.8-0.7,1.3-1c0.5-0.2,1.1-0.3,1.8-0.3c0.5,0,0.9,0.1,1.3,0.2
		c0.4,0.1,0.8,0.3,1.1,0.6s0.6,0.6,0.8,1s0.4,0.8,0.4,1.3h-1.8C280.8,200.2,280.7,200,280.6,199.8z"/>
	<path d="M283.6,203.7v-1.1h1.1l0.2-1.5h-1V200h1.1l0.3-2.4h1.2l-0.3,2.4h1.2l0.3-2.4h1.2l-0.3,2.4h0.9v1.1h-1l-0.2,1.5h0.9v1.1h-1
		l-0.3,2.4h-1.2l0.3-2.4h-1.2l-0.3,2.4h-1.2l0.3-2.4H283.6z M285.9,202.6h1.2l0.2-1.5h-1.2L285.9,202.6z"/>
	<path d="M263,211.9l3.6,5.7l0,0v-5.7h1.8v8.6h-1.9l-3.6-5.7l0,0v5.7h-1.8v-8.6H263z"/>
	<path d="M269.9,216c0.2-0.4,0.4-0.7,0.6-1c0.3-0.3,0.6-0.5,1-0.7s0.8-0.2,1.3-0.2s0.9,0.1,1.3,0.2c0.4,0.2,0.7,0.4,1,0.7
		s0.5,0.6,0.6,1c0.2,0.4,0.2,0.9,0.2,1.4s-0.1,0.9-0.2,1.3c-0.2,0.4-0.4,0.7-0.6,1c-0.3,0.3-0.6,0.5-1,0.7s-0.8,0.2-1.3,0.2
		s-0.9-0.1-1.3-0.2c-0.4-0.2-0.7-0.4-1-0.7s-0.5-0.6-0.6-1c-0.2-0.4-0.2-0.8-0.2-1.3S269.7,216.4,269.9,216z M271.4,218.1
		c0,0.2,0.1,0.4,0.2,0.6c0.1,0.2,0.3,0.3,0.5,0.5c0.2,0.1,0.4,0.2,0.7,0.2s0.5-0.1,0.7-0.2c0.2-0.1,0.4-0.3,0.5-0.5s0.2-0.4,0.2-0.6
		c0-0.2,0.1-0.5,0.1-0.7s0-0.5-0.1-0.7c0-0.2-0.1-0.5-0.2-0.6c-0.1-0.2-0.3-0.3-0.5-0.5c-0.2-0.1-0.4-0.2-0.7-0.2s-0.5,0.1-0.7,0.2
		c-0.2,0.1-0.3,0.3-0.5,0.5c-0.1,0.2-0.2,0.4-0.2,0.6s-0.1,0.5-0.1,0.7S271.4,217.9,271.4,218.1z"/>
	<path d="M281.6,219.7c-0.2,0.3-0.5,0.6-0.8,0.7c-0.3,0.1-0.7,0.2-1.1,0.2c-0.5,0-0.9-0.1-1.2-0.3c-0.4-0.2-0.6-0.4-0.9-0.7
		c-0.2-0.3-0.4-0.7-0.5-1.1c-0.1-0.4-0.2-0.8-0.2-1.2s0.1-0.8,0.2-1.2s0.3-0.7,0.5-1s0.5-0.5,0.9-0.7c0.3-0.2,0.7-0.3,1.2-0.3
		c0.4,0,0.7,0.1,1,0.2c0.3,0.2,0.6,0.4,0.8,0.7l0,0v-3.1h1.7v8.6h-1.6V219.7L281.6,219.7z M281.5,216.6c0-0.2-0.1-0.4-0.2-0.6
		c-0.1-0.2-0.3-0.3-0.4-0.4c-0.2-0.1-0.4-0.2-0.7-0.2s-0.5,0.1-0.7,0.2c-0.2,0.1-0.3,0.3-0.5,0.4c-0.1,0.2-0.2,0.4-0.3,0.6
		c-0.1,0.2-0.1,0.5-0.1,0.7s0,0.5,0.1,0.7s0.1,0.5,0.3,0.6c0.1,0.2,0.3,0.3,0.5,0.5c0.2,0.1,0.4,0.2,0.7,0.2c0.3,0,0.5-0.1,0.7-0.2
		c0.2-0.1,0.3-0.3,0.5-0.5c0.1-0.2,0.2-0.4,0.2-0.6s0.1-0.5,0.1-0.7S281.6,216.9,281.5,216.6z"/>
	<path d="M286.3,219c0.3,0.2,0.6,0.4,1.1,0.4c0.3,0,0.6-0.1,0.9-0.3s0.4-0.4,0.5-0.5h1.5c-0.2,0.7-0.6,1.3-1.1,1.6s-1.1,0.5-1.8,0.5
		c-0.5,0-0.9-0.1-1.3-0.2c-0.4-0.2-0.7-0.4-1-0.7s-0.5-0.6-0.6-1s-0.2-0.8-0.2-1.3s0.1-0.9,0.2-1.3c0.2-0.4,0.4-0.7,0.6-1
		s0.6-0.5,1-0.7s0.8-0.3,1.3-0.3s1,0.1,1.4,0.3s0.7,0.5,1,0.8s0.4,0.7,0.5,1.2c0.1,0.4,0.2,0.9,0.1,1.4h-4.5
		C285.9,218.3,286.1,218.7,286.3,219z M288.3,215.7c-0.2-0.2-0.5-0.3-0.9-0.3c-0.3,0-0.5,0-0.7,0.1s-0.3,0.2-0.4,0.3
		s-0.2,0.3-0.2,0.4c0,0.2-0.1,0.3-0.1,0.4h2.8C288.6,216.3,288.5,215.9,288.3,215.7z"/>
	<path d="M293.4,218.6v1.8h-1.9v-1.8H293.4z"/>
	<path d="M294.2,221.2c0.2,0,0.3,0,0.5-0.1c0.1-0.1,0.2-0.2,0.2-0.5v-6.4h1.7v6.5c0,0.3,0,0.6-0.1,0.8s-0.2,0.4-0.3,0.6
		c-0.2,0.2-0.4,0.3-0.7,0.3c-0.3,0.1-0.6,0.1-1.1,0.1c-0.2,0-0.4,0-0.5,0v-1.4C294,221.2,294.1,221.2,294.2,221.2z M294.9,213.3
		v-1.4h1.7v1.4H294.9z"/>
	<path d="M299.5,218.9c0.1,0.1,0.2,0.2,0.3,0.3s0.3,0.1,0.4,0.2s0.3,0.1,0.5,0.1c0.1,0,0.2,0,0.4,0c0.1,0,0.3-0.1,0.4-0.1
		c0.1-0.1,0.2-0.1,0.3-0.2c0.1-0.1,0.1-0.2,0.1-0.4c0-0.3-0.2-0.4-0.5-0.6c-0.3-0.1-0.8-0.3-1.4-0.4c-0.2-0.1-0.5-0.1-0.7-0.2
		c-0.2-0.1-0.4-0.2-0.6-0.3s-0.3-0.3-0.4-0.5s-0.2-0.4-0.2-0.7c0-0.4,0.1-0.7,0.2-1c0.2-0.3,0.4-0.5,0.6-0.6
		c0.3-0.1,0.5-0.3,0.9-0.3c0.3-0.1,0.6-0.1,1-0.1s0.7,0,1,0.1s0.6,0.2,0.8,0.3c0.2,0.2,0.5,0.4,0.6,0.6s0.3,0.6,0.3,1h-1.6
		c0-0.3-0.1-0.6-0.4-0.7c-0.2-0.1-0.5-0.2-0.8-0.2c-0.1,0-0.2,0-0.3,0s-0.2,0-0.3,0.1s-0.2,0.1-0.2,0.2c-0.1,0.1-0.1,0.2-0.1,0.3
		c0,0.2,0.1,0.3,0.2,0.4s0.3,0.2,0.4,0.2c0.2,0.1,0.4,0.1,0.6,0.2c0.2,0,0.5,0.1,0.7,0.2c0.2,0.1,0.5,0.1,0.7,0.2
		c0.2,0.1,0.4,0.2,0.6,0.3s0.3,0.3,0.4,0.5s0.2,0.4,0.2,0.7c0,0.4-0.1,0.8-0.2,1c-0.2,0.3-0.4,0.5-0.6,0.7c-0.3,0.2-0.6,0.3-0.9,0.4
		c-0.3,0.1-0.7,0.1-1,0.1c-0.4,0-0.7,0-1.1-0.1s-0.6-0.2-0.9-0.4s-0.5-0.4-0.7-0.7s-0.3-0.6-0.3-1h1.6
		C299.4,218.6,299.4,218.8,299.5,218.9z"/>
</g>
<g>
	<path d="M161.8,177.4l-2.8-8.6h1.9l1.9,6l0,0l1.9-6h1.9l-2.8,8.6H161.8z"/>
	<path d="M171.1,177.4v-0.9l0,0c-0.2,0.4-0.5,0.6-0.8,0.8s-0.7,0.2-1.1,0.2c-0.5,0-0.8-0.1-1.1-0.2c-0.3-0.1-0.5-0.3-0.7-0.5
		s-0.3-0.5-0.4-0.8s-0.1-0.7-0.1-1v-3.8h1.7v3.5c0,0.5,0.1,0.9,0.2,1.1s0.4,0.4,0.9,0.4s0.8-0.1,1-0.4c0.2-0.3,0.3-0.7,0.3-1.4v-3.3
		h1.7v6.2L171.1,177.4L171.1,177.4z"/>
	<path d="M175.9,175.9c0.3,0.2,0.6,0.4,1.1,0.4c0.3,0,0.6-0.1,0.9-0.3s0.4-0.4,0.5-0.5h1.5c-0.2,0.7-0.6,1.3-1.1,1.6
		s-1.1,0.5-1.8,0.5c-0.5,0-0.9-0.1-1.3-0.2s-0.7-0.4-1-0.7s-0.5-0.6-0.6-1s-0.2-0.8-0.2-1.3s0.1-0.9,0.2-1.3c0.2-0.4,0.4-0.7,0.6-1
		c0.3-0.3,0.6-0.5,1-0.7s0.8-0.3,1.3-0.3s1,0.1,1.4,0.3s0.7,0.5,1,0.8s0.4,0.7,0.5,1.2c0.1,0.4,0.2,0.9,0.1,1.4h-4.5
		C175.5,175.3,175.6,175.7,175.9,175.9z M177.8,172.7c-0.2-0.2-0.5-0.3-0.9-0.3c-0.3,0-0.5,0-0.7,0.1s-0.3,0.2-0.4,0.3
		c-0.1,0.1-0.2,0.3-0.2,0.4c0,0.2-0.1,0.3-0.1,0.4h2.8C178.1,173.2,178,172.9,177.8,172.7z"/>
	<path d="M158.4,183.3c0.4,0,0.7,0.1,1,0.2s0.6,0.3,0.8,0.5s0.4,0.5,0.5,0.8s0.2,0.6,0.2,0.9c0,0.5-0.1,0.9-0.3,1.3
		c-0.2,0.4-0.6,0.6-1,0.8l0,0c0.2,0.1,0.4,0.2,0.6,0.3s0.3,0.3,0.4,0.5c0.1,0.2,0.2,0.4,0.2,0.6s0.1,0.4,0.1,0.6c0,0.1,0,0.3,0,0.5
		s0,0.4,0,0.6c0,0.2,0.1,0.4,0.1,0.5c0,0.2,0.1,0.3,0.2,0.4h-1.9c-0.1-0.3-0.2-0.6-0.2-1s-0.1-0.7-0.1-1.1c-0.1-0.4-0.2-0.8-0.4-1
		s-0.5-0.3-1-0.3h-1.9v3.3h-1.9v-8.6h4.6V183.3z M157.7,187.1c0.4,0,0.8-0.1,1-0.3s0.3-0.5,0.3-0.9s-0.1-0.7-0.3-0.9s-0.5-0.3-1-0.3
		h-2.1v2.4H157.7z"/>
	<path d="M164.1,190.3c0.3,0.2,0.6,0.4,1.1,0.4c0.3,0,0.6-0.1,0.9-0.3s0.4-0.4,0.5-0.5h1.5c-0.2,0.7-0.6,1.3-1.1,1.6
		s-1.1,0.5-1.8,0.5c-0.5,0-0.9-0.1-1.3-0.2s-0.7-0.4-1-0.7s-0.5-0.6-0.6-1s-0.2-0.8-0.2-1.3s0.1-0.9,0.2-1.3c0.2-0.4,0.4-0.7,0.6-1
		c0.3-0.3,0.6-0.5,1-0.7s0.8-0.3,1.3-0.3s1,0.1,1.4,0.3s0.7,0.5,1,0.8s0.4,0.7,0.5,1.2c0.1,0.4,0.2,0.9,0.1,1.4h-4.5
		C163.7,189.7,163.8,190.1,164.1,190.3z M166,187.1c-0.2-0.2-0.5-0.3-0.9-0.3c-0.3,0-0.5,0-0.7,0.1s-0.3,0.2-0.4,0.3
		c-0.1,0.1-0.2,0.3-0.2,0.4c0,0.2-0.1,0.3-0.1,0.4h2.8C166.4,187.6,166.2,187.3,166,187.1z"/>
	<path d="M169.1,187.5c0-0.4,0.1-0.7,0.3-1s0.4-0.5,0.7-0.6s0.6-0.3,0.9-0.3c0.3-0.1,0.7-0.1,1-0.1s0.6,0,0.9,0.1s0.6,0.1,0.9,0.3
		s0.5,0.3,0.6,0.5c0.2,0.2,0.3,0.5,0.3,0.9v3.2c0,0.3,0,0.5,0,0.8s0.1,0.4,0.2,0.6h-1.7c0-0.1-0.1-0.2-0.1-0.3s0-0.2,0-0.3
		c-0.3,0.3-0.6,0.5-1,0.6s-0.7,0.2-1.1,0.2c-0.3,0-0.6,0-0.8-0.1s-0.5-0.2-0.7-0.3c-0.2-0.2-0.3-0.3-0.5-0.6
		c-0.1-0.2-0.2-0.5-0.2-0.8c0-0.4,0.1-0.6,0.2-0.9c0.1-0.2,0.3-0.4,0.5-0.5s0.4-0.2,0.7-0.3s0.5-0.1,0.8-0.2s0.5-0.1,0.8-0.1
		c0.2,0,0.5-0.1,0.7-0.1s0.3-0.1,0.5-0.2c0.1-0.1,0.2-0.2,0.2-0.4s0-0.3-0.1-0.4s-0.1-0.2-0.2-0.3c-0.1-0.1-0.2-0.1-0.3-0.1
		s-0.3,0-0.4,0c-0.3,0-0.6,0.1-0.8,0.2c-0.2,0.1-0.3,0.4-0.3,0.7h-2V187.5z M173,188.8c-0.1,0.1-0.2,0.1-0.3,0.2
		c-0.1,0-0.2,0.1-0.3,0.1s-0.3,0-0.4,0.1c-0.1,0-0.3,0-0.4,0.1c-0.1,0-0.3,0.1-0.4,0.1s-0.2,0.1-0.3,0.2c-0.1,0.1-0.2,0.2-0.2,0.3
		c-0.1,0.1-0.1,0.2-0.1,0.4s0,0.3,0.1,0.4s0.1,0.2,0.2,0.2c0.1,0.1,0.2,0.1,0.3,0.1s0.3,0,0.4,0c0.3,0,0.6-0.1,0.8-0.2
		c0.2-0.1,0.3-0.2,0.4-0.4s0.1-0.3,0.2-0.5s0-0.3,0-0.4V188.8z"/>
	<path d="M179,186.7c-0.3,0-0.5,0.1-0.7,0.2c-0.2,0.1-0.3,0.3-0.5,0.5c-0.1,0.2-0.2,0.4-0.2,0.6c0,0.2-0.1,0.5-0.1,0.7
		s0,0.5,0.1,0.7c0,0.2,0.1,0.4,0.2,0.6c0.1,0.2,0.3,0.3,0.4,0.5s0.4,0.2,0.7,0.2c0.4,0,0.7-0.1,0.9-0.3s0.4-0.5,0.4-0.9h1.6
		c-0.1,0.8-0.4,1.5-1,1.9c-0.5,0.4-1.2,0.6-2,0.6c-0.5,0-0.9-0.1-1.3-0.2c-0.4-0.2-0.7-0.4-1-0.7s-0.5-0.6-0.6-1
		c-0.2-0.4-0.2-0.8-0.2-1.3s0.1-0.9,0.2-1.3c0.1-0.4,0.3-0.8,0.6-1.1s0.6-0.5,1-0.7s0.8-0.3,1.3-0.3c0.4,0,0.7,0,1.1,0.1
		c0.3,0.1,0.6,0.2,0.9,0.4c0.3,0.2,0.5,0.4,0.7,0.7s0.3,0.6,0.3,1h-1.7C180.1,187.1,179.7,186.7,179,186.7z"/>
	<path d="M186.3,185.6v1.1h-1.2v3.1c0,0.3,0,0.5,0.1,0.6s0.3,0.1,0.6,0.1c0.1,0,0.2,0,0.3,0s0.2,0,0.3,0v1.3c-0.1,0-0.3,0-0.5,0
		s-0.3,0-0.5,0c-0.3,0-0.5,0-0.8-0.1c-0.2,0-0.4-0.1-0.6-0.2c-0.2-0.1-0.3-0.3-0.4-0.4c-0.1-0.2-0.2-0.4-0.2-0.8v-3.7h-1v-1.1h1
		v-1.9h1.7v1.9L186.3,185.6L186.3,185.6z"/>
	<path d="M145.8,204.5c-0.1,0.3-0.2,0.7-0.4,0.9c-0.2,0.3-0.5,0.5-0.9,0.7s-0.9,0.3-1.5,0.3c-0.4,0-0.7-0.1-1-0.2s-0.6-0.3-0.9-0.5
		s-0.5-0.5-0.6-0.8c-0.2-0.3-0.2-0.7-0.2-1.2V203h1.7v0.4c0,0.2,0,0.4,0,0.6c0,0.2,0.1,0.3,0.2,0.5s0.2,0.2,0.3,0.3s0.3,0.1,0.5,0.1
		s0.4,0,0.6-0.1c0.1-0.1,0.2-0.2,0.3-0.3s0.1-0.3,0.1-0.5s0-0.3,0-0.5v-5.8h1.9v5.9C145.9,203.8,145.9,204.1,145.8,204.5z"/>
	<path d="M147.3,201.9c0-0.4,0.1-0.7,0.3-1s0.4-0.5,0.7-0.6s0.6-0.3,0.9-0.3c0.3-0.1,0.7-0.1,1-0.1s0.6,0,0.9,0.1s0.6,0.1,0.9,0.3
		s0.5,0.3,0.6,0.5c0.2,0.2,0.3,0.5,0.3,0.9v3.2c0,0.3,0,0.5,0,0.8s0.1,0.4,0.2,0.6h-1.7c0-0.1-0.1-0.2-0.1-0.3s0-0.2,0-0.3
		c-0.3,0.3-0.6,0.5-1,0.6s-0.7,0.2-1.1,0.2c-0.3,0-0.6,0-0.8-0.1s-0.5-0.2-0.7-0.3c-0.2-0.2-0.3-0.3-0.5-0.6
		c-0.1-0.2-0.2-0.5-0.2-0.8c0-0.4,0.1-0.6,0.2-0.9c0.1-0.2,0.3-0.4,0.5-0.5s0.4-0.2,0.7-0.3s0.5-0.1,0.8-0.2s0.5-0.1,0.8-0.1
		c0.2,0,0.5-0.1,0.7-0.1s0.3-0.1,0.5-0.2c0.1-0.1,0.2-0.2,0.2-0.4s0-0.3-0.1-0.4s-0.1-0.2-0.2-0.3c-0.1-0.1-0.2-0.1-0.3-0.1
		s-0.3,0-0.4,0c-0.3,0-0.6,0.1-0.8,0.2c-0.2,0.1-0.3,0.4-0.3,0.7h-2V201.9z M151.2,203.2c-0.1,0.1-0.2,0.1-0.3,0.2
		c-0.1,0-0.2,0.1-0.3,0.1s-0.3,0-0.4,0.1c-0.1,0-0.3,0-0.4,0.1c-0.1,0-0.3,0.1-0.4,0.1s-0.2,0.1-0.3,0.2c-0.1,0.1-0.2,0.2-0.2,0.3
		c-0.1,0.1-0.1,0.2-0.1,0.4s0,0.3,0.1,0.4s0.1,0.2,0.2,0.2c0.1,0.1,0.2,0.1,0.3,0.1s0.3,0,0.4,0c0.3,0,0.6-0.1,0.8-0.2
		c0.2-0.1,0.3-0.2,0.4-0.4s0.1-0.3,0.2-0.5s0-0.3,0-0.4V203.2z"/>
	<path d="M155.8,206.2l-2.1-6.2h1.8l1.3,4.2l0,0l1.3-4.2h1.7l-2.1,6.2H155.8z"/>
	<path d="M160.4,201.9c0-0.4,0.1-0.7,0.3-1s0.4-0.5,0.7-0.6s0.6-0.3,0.9-0.3c0.3-0.1,0.7-0.1,1-0.1s0.6,0,0.9,0.1s0.6,0.1,0.9,0.3
		s0.5,0.3,0.6,0.5c0.2,0.2,0.3,0.5,0.3,0.9v3.2c0,0.3,0,0.5,0,0.8s0.1,0.4,0.2,0.6h-1.7c0-0.1-0.1-0.2-0.1-0.3s0-0.2,0-0.3
		c-0.3,0.3-0.6,0.5-1,0.6s-0.7,0.2-1.1,0.2c-0.3,0-0.6,0-0.8-0.1s-0.5-0.2-0.7-0.3c-0.2-0.2-0.3-0.3-0.5-0.6
		c-0.1-0.2-0.2-0.5-0.2-0.8c0-0.4,0.1-0.6,0.2-0.9c0.1-0.2,0.3-0.4,0.5-0.5s0.4-0.2,0.7-0.3s0.5-0.1,0.8-0.2s0.5-0.1,0.8-0.1
		c0.2,0,0.5-0.1,0.7-0.1s0.3-0.1,0.5-0.2c0.1-0.1,0.2-0.2,0.2-0.4s0-0.3-0.1-0.4s-0.1-0.2-0.2-0.3c-0.1-0.1-0.2-0.1-0.3-0.1
		s-0.3,0-0.4,0c-0.3,0-0.6,0.1-0.8,0.2c-0.2,0.1-0.3,0.4-0.3,0.7h-2V201.9z M164.4,203.2c-0.1,0.1-0.2,0.1-0.3,0.2
		c-0.1,0-0.2,0.1-0.3,0.1s-0.3,0-0.4,0.1c-0.1,0-0.3,0-0.4,0.1c-0.1,0-0.3,0.1-0.4,0.1s-0.2,0.1-0.3,0.2c-0.1,0.1-0.2,0.2-0.2,0.3
		c-0.1,0.1-0.1,0.2-0.1,0.4s0,0.3,0.1,0.4s0.1,0.2,0.2,0.2c0.1,0.1,0.2,0.1,0.3,0.1s0.3,0,0.4,0c0.3,0,0.6-0.1,0.8-0.2
		c0.2-0.1,0.3-0.2,0.4-0.4s0.1-0.3,0.2-0.5s0-0.3,0-0.4V203.2z"/>
	<path d="M168.8,204.7c0.1,0.1,0.2,0.2,0.3,0.3s0.3,0.1,0.4,0.2c0.2,0,0.3,0.1,0.5,0.1c0.1,0,0.2,0,0.4,0c0.1,0,0.3-0.1,0.4-0.1
		c0.1-0.1,0.2-0.1,0.3-0.2c0.1-0.1,0.1-0.2,0.1-0.4c0-0.3-0.2-0.4-0.5-0.6c-0.3-0.1-0.8-0.3-1.4-0.4c-0.2-0.1-0.5-0.1-0.7-0.2
		s-0.4-0.2-0.6-0.3s-0.3-0.3-0.4-0.5c-0.1-0.2-0.2-0.4-0.2-0.7c0-0.4,0.1-0.7,0.2-1c0.2-0.3,0.4-0.5,0.6-0.6
		c0.3-0.1,0.5-0.3,0.9-0.3c0.3-0.1,0.6-0.1,1-0.1s0.7,0,1,0.1s0.6,0.2,0.8,0.3c0.2,0.2,0.5,0.4,0.6,0.6s0.3,0.6,0.3,1H171
		c0-0.3-0.1-0.6-0.4-0.7c-0.2-0.1-0.5-0.2-0.8-0.2c-0.1,0-0.2,0-0.3,0s-0.2,0-0.3,0.1s-0.2,0.1-0.2,0.2s-0.1,0.2-0.1,0.3
		c0,0.2,0.1,0.3,0.2,0.4c0.1,0.1,0.3,0.2,0.4,0.2c0.2,0.1,0.4,0.1,0.6,0.2s0.5,0.1,0.7,0.2c0.2,0.1,0.5,0.1,0.7,0.2
		c0.2,0.1,0.4,0.2,0.6,0.3s0.3,0.3,0.4,0.5c0.1,0.2,0.2,0.4,0.2,0.7c0,0.4-0.1,0.8-0.2,1c-0.2,0.3-0.4,0.5-0.6,0.7s-0.6,0.3-0.9,0.4
		c-0.3,0.1-0.7,0.1-1,0.1c-0.4,0-0.7,0-1.1-0.1c-0.3-0.1-0.6-0.2-0.9-0.4c-0.3-0.2-0.5-0.4-0.7-0.7s-0.3-0.6-0.3-1h1.6
		C168.7,204.4,168.7,204.6,168.8,204.7z"/>
	<path d="M176.8,201.1c-0.3,0-0.5,0.1-0.7,0.2c-0.2,0.1-0.3,0.3-0.5,0.5c-0.1,0.2-0.2,0.4-0.2,0.6c0,0.2-0.1,0.5-0.1,0.7
		s0,0.5,0.1,0.7c0,0.2,0.1,0.4,0.2,0.6c0.1,0.2,0.3,0.3,0.4,0.5s0.4,0.2,0.7,0.2c0.4,0,0.7-0.1,0.9-0.3s0.4-0.5,0.4-0.9h1.6
		c-0.1,0.8-0.4,1.5-1,1.9c-0.5,0.4-1.2,0.6-2,0.6c-0.5,0-0.9-0.1-1.3-0.2c-0.4-0.2-0.7-0.4-1-0.7s-0.5-0.6-0.6-1
		c-0.2-0.4-0.2-0.8-0.2-1.3s0.1-0.9,0.2-1.3c0.1-0.4,0.3-0.8,0.6-1.1s0.6-0.5,1-0.7s0.8-0.3,1.3-0.3c0.4,0,0.7,0,1.1,0.1
		c0.3,0.1,0.6,0.2,0.9,0.4c0.3,0.2,0.5,0.4,0.7,0.7s0.3,0.6,0.3,1h-1.7C177.9,201.5,177.5,201.1,176.8,201.1z"/>
	<path d="M182.3,200v1.2l0,0c0.1-0.2,0.2-0.4,0.3-0.5c0.1-0.2,0.3-0.3,0.5-0.4c0.2-0.1,0.4-0.2,0.6-0.3c0.2-0.1,0.4-0.1,0.6-0.1
		c0.1,0,0.2,0,0.4,0.1v1.6c-0.1,0-0.2,0-0.3,0s-0.2,0-0.3,0c-0.3,0-0.6,0.1-0.8,0.2c-0.2,0.1-0.4,0.2-0.5,0.4s-0.2,0.4-0.3,0.6
		c-0.1,0.2-0.1,0.5-0.1,0.8v2.8h-1.7v-6.2h1.6V200z"/>
	<path d="M185.4,199.1v-1.4h1.7v1.4H185.4z M187.1,200v6.2h-1.7V200H187.1z"/>
	<path d="M190.1,200v0.8l0,0c0.2-0.3,0.5-0.6,0.8-0.7c0.3-0.2,0.7-0.2,1.1-0.2c0.5,0,0.9,0.1,1.3,0.3c0.4,0.2,0.6,0.4,0.9,0.7
		c0.2,0.3,0.4,0.7,0.5,1.1c0.1,0.4,0.2,0.8,0.2,1.3c0,0.4-0.1,0.8-0.2,1.2c-0.1,0.4-0.3,0.7-0.5,1s-0.5,0.5-0.9,0.7
		c-0.3,0.2-0.7,0.3-1.2,0.3c-0.4,0-0.7-0.1-1.1-0.2c-0.3-0.2-0.6-0.4-0.8-0.7l0,0v2.9h-1.7v-8.4h1.6V200z M192.3,204.9
		c0.2-0.1,0.3-0.3,0.5-0.4c0.1-0.2,0.2-0.4,0.2-0.6c0-0.2,0.1-0.5,0.1-0.7s0-0.5-0.1-0.7s-0.1-0.5-0.3-0.6c-0.1-0.2-0.3-0.3-0.5-0.5
		s-0.4-0.2-0.7-0.2s-0.5,0.1-0.7,0.2s-0.3,0.3-0.5,0.5c-0.1,0.2-0.2,0.4-0.2,0.6c0,0.2-0.1,0.5-0.1,0.7s0,0.5,0.1,0.7
		s0.1,0.4,0.3,0.6c0.1,0.2,0.3,0.3,0.5,0.4c0.2,0.1,0.4,0.2,0.7,0.2C191.9,205.1,192.1,205.1,192.3,204.9z"/>
	<path d="M199.2,200v1.1H198v3.1c0,0.3,0,0.5,0.1,0.6s0.3,0.1,0.6,0.1c0.1,0,0.2,0,0.3,0s0.2,0,0.3,0v1.3c-0.1,0-0.3,0-0.5,0
		s-0.3,0-0.5,0c-0.3,0-0.5,0-0.8-0.1c-0.2,0-0.4-0.1-0.6-0.2c-0.2-0.1-0.3-0.3-0.4-0.4c-0.1-0.2-0.2-0.4-0.2-0.8V201h-1v-1.1h1V198
		h1.7v1.9L199.2,200L199.2,200z"/>
</g>
<g>
	<path d="M164.4,38.5l-1.5-5.8l0,0l-1.4,5.8h-1.9l-2.3-8.6h1.9l1.4,5.8l0,0l1.5-5.8h1.8l1.5,5.9l0,0l1.4-5.9h1.8l-2.3,8.6H164.4z"/>
	<path d="M170.4,37c0.3,0.2,0.6,0.4,1.1,0.4c0.3,0,0.6-0.1,0.9-0.3s0.4-0.4,0.5-0.5h1.5c-0.2,0.7-0.6,1.3-1.1,1.6
		c-0.5,0.3-1.1,0.5-1.8,0.5c-0.5,0-0.9-0.1-1.3-0.2s-0.7-0.4-1-0.7c-0.3-0.3-0.5-0.6-0.6-1s-0.2-0.8-0.2-1.3s0.1-0.9,0.2-1.3
		c0.2-0.4,0.4-0.7,0.6-1c0.3-0.3,0.6-0.5,1-0.7s0.8-0.3,1.3-0.3s1,0.1,1.4,0.3s0.7,0.5,1,0.8s0.4,0.7,0.5,1.2
		c0.1,0.4,0.2,0.9,0.1,1.4H170C170,36.3,170.1,36.7,170.4,37z M172.3,33.7c-0.2-0.2-0.5-0.3-0.9-0.3c-0.3,0-0.5,0-0.7,0.1
		s-0.3,0.2-0.4,0.3c-0.1,0.1-0.2,0.3-0.2,0.4c0,0.2-0.1,0.3-0.1,0.4h2.8C172.7,34.3,172.5,33.9,172.3,33.7z"/>
	<path d="M177.2,29.9V33l0,0c0.2-0.3,0.5-0.6,0.8-0.7c0.4-0.1,0.7-0.2,1.1-0.2c0.3,0,0.6,0.1,0.9,0.2s0.6,0.3,0.8,0.6s0.4,0.6,0.6,1
		c0.2,0.4,0.2,0.9,0.2,1.5s-0.1,1.1-0.2,1.5s-0.4,0.8-0.6,1c-0.2,0.3-0.5,0.5-0.8,0.6s-0.6,0.2-0.9,0.2c-0.5,0-0.9-0.1-1.2-0.2
		c-0.4-0.1-0.6-0.4-0.8-0.7l0,0v0.8h-1.6V30h1.7V29.9z M179.9,34.6c-0.1-0.2-0.1-0.5-0.3-0.6c-0.1-0.2-0.3-0.3-0.5-0.4
		s-0.4-0.2-0.7-0.2c-0.2,0-0.5,0.1-0.6,0.2c-0.2,0.1-0.3,0.3-0.5,0.4c-0.1,0.2-0.2,0.4-0.3,0.6s-0.1,0.5-0.1,0.8s0,0.5,0.1,0.7
		s0.1,0.5,0.3,0.6c0.1,0.2,0.3,0.3,0.5,0.4s0.4,0.2,0.6,0.2c0.3,0,0.5-0.1,0.7-0.2s0.3-0.3,0.5-0.4c0.1-0.2,0.2-0.4,0.3-0.6
		s0.1-0.5,0.1-0.7C180,35.1,180,34.8,179.9,34.6z"/>
</g>
<g>
	<path d="M381.4,62.6c0.6,0,1.1,0.1,1.5,0.3c0.5,0.2,0.9,0.4,1.2,0.8c0.3,0.4,0.6,0.8,0.8,1.3c0.2,0.5,0.3,1.1,0.3,1.9
		c0,0.6-0.1,1.2-0.2,1.7c-0.2,0.5-0.4,1-0.7,1.4c-0.3,0.4-0.7,0.7-1.2,0.9c-0.5,0.2-1.1,0.3-1.7,0.3h-3.7v-8.6L381.4,62.6
		L381.4,62.6z M381.3,69.6c0.3,0,0.5,0,0.8-0.1s0.5-0.2,0.7-0.4s0.4-0.5,0.5-0.8s0.2-0.7,0.2-1.2c0-0.4,0-0.8-0.1-1.2
		c-0.1-0.3-0.2-0.6-0.4-0.9s-0.4-0.4-0.8-0.6c-0.3-0.1-0.7-0.2-1.2-0.2h-1.3v5.4C379.7,69.6,381.3,69.6,381.3,69.6z"/>
	<path d="M386.4,66.9c0-0.4,0.1-0.7,0.3-1c0.2-0.3,0.4-0.5,0.7-0.6c0.3-0.2,0.6-0.3,0.9-0.3c0.3-0.1,0.7-0.1,1-0.1s0.6,0,0.9,0.1
		c0.3,0,0.6,0.1,0.9,0.3c0.3,0.1,0.5,0.3,0.6,0.5c0.2,0.2,0.3,0.5,0.3,0.9v3.2c0,0.3,0,0.5,0,0.8s0.1,0.4,0.2,0.6h-1.7
		c0-0.1-0.1-0.2-0.1-0.3c0-0.1,0-0.2,0-0.3c-0.3,0.3-0.6,0.5-1,0.6s-0.7,0.2-1.1,0.2c-0.3,0-0.6,0-0.8-0.1s-0.5-0.2-0.7-0.3
		c-0.2-0.2-0.3-0.3-0.5-0.6c-0.1-0.2-0.2-0.5-0.2-0.8c0-0.4,0.1-0.6,0.2-0.9c0.1-0.2,0.3-0.4,0.5-0.5s0.4-0.2,0.7-0.3
		c0.3-0.1,0.5-0.1,0.8-0.2s0.5-0.1,0.8-0.1c0.2,0,0.5-0.1,0.7-0.1s0.3-0.1,0.5-0.2c0.1-0.1,0.2-0.2,0.2-0.4c0-0.2,0-0.3-0.1-0.4
		s-0.1-0.2-0.2-0.3s-0.2-0.1-0.3-0.1c-0.1,0-0.3,0-0.4,0c-0.3,0-0.6,0.1-0.8,0.2c-0.2,0.1-0.3,0.4-0.3,0.7h-2V66.9z M390.3,68.1
		c-0.1,0.1-0.2,0.1-0.3,0.2c-0.1,0-0.2,0.1-0.3,0.1c-0.1,0-0.3,0-0.4,0.1c-0.1,0-0.3,0-0.4,0.1c-0.1,0-0.3,0.1-0.4,0.1
		s-0.2,0.1-0.3,0.2s-0.2,0.2-0.2,0.3c-0.1,0.1-0.1,0.2-0.1,0.4c0,0.2,0,0.3,0.1,0.4s0.1,0.2,0.2,0.2c0.1,0.1,0.2,0.1,0.3,0.1
		c0.1,0,0.3,0,0.4,0c0.3,0,0.6-0.1,0.8-0.2c0.2-0.1,0.3-0.2,0.4-0.4s0.1-0.3,0.2-0.5c0-0.2,0-0.3,0-0.4L390.3,68.1L390.3,68.1z"/>
	<path d="M396.7,65v1.1h-1.2v3.1c0,0.3,0,0.5,0.1,0.6s0.3,0.1,0.6,0.1c0.1,0,0.2,0,0.3,0s0.2,0,0.3,0v1.3c-0.1,0-0.3,0-0.5,0
		s-0.3,0-0.5,0c-0.3,0-0.5,0-0.8-0.1s-0.4-0.1-0.6-0.2s-0.3-0.3-0.4-0.4c-0.1-0.2-0.2-0.4-0.2-0.8V66h-1v-1.1h1V63h1.7v1.9L396.7,65
		L396.7,65z"/>
	<path d="M397.5,66.9c0-0.4,0.1-0.7,0.3-1s0.4-0.5,0.7-0.6c0.3-0.2,0.6-0.3,0.9-0.3c0.3-0.1,0.7-0.1,1-0.1s0.6,0,0.9,0.1
		c0.3,0,0.6,0.1,0.9,0.3c0.3,0.1,0.5,0.3,0.6,0.5c0.2,0.2,0.3,0.5,0.3,0.9v3.2c0,0.3,0,0.5,0,0.8s0.1,0.4,0.2,0.6h-1.7
		c0-0.1-0.1-0.2-0.1-0.3c0-0.1,0-0.2,0-0.3c-0.3,0.3-0.6,0.5-1,0.6s-0.7,0.2-1.1,0.2c-0.3,0-0.6,0-0.8-0.1s-0.5-0.2-0.7-0.3
		c-0.2-0.2-0.3-0.3-0.5-0.6c-0.1-0.2-0.2-0.5-0.2-0.8c0-0.4,0.1-0.6,0.2-0.9c0.1-0.2,0.3-0.4,0.5-0.5s0.4-0.2,0.7-0.3
		c0.3-0.1,0.5-0.1,0.8-0.2s0.5-0.1,0.8-0.1c0.2,0,0.5-0.1,0.7-0.1s0.3-0.1,0.5-0.2c0.1-0.1,0.2-0.2,0.2-0.4c0-0.2,0-0.3-0.1-0.4
		s-0.1-0.2-0.2-0.3c-0.1-0.1-0.2-0.1-0.3-0.1c-0.1,0-0.3,0-0.4,0c-0.3,0-0.6,0.1-0.8,0.2c-0.2,0.1-0.3,0.4-0.3,0.7h-2V66.9z
		 M401.4,68.1c-0.1,0.1-0.2,0.1-0.3,0.2s-0.2,0.1-0.3,0.1c-0.1,0-0.3,0-0.4,0.1c-0.1,0-0.3,0-0.4,0.1c-0.1,0-0.3,0.1-0.4,0.1
		s-0.2,0.1-0.3,0.2c-0.1,0.1-0.2,0.2-0.2,0.3c-0.1,0.1-0.1,0.2-0.1,0.4c0,0.2,0,0.3,0.1,0.4s0.1,0.2,0.2,0.2
		c0.1,0.1,0.2,0.1,0.3,0.1c0.1,0,0.3,0,0.4,0c0.3,0,0.6-0.1,0.8-0.2c0.2-0.1,0.3-0.2,0.4-0.4s0.1-0.3,0.2-0.5c0-0.2,0-0.3,0-0.4
		L401.4,68.1L401.4,68.1z"/>
</g>
<g>
	<path d="M20.2,1.7v1.6h-4.1v2h3.6v1.4h-3.6v3.5h-1.9V1.7H20.2z"/>
	<path d="M22.7,4.1v1.2l0,0c0.1-0.2,0.2-0.4,0.3-0.5c0.1-0.2,0.3-0.3,0.5-0.4c0.2-0.1,0.4-0.2,0.6-0.3S24.5,4,24.7,4
		c0.1,0,0.2,0,0.4,0.1v1.6c-0.1,0-0.2,0-0.3,0c-0.1,0-0.2,0-0.3,0c-0.3,0-0.6,0.1-0.8,0.2c-0.2,0.1-0.4,0.2-0.5,0.4S23,6.7,22.9,6.9
		c-0.1,0.2-0.1,0.5-0.1,0.8v2.8h-1.7V4.3h1.6V4.1z"/>
	<path d="M25.6,5.8c0.2-0.4,0.4-0.7,0.6-1c0.3-0.3,0.6-0.5,1-0.7s0.8-0.2,1.3-0.2s0.9,0.1,1.3,0.2c0.4,0.2,0.7,0.4,1,0.7
		s0.5,0.6,0.6,1c0.2,0.4,0.2,0.9,0.2,1.3c0,0.5-0.1,0.9-0.2,1.3s-0.4,0.7-0.6,1c-0.3,0.3-0.6,0.5-1,0.7s-0.8,0.2-1.3,0.2
		s-0.9-0.1-1.3-0.2s-0.7-0.4-1-0.7s-0.5-0.6-0.6-1c-0.2-0.4-0.2-0.8-0.2-1.3C25.4,6.7,25.5,6.2,25.6,5.8z M27.2,7.9
		c0,0.2,0.1,0.4,0.2,0.6c0.1,0.2,0.3,0.3,0.5,0.4c0.2,0.1,0.4,0.2,0.7,0.2s0.5-0.1,0.7-0.2c0.2-0.1,0.4-0.3,0.5-0.4
		C29.9,8.3,30,8.1,30,7.9c0-0.2,0.1-0.5,0.1-0.7s0-0.5-0.1-0.7c0-0.2-0.1-0.5-0.2-0.6c-0.1-0.2-0.3-0.3-0.5-0.5
		c-0.2-0.1-0.4-0.2-0.7-0.2s-0.5,0.1-0.7,0.2c-0.2,0.1-0.3,0.3-0.5,0.5c-0.1,0.2-0.2,0.4-0.2,0.6c0,0.2-0.1,0.5-0.1,0.7
		S27.1,7.7,27.2,7.9z"/>
	<path d="M34.5,4.1V5l0,0c0.2-0.4,0.5-0.6,0.8-0.8S36,4,36.4,4c0.5,0,0.8,0.1,1.1,0.2s0.5,0.3,0.7,0.5s0.3,0.5,0.4,0.8
		c0.1,0.3,0.1,0.7,0.1,1.1v3.8H37V6.9c0-0.5-0.1-0.9-0.2-1.1s-0.4-0.4-0.9-0.4s-0.8,0.1-1,0.4c-0.2,0.3-0.3,0.7-0.3,1.4v3.3h-1.7
		V4.3h1.6V4.1z"/>
	<path d="M43.4,4.1v1.1h-1.2v3.1c0,0.3,0,0.5,0.1,0.6S42.6,9,42.9,9c0.1,0,0.2,0,0.3,0s0.2,0,0.3,0v1.3c-0.1,0-0.3,0-0.5,0
		s-0.3,0-0.5,0c-0.3,0-0.5,0-0.8-0.1c-0.2,0-0.4-0.1-0.6-0.2s-0.3-0.3-0.4-0.4s-0.2-0.4-0.2-0.8V5.1h-1V4h1V2.1h1.7V4h1.2V4.1z"/>
	<path d="M46.1,8.8c0.3,0.2,0.6,0.4,1.1,0.4c0.3,0,0.6-0.1,0.9-0.3c0.2-0.2,0.4-0.4,0.5-0.5H50c-0.2,0.7-0.6,1.3-1.1,1.6
		s-1.1,0.5-1.8,0.5c-0.5,0-0.9-0.1-1.3-0.2c-0.4-0.2-0.7-0.4-1-0.7s-0.5-0.6-0.6-1S44,7.6,44,7.2c0-0.5,0.1-0.9,0.2-1.3
		c0.2-0.4,0.4-0.7,0.6-1c0.3-0.3,0.6-0.5,1-0.7s0.8-0.3,1.3-0.3s1,0.1,1.4,0.3s0.7,0.5,1,0.8s0.4,0.7,0.5,1.2
		c0.1,0.4,0.2,0.9,0.1,1.4h-4.5C45.7,8.1,45.8,8.5,46.1,8.8z M48,5.5c-0.2-0.2-0.5-0.3-0.9-0.3c-0.3,0-0.5,0-0.7,0.1
		S46.1,5.5,46,5.6S45.8,5.9,45.8,6s-0.1,0.3-0.1,0.4h2.8C48.3,6.1,48.2,5.7,48,5.5z"/>
	<path d="M52.8,4.1V5l0,0c0.2-0.4,0.5-0.6,0.8-0.8S54.3,4,54.7,4c0.5,0,0.8,0.1,1.1,0.2s0.5,0.3,0.7,0.5s0.3,0.5,0.4,0.8
		C57,5.8,57,6.2,57,6.6v3.8h-1.7V6.9c0-0.5-0.1-0.9-0.2-1.1s-0.4-0.4-0.9-0.4s-0.8,0.1-1,0.4c-0.2,0.3-0.3,0.7-0.3,1.4v3.3h-1.7V4.3
		h1.6V4.1z"/>
	<path d="M62.7,9.5c-0.2,0.3-0.5,0.6-0.8,0.7c-0.3,0.1-0.7,0.2-1.1,0.2c-0.5,0-0.9-0.1-1.2-0.3c-0.4-0.2-0.6-0.4-0.9-0.7
		c-0.2-0.3-0.4-0.7-0.5-1.1C58,8,58,7.5,58,7.1c0-0.4,0.1-0.8,0.2-1.2c0.1-0.4,0.3-0.7,0.5-1s0.5-0.5,0.9-0.7
		c0.3-0.2,0.7-0.3,1.2-0.3c0.4,0,0.7,0.1,1.1,0.2c0.3,0.2,0.6,0.4,0.8,0.7l0,0V1.7h1.7v8.6h-1.6L62.7,9.5L62.7,9.5z M62.6,6.4
		c0-0.2-0.1-0.4-0.2-0.6c-0.1-0.2-0.3-0.3-0.4-0.4c-0.2-0.1-0.4-0.2-0.7-0.2s-0.5,0.1-0.7,0.2s-0.3,0.3-0.5,0.4
		C60,6,59.9,6.2,59.8,6.4c-0.1,0.2-0.1,0.5-0.1,0.7s0,0.5,0.1,0.7s0.1,0.5,0.3,0.6s0.3,0.3,0.5,0.5C60.8,9,61,9.1,61.3,9.1
		S61.8,9,62,8.9c0.2-0.1,0.3-0.3,0.5-0.4c0.1-0.2,0.2-0.4,0.2-0.6c0-0.2,0.1-0.5,0.1-0.7C62.7,6.9,62.6,6.6,62.6,6.4z"/>
</g>
<g>
	<path d="M370.9,1.4c0.4,0,0.8,0,1.1,0.1c0.3,0.1,0.6,0.2,0.9,0.4c0.2,0.2,0.4,0.4,0.6,0.7c0.1,0.3,0.2,0.6,0.2,1s-0.1,0.8-0.3,1.1
		c-0.2,0.3-0.5,0.5-0.9,0.7c0.5,0.2,0.9,0.4,1.2,0.8c0.3,0.4,0.4,0.8,0.4,1.4c0,0.4-0.1,0.8-0.3,1.1s-0.4,0.6-0.7,0.8
		c-0.3,0.2-0.6,0.3-1,0.4S371.4,10,371,10h-4.2V1.4C366.8,1.4,370.9,1.4,370.9,1.4z M370.6,4.9c0.3,0,0.6-0.1,0.8-0.2
		c0.2-0.2,0.3-0.4,0.3-0.8c0-0.2,0-0.4-0.1-0.5s-0.2-0.2-0.3-0.3C371.2,3,371,3,370.9,3c-0.2,0-0.3,0-0.5,0h-1.8v2h2V4.9z
		 M370.7,8.5c0.2,0,0.4,0,0.5-0.1s0.3-0.1,0.4-0.2c0.1-0.1,0.2-0.2,0.3-0.3s0.1-0.3,0.1-0.6c0-0.4-0.1-0.8-0.4-0.9
		c-0.2-0.2-0.6-0.3-1-0.3h-2.1v2.4C368.5,8.5,370.7,8.5,370.7,8.5z"/>
	<path d="M375,5.7c0-0.4,0.1-0.7,0.3-1s0.4-0.5,0.7-0.6c0.3-0.2,0.6-0.3,0.9-0.3c0.3-0.1,0.7-0.1,1-0.1s0.6,0,0.9,0.1
		c0.3,0,0.6,0.1,0.9,0.3c0.3,0.1,0.5,0.3,0.6,0.5s0.3,0.5,0.3,0.9v3.2c0,0.3,0,0.5,0,0.8s0.1,0.4,0.2,0.6h-1.7
		c0-0.1-0.1-0.2-0.1-0.3s0-0.2,0-0.3c-0.3,0.3-0.6,0.5-1,0.6s-0.7,0.2-1.1,0.2c-0.3,0-0.6,0-0.8-0.1c-0.3-0.1-0.5-0.2-0.7-0.3
		c-0.2-0.2-0.3-0.3-0.5-0.6c-0.1-0.2-0.2-0.5-0.2-0.8c0-0.4,0.1-0.6,0.2-0.9s0.3-0.4,0.5-0.5s0.4-0.2,0.7-0.3
		c0.3-0.1,0.5-0.1,0.8-0.2c0.3,0,0.5-0.1,0.8-0.1s0.5-0.1,0.7-0.1s0.3-0.1,0.5-0.2c0.1-0.1,0.2-0.2,0.2-0.4s0-0.3-0.1-0.4
		c-0.1-0.1-0.1-0.2-0.2-0.3S378.6,5,378.5,5c-0.1,0-0.3,0-0.4,0c-0.3,0-0.6,0.1-0.8,0.2S377,5.6,377,5.9h-2V5.7z M379,6.9
		C378.9,7,378.8,7,378.7,7c-0.1,0-0.2,0.1-0.3,0.1s-0.3,0-0.4,0.1c-0.1,0-0.3,0-0.4,0.1c-0.1,0-0.3,0.1-0.4,0.1s-0.2,0.1-0.3,0.2
		c-0.1,0.1-0.2,0.2-0.2,0.3c-0.1,0.1-0.1,0.2-0.1,0.4s0,0.3,0.1,0.4c0.1,0.1,0.1,0.2,0.2,0.2C377,9,377.1,9,377.2,9
		c0.1,0,0.3,0,0.4,0c0.3,0,0.6-0.1,0.8-0.2c0.2-0.1,0.3-0.2,0.4-0.4s0.1-0.3,0.2-0.5c0-0.2,0-0.3,0-0.4L379,6.9L379,6.9z"/>
	<path d="M385,4.9c-0.3,0-0.5,0.1-0.7,0.2c-0.2,0.1-0.3,0.3-0.5,0.5c-0.1,0.2-0.2,0.4-0.2,0.6s-0.1,0.5-0.1,0.7s0,0.5,0.1,0.7
		c0,0.2,0.1,0.4,0.2,0.6s0.3,0.3,0.4,0.5c0.2,0.1,0.4,0.2,0.7,0.2c0.4,0,0.7-0.1,0.9-0.3s0.4-0.5,0.4-0.9h1.6
		c-0.1,0.8-0.4,1.5-1,1.9c-0.5,0.4-1.2,0.6-2,0.6c-0.5,0-0.9-0.1-1.3-0.2c-0.4-0.2-0.7-0.4-1-0.7s-0.5-0.6-0.6-1s-0.2-0.8-0.2-1.3
		s0.1-0.9,0.2-1.3c0.1-0.4,0.3-0.8,0.6-1.1c0.3-0.3,0.6-0.5,1-0.7s0.8-0.3,1.3-0.3c0.4,0,0.7,0,1.1,0.1s0.6,0.2,0.9,0.4
		s0.5,0.4,0.7,0.7s0.3,0.6,0.3,1h-1.7C386.1,5.2,385.7,4.9,385,4.9z"/>
	<path d="M390.8,1.4V6l2.1-2.2h2l-2.3,2.3l2.6,3.9h-2.1l-1.7-2.8l-0.7,0.6v2.1H389V1.3h1.8V1.4z"/>
	<path d="M397.6,8.5c0.3,0.2,0.6,0.4,1.1,0.4c0.3,0,0.6-0.1,0.9-0.3c0.2-0.2,0.4-0.4,0.5-0.5h1.5c-0.2,0.7-0.6,1.3-1.1,1.6
		s-1.1,0.5-1.8,0.5c-0.5,0-0.9-0.1-1.3-0.2c-0.4-0.2-0.7-0.4-1-0.7s-0.5-0.6-0.6-1s-0.2-0.8-0.2-1.3s0.1-0.9,0.2-1.3
		c0.2-0.4,0.4-0.7,0.6-1c0.3-0.3,0.6-0.5,1-0.7s0.8-0.3,1.3-0.3s1,0.1,1.4,0.3s0.7,0.5,1,0.8s0.4,0.7,0.5,1.2s0.2,0.9,0.1,1.4h-4.5
		C397.2,7.8,397.3,8.2,397.6,8.5z M399.5,5.2c-0.2-0.2-0.5-0.3-0.9-0.3c-0.3,0-0.5,0-0.7,0.1s-0.3,0.2-0.4,0.3s-0.2,0.3-0.2,0.4
		s-0.1,0.3-0.1,0.4h2.8C399.9,5.8,399.7,5.4,399.5,5.2z"/>
	<path d="M404.3,3.7v0.9l0,0c0.2-0.4,0.5-0.6,0.8-0.8s0.7-0.2,1.1-0.2c0.5,0,0.8,0.1,1.1,0.2s0.5,0.3,0.7,0.5s0.3,0.5,0.4,0.8
		s0.1,0.7,0.1,1.1V10h-1.7V6.5c0-0.5-0.1-0.9-0.2-1.1S406.2,5,405.7,5s-0.8,0.1-1,0.4c-0.2,0.3-0.3,0.7-0.3,1.4v3.3h-1.7V3.7H404.3z
		"/>
	<path d="M414.2,9.2c-0.2,0.3-0.5,0.6-0.8,0.7s-0.7,0.2-1.1,0.2c-0.5,0-0.9-0.1-1.2-0.3c-0.4-0.2-0.6-0.4-0.9-0.7
		c-0.2-0.3-0.4-0.7-0.5-1.1c-0.1-0.4-0.2-0.8-0.2-1.2s0.1-0.8,0.2-1.2s0.3-0.7,0.5-1s0.5-0.5,0.9-0.7s0.7-0.3,1.2-0.3
		c0.4,0,0.7,0.1,1,0.2c0.3,0.2,0.6,0.4,0.8,0.7l0,0V1.4h1.7V10h-1.6V9.2L414.2,9.2z M414.1,6.1c0-0.2-0.1-0.4-0.2-0.6
		c-0.1-0.2-0.3-0.3-0.4-0.4c-0.2-0.1-0.4-0.2-0.7-0.2s-0.5,0.1-0.7,0.2c-0.2,0.1-0.3,0.3-0.5,0.4c-0.1,0.2-0.2,0.4-0.3,0.6
		c-0.1,0.2-0.1,0.5-0.1,0.7s0,0.5,0.1,0.7s0.1,0.5,0.3,0.6s0.3,0.3,0.5,0.5c0.2,0.1,0.4,0.2,0.7,0.2c0.3,0,0.5-0.1,0.7-0.2
		c0.2-0.1,0.3-0.3,0.5-0.4c0.1-0.2,0.2-0.4,0.2-0.6c0-0.2,0.1-0.5,0.1-0.7C414.2,6.6,414.2,6.3,414.1,6.1z"/>
</g>
<g>
	<path d="M324.9,127.4c0.1,0.2,0.2,0.4,0.4,0.5s0.4,0.2,0.6,0.3s0.5,0.1,0.7,0.1s0.3,0,0.5,0s0.4-0.1,0.5-0.2s0.3-0.2,0.4-0.3
		s0.2-0.3,0.2-0.5s-0.1-0.4-0.2-0.6c-0.1-0.1-0.3-0.3-0.6-0.4c-0.2-0.1-0.5-0.2-0.8-0.3s-0.6-0.2-0.9-0.2c-0.3-0.1-0.6-0.2-0.9-0.3
		s-0.6-0.3-0.8-0.4s-0.4-0.4-0.6-0.7c-0.1-0.3-0.2-0.6-0.2-1s0.1-0.8,0.3-1.1c0.2-0.3,0.4-0.6,0.7-0.8c0.3-0.2,0.6-0.4,1-0.5
		s0.8-0.2,1.2-0.2c0.4,0,0.9,0,1.3,0.1s0.8,0.3,1.1,0.5c0.3,0.2,0.6,0.5,0.8,0.9c0.2,0.3,0.3,0.8,0.3,1.3h-1.8
		c0-0.3-0.1-0.5-0.2-0.6s-0.2-0.3-0.4-0.4c-0.2-0.1-0.3-0.2-0.5-0.2s-0.4-0.1-0.6-0.1s-0.3,0-0.5,0s-0.3,0.1-0.4,0.2
		c-0.1,0.1-0.2,0.2-0.3,0.3s-0.1,0.3-0.1,0.5s0,0.3,0.1,0.4c0.1,0.1,0.2,0.2,0.4,0.3c0.2,0.1,0.4,0.2,0.8,0.3s0.8,0.2,1.3,0.3
		c0.2,0,0.4,0.1,0.7,0.2c0.3,0.1,0.6,0.2,0.8,0.4s0.5,0.4,0.7,0.7s0.3,0.7,0.3,1.2c0,0.4-0.1,0.8-0.2,1.1c-0.2,0.3-0.4,0.6-0.7,0.9
		s-0.7,0.4-1.1,0.6c-0.4,0.1-1,0.2-1.5,0.2s-0.9-0.1-1.4-0.2c-0.4-0.1-0.8-0.3-1.2-0.5s-0.6-0.6-0.8-0.9c-0.2-0.4-0.3-0.8-0.3-1.4
		h1.8C324.8,127,324.8,127.2,324.9,127.4z"/>
	<path d="M337.2,129.3c-0.6,0.3-1.3,0.5-2.1,0.5c-0.7,0-1.2-0.1-1.8-0.3c-0.5-0.2-1-0.5-1.3-0.9c-0.4-0.4-0.6-0.9-0.8-1.4
		c-0.2-0.5-0.3-1.1-0.3-1.7c0-0.6,0.1-1.2,0.3-1.8c0.2-0.5,0.5-1,0.8-1.4c0.4-0.4,0.8-0.7,1.3-1c0.5-0.2,1.1-0.3,1.8-0.3
		c0.7,0,1.3,0.1,1.8,0.3s1,0.6,1.3,1c0.4,0.4,0.6,0.9,0.8,1.4s0.3,1.1,0.3,1.8c0,0.6-0.1,1.2-0.3,1.7c-0.2,0.5-0.5,1-0.8,1.4l1.1,1
		l-0.9,0.9L337.2,129.3z M336.9,127.3c0.2-0.2,0.3-0.5,0.4-0.8s0.1-0.7,0.1-1.2c0-0.4,0-0.7-0.1-1.1s-0.2-0.7-0.4-0.9
		c-0.2-0.3-0.4-0.5-0.7-0.7s-0.7-0.2-1.1-0.2s-0.8,0.1-1.1,0.2s-0.5,0.4-0.7,0.7s-0.3,0.6-0.4,0.9s-0.1,0.7-0.1,1.1
		c0,0.4,0,0.7,0.1,1s0.2,0.6,0.4,0.9c0.2,0.3,0.4,0.5,0.7,0.7s0.7,0.2,1.1,0.2c0.2,0,0.4,0,0.5,0s0.2,0,0.3-0.1l-0.8-0.7l0.9-0.9
		L336.9,127.3z"/>
	<path d="M342.5,121v7h4.2v1.6h-6.1V121H342.5z"/>
</g>
<g>
	<path class="st6" d="M210.3,128.6c-0.1,0.3-0.2,0.6-0.4,0.9c-0.2,0.3-0.5,0.5-0.9,0.7s-0.9,0.3-1.5,0.3c-0.4,0-0.7,0-1-0.1
		s-0.6-0.3-0.9-0.5s-0.5-0.5-0.6-0.8c-0.2-0.3-0.2-0.7-0.2-1.2v-0.7h1.7v0.4c0,0.2,0,0.4,0,0.6c0,0.2,0.1,0.3,0.2,0.4
		c0.1,0.1,0.2,0.2,0.3,0.3s0.3,0.1,0.5,0.1s0.4,0,0.6-0.1c0.1-0.1,0.2-0.2,0.3-0.3s0.1-0.3,0.1-0.5s0-0.3,0-0.5v-5.8h1.9v5.9
		C210.4,127.9,210.3,128.2,210.3,128.6z"/>
	<path class="st6" d="M213.5,128.2c0.1,0.2,0.2,0.4,0.4,0.5s0.4,0.2,0.6,0.3c0.2,0.1,0.5,0.1,0.7,0.1s0.3,0,0.5,0s0.4-0.1,0.5-0.2
		s0.3-0.2,0.4-0.3c0.1-0.1,0.2-0.3,0.2-0.5s-0.1-0.4-0.2-0.6c-0.1-0.1-0.3-0.3-0.6-0.4c-0.2-0.1-0.5-0.2-0.8-0.3s-0.6-0.2-0.9-0.2
		c-0.3-0.1-0.6-0.2-0.9-0.3c-0.3-0.1-0.6-0.3-0.8-0.4c-0.2-0.2-0.4-0.4-0.6-0.7c-0.1-0.3-0.2-0.6-0.2-1s0.1-0.8,0.3-1.1
		s0.4-0.6,0.7-0.8s0.6-0.4,1-0.5s0.8-0.2,1.2-0.2s0.9,0,1.3,0.1s0.8,0.3,1.1,0.5s0.6,0.5,0.8,0.9c0.2,0.3,0.3,0.8,0.3,1.3h-1.8
		c0-0.3-0.1-0.5-0.2-0.6c-0.1-0.2-0.2-0.3-0.4-0.4c-0.2-0.1-0.3-0.2-0.5-0.2s-0.4-0.1-0.6-0.1c-0.2,0-0.3,0-0.5,0s-0.3,0.1-0.4,0.2
		c-0.1,0.1-0.2,0.2-0.3,0.3s-0.1,0.3-0.1,0.5s0,0.3,0.1,0.4c0.1,0.1,0.2,0.2,0.4,0.3s0.4,0.2,0.8,0.3s0.8,0.2,1.3,0.3
		c0.2,0,0.4,0.1,0.7,0.2c0.3,0.1,0.6,0.2,0.8,0.4s0.5,0.4,0.7,0.7s0.3,0.7,0.3,1.2c0,0.4-0.1,0.8-0.2,1.1c-0.2,0.3-0.4,0.6-0.7,0.9
		s-0.7,0.4-1.1,0.6c-0.4,0.1-1,0.2-1.5,0.2s-0.9-0.1-1.4-0.2s-0.8-0.3-1.2-0.5c-0.3-0.2-0.6-0.6-0.8-0.9c-0.2-0.4-0.3-0.8-0.3-1.4
		h1.8C213.3,127.8,213.4,128,213.5,128.2z"/>
	<path class="st6" d="M219.7,124.3c0.2-0.5,0.5-1,0.8-1.4c0.4-0.4,0.8-0.7,1.3-1c0.5-0.2,1.1-0.3,1.8-0.3s1.3,0.1,1.8,0.3
		s1,0.6,1.3,1c0.4,0.4,0.6,0.9,0.8,1.4s0.3,1.1,0.3,1.8c0,0.6-0.1,1.2-0.3,1.7s-0.5,1-0.8,1.4s-0.8,0.7-1.3,0.9s-1.1,0.3-1.8,0.3
		s-1.2-0.1-1.8-0.3c-0.5-0.2-1-0.5-1.3-0.9c-0.4-0.4-0.6-0.9-0.8-1.4s-0.3-1.1-0.3-1.7C219.4,125.5,219.5,124.9,219.7,124.3z
		 M221.5,127.1c0.1,0.3,0.2,0.6,0.4,0.9c0.2,0.3,0.4,0.5,0.7,0.7s0.7,0.2,1.1,0.2c0.4,0,0.8-0.1,1.1-0.2s0.5-0.4,0.7-0.7
		s0.3-0.6,0.4-0.9c0.1-0.3,0.1-0.7,0.1-1c0-0.4,0-0.7-0.1-1.1s-0.2-0.7-0.4-0.9c-0.2-0.3-0.4-0.5-0.7-0.7s-0.7-0.2-1.1-0.2
		c-0.4,0-0.8,0.1-1.1,0.2s-0.5,0.4-0.7,0.7s-0.3,0.6-0.4,0.9s-0.1,0.7-0.1,1.1C221.3,126.5,221.4,126.8,221.5,127.1z"/>
	<path class="st6" d="M231,121.8l3.6,5.7l0,0v-5.7h1.8v8.6h-1.9l-3.6-5.7l0,0v5.7h-1.8v-8.6H231z"/>
</g>
<g>
	<path d="M210.3,128.6c-0.1,0.3-0.2,0.6-0.4,0.9c-0.2,0.3-0.5,0.5-0.9,0.7s-0.9,0.3-1.5,0.3c-0.4,0-0.7,0-1-0.1s-0.6-0.3-0.9-0.5
		s-0.5-0.5-0.6-0.8c-0.2-0.3-0.2-0.7-0.2-1.2v-0.7h1.7v0.4c0,0.2,0,0.4,0,0.6c0,0.2,0.1,0.3,0.2,0.4c0.1,0.1,0.2,0.2,0.3,0.3
		s0.3,0.1,0.5,0.1s0.4,0,0.6-0.1c0.1-0.1,0.2-0.2,0.3-0.3s0.1-0.3,0.1-0.5s0-0.3,0-0.5v-5.8h1.9v5.9
		C210.4,127.9,210.3,128.2,210.3,128.6z"/>
	<path d="M213.5,128.2c0.1,0.2,0.2,0.4,0.4,0.5s0.4,0.2,0.6,0.3c0.2,0.1,0.5,0.1,0.7,0.1s0.3,0,0.5,0s0.4-0.1,0.5-0.2
		s0.3-0.2,0.4-0.3c0.1-0.1,0.2-0.3,0.2-0.5s-0.1-0.4-0.2-0.6c-0.1-0.1-0.3-0.3-0.6-0.4c-0.2-0.1-0.5-0.2-0.8-0.3s-0.6-0.2-0.9-0.2
		c-0.3-0.1-0.6-0.2-0.9-0.3c-0.3-0.1-0.6-0.3-0.8-0.4c-0.2-0.2-0.4-0.4-0.6-0.7c-0.1-0.3-0.2-0.6-0.2-1s0.1-0.8,0.3-1.1
		s0.4-0.6,0.7-0.8s0.6-0.4,1-0.5s0.8-0.2,1.2-0.2s0.9,0,1.3,0.1s0.8,0.3,1.1,0.5s0.6,0.5,0.8,0.9c0.2,0.3,0.3,0.8,0.3,1.3h-1.8
		c0-0.3-0.1-0.5-0.2-0.6c-0.1-0.2-0.2-0.3-0.4-0.4c-0.2-0.1-0.3-0.2-0.5-0.2s-0.4-0.1-0.6-0.1c-0.2,0-0.3,0-0.5,0s-0.3,0.1-0.4,0.2
		c-0.1,0.1-0.2,0.2-0.3,0.3s-0.1,0.3-0.1,0.5s0,0.3,0.1,0.4c0.1,0.1,0.2,0.2,0.4,0.3s0.4,0.2,0.8,0.3s0.8,0.2,1.3,0.3
		c0.2,0,0.4,0.1,0.7,0.2c0.3,0.1,0.6,0.2,0.8,0.4s0.5,0.4,0.7,0.7s0.3,0.7,0.3,1.2c0,0.4-0.1,0.8-0.2,1.1c-0.2,0.3-0.4,0.6-0.7,0.9
		s-0.7,0.4-1.1,0.6c-0.4,0.1-1,0.2-1.5,0.2s-0.9-0.1-1.4-0.2s-0.8-0.3-1.2-0.5c-0.3-0.2-0.6-0.6-0.8-0.9c-0.2-0.4-0.3-0.8-0.3-1.4
		h1.8C213.3,127.8,213.4,128,213.5,128.2z"/>
	<path d="M219.7,124.3c0.2-0.5,0.5-1,0.8-1.4c0.4-0.4,0.8-0.7,1.3-1c0.5-0.2,1.1-0.3,1.8-0.3s1.3,0.1,1.8,0.3s1,0.6,1.3,1
		c0.4,0.4,0.6,0.9,0.8,1.4s0.3,1.1,0.3,1.8c0,0.6-0.1,1.2-0.3,1.7s-0.5,1-0.8,1.4s-0.8,0.7-1.3,0.9s-1.1,0.3-1.8,0.3
		s-1.2-0.1-1.8-0.3c-0.5-0.2-1-0.5-1.3-0.9c-0.4-0.4-0.6-0.9-0.8-1.4s-0.3-1.1-0.3-1.7C219.4,125.5,219.5,124.9,219.7,124.3z
		 M221.5,127.1c0.1,0.3,0.2,0.6,0.4,0.9c0.2,0.3,0.4,0.5,0.7,0.7s0.7,0.2,1.1,0.2c0.4,0,0.8-0.1,1.1-0.2s0.5-0.4,0.7-0.7
		s0.3-0.6,0.4-0.9c0.1-0.3,0.1-0.7,0.1-1c0-0.4,0-0.7-0.1-1.1s-0.2-0.7-0.4-0.9c-0.2-0.3-0.4-0.5-0.7-0.7s-0.7-0.2-1.1-0.2
		c-0.4,0-0.8,0.1-1.1,0.2s-0.5,0.4-0.7,0.7s-0.3,0.6-0.4,0.9s-0.1,0.7-0.1,1.1C221.3,126.5,221.4,126.8,221.5,127.1z"/>
	<path d="M231,121.8l3.6,5.7l0,0v-5.7h1.8v8.6h-1.9l-3.6-5.7l0,0v5.7h-1.8v-8.6H231z"/>
</g>
</svg>
