<?xml version="1.0" encoding="utf-8"?>
<!-- Generator: Adobe Illustrator 27.6.1, SVG Export Plug-In . SVG Version: 6.00 Build 0)  -->
<svg version="1.1" id="Laag_1" xmlns="http://www.w3.org/2000/svg" xmlns:xlink="http://www.w3.org/1999/xlink" x="0px" y="0px"
	 viewBox="0 0 1024 789.9" style="enable-background:new 0 0 1024 789.9;" xml:space="preserve">
<style type="text/css">
	.st0{fill:#727272;}
	.st1{fill-rule:evenodd;clip-rule:evenodd;fill:#FFFFFF;}
	.st2{fill-rule:evenodd;clip-rule:evenodd;fill:#FF2D20;}
	.st3{fill:#FFFFFF;}
	.st4{fill:#41B883;}
	.st5{fill:#34495E;}
</style>
<g>
	<g>
		<path class="st0" d="M982,43C954,15,910,1,849.9,1H174C114.3,0.7,70.3,14.5,42.2,42.5S0,114.7,0,175v440.8
			c0,59.1,14.1,102.7,42.2,130.9c28.2,28.1,72.1,42.2,131.8,42.2h675.9c60,0,104.1-14.1,132.1-42.2c28-28.2,42-72.1,42-131.8V175.1
			C1024,115,1010,71,982,43z"/>
	</g>
</g>
<path class="st1" d="M240.9,301.6c0.1,0.3,0.1,0.5,0.1,0.8v43c0,1.1-0.6,2.2-1.6,2.7l-36,20.8v41.1c0,1.1-0.6,2.2-1.6,2.7
	l-75.3,43.3c-0.2,0.1-0.3,0.2-0.5,0.2c-0.1,0-0.2,0.1-0.2,0.1c-0.5,0.2-1.1,0.2-1.6,0c-0.1,0-0.2-0.1-0.2-0.1
	c-0.2-0.1-0.3-0.1-0.5-0.2l-75.2-43.3c-1-0.6-1.6-1.6-1.6-2.7V281.1c0-0.3,0-0.6,0.1-0.8c0-0.1,0.1-0.2,0.1-0.3
	c0.1-0.2,0.1-0.3,0.2-0.5c0.1-0.1,0.2-0.2,0.2-0.3c0.1-0.1,0.2-0.3,0.3-0.4c0.1-0.1,0.2-0.2,0.3-0.2c0.1-0.1,0.2-0.2,0.3-0.3l0,0
	l37.6-21.6c1-0.6,2.2-0.6,3.1,0l37.6,21.6l0,0c0.1,0.1,0.2,0.2,0.3,0.3c0.1,0.1,0.2,0.2,0.3,0.2c0.1,0.1,0.2,0.2,0.3,0.4
	c0.1,0.1,0.2,0.2,0.2,0.3c0.1,0.2,0.2,0.3,0.2,0.5c0,0.1,0.1,0.2,0.1,0.3c0.1,0.3,0.1,0.5,0.1,0.8v80.5l31.3-18v-41.2
	c0-0.3,0-0.6,0.1-0.8c0-0.1,0.1-0.2,0.1-0.3c0.1-0.2,0.1-0.3,0.2-0.5c0.1-0.1,0.2-0.2,0.2-0.3c0.1-0.1,0.2-0.3,0.3-0.4
	c0.1-0.1,0.2-0.2,0.3-0.2c0.1-0.1,0.2-0.2,0.3-0.3l0,0l37.6-21.6c1-0.6,2.2-0.6,3.1,0l37.6,21.6c0.1,0.1,0.2,0.2,0.3,0.3
	c0.1,0.1,0.2,0.2,0.3,0.2c0.1,0.1,0.2,0.2,0.3,0.4c0.1,0.1,0.2,0.2,0.2,0.3c0.1,0.2,0.2,0.3,0.2,0.5
	C240.8,301.4,240.9,301.5,240.9,301.6z M234.7,343.5v-35.7l-13.2,7.6l-18.2,10.5v35.7L234.7,343.5L234.7,343.5z M197.1,408.1v-35.7
	l-17.9,10.2l-51.1,29.1v36.1C128.2,447.8,197.1,408.1,197.1,408.1z M53,286.5v121.6l68.9,39.7v-36.1l-36-20.4l0,0l0,0
	c-0.1-0.1-0.2-0.2-0.3-0.3c-0.1-0.1-0.2-0.2-0.3-0.2l0,0c-0.1-0.1-0.2-0.2-0.3-0.3c-0.1-0.1-0.2-0.2-0.2-0.3l0,0
	c-0.1-0.1-0.1-0.3-0.2-0.4s-0.1-0.2-0.2-0.3l0,0c0-0.2,0-0.3-0.1-0.5c0-0.1,0-0.2,0-0.3l0,0v-84.1l-18.2-10.5L53,286.5L53,286.5z
	 M87.4,263.1l-31.3,18l31.3,18l31.3-18L87.4,263.1L87.4,263.1z M103.7,375.6l18.2-10.5v-78.6l-13.2,7.6l-18.2,10.5v78.6L103.7,375.6
	z M200.3,284.3l-31.3,18.1l31.3,18l31.3-18C231.6,302.4,200.3,284.3,200.3,284.3z M197.1,325.8l-18.2-10.5l-13.2-7.6v35.7L184,354
	l13.2,7.6V325.8z M125,406.3l46-26.3l23-13.1l-31.3-18l-36,20.7l-32.9,18.9C93.8,388.6,125,406.3,125,406.3z"/>
<path class="st2" d="M298.7,270.5v144.2h52.2v24.8h-80v-169H298.7z M448.9,342.2V327h26.3v112.6h-26.3v-15.2
	c-3.5,5.7-8.5,10.1-15.1,13.2c-6.5,3.2-13.1,4.8-19.6,4.8c-8.5,0-16.3-1.6-23.4-4.7c-6.9-3-13.1-7.4-18.3-12.9
	c-5.1-5.5-9.1-11.9-11.9-18.8c-2.9-7.2-4.3-14.9-4.3-22.7c0-7.9,1.4-15.4,4.3-22.6c2.7-7,6.8-13.4,11.9-19
	c5.1-5.5,11.3-9.9,18.3-12.9c7-3.2,14.9-4.7,23.4-4.7c6.6,0,13.2,1.6,19.6,4.8S445.4,336.5,448.9,342.2L448.9,342.2z M446.5,397
	c1.6-4.4,2.4-9.1,2.4-13.8c0-4.8-0.8-9.5-2.4-13.8c-1.5-4.2-3.8-8.1-6.8-11.4c-3-3.2-6.5-5.9-10.5-7.7c-4.1-1.9-8.6-2.9-13.6-2.9
	c-5,0-9.5,0.9-13.5,2.9c-3.9,1.9-7.5,4.5-10.4,7.7c-3,3.3-5.2,7.1-6.7,11.3c-1.6,4.4-2.3,9.1-2.3,13.8c0,4.8,0.7,9.5,2.3,13.8
	c1.5,4.4,3.7,8.2,6.7,11.4c2.9,3.2,6.5,5.8,10.4,7.7c4,1.9,8.5,2.9,13.5,2.9c5,0,9.5-0.9,13.6-2.9c4-1.9,7.6-4.4,10.5-7.7
	C442.7,405,445,401.2,446.5,397z M496,439.5V327h71.4v25.9h-45.1v86.6L496,439.5L496,439.5z M662.9,342.2V327h26.3v112.6h-26.3
	v-15.2c-3.5,5.7-8.5,10.1-15.1,13.2c-6.5,3.2-13.1,4.8-19.6,4.8c-8.5,0-16.3-1.6-23.4-4.7c-6.9-3-13.1-7.4-18.3-12.9
	c-5.1-5.5-9.1-11.9-11.9-18.8c-2.9-7.2-4.3-14.9-4.3-22.7c0-7.9,1.4-15.4,4.3-22.6c2.7-7,6.8-13.4,11.9-19
	c5.1-5.5,11.3-9.9,18.3-12.9c7-3.2,14.9-4.7,23.4-4.7c6.6,0,13.2,1.6,19.6,4.8C654.4,332.1,659.4,336.5,662.9,342.2z M660.5,397
	c1.6-4.4,2.4-9.1,2.4-13.8c0-4.8-0.8-9.5-2.4-13.8c-1.5-4.2-3.8-8.1-6.8-11.4c-3-3.2-6.5-5.9-10.5-7.7c-4.1-1.9-8.6-2.9-13.6-2.9
	s-9.5,0.9-13.5,2.9c-3.9,1.9-7.5,4.5-10.4,7.7c-3,3.3-5.2,7.1-6.7,11.3c-1.6,4.4-2.3,9.1-2.3,13.8c0,4.8,0.7,9.5,2.3,13.8
	c1.5,4.4,3.7,8.2,6.7,11.4c2.9,3.2,6.5,5.8,10.4,7.7c4,1.9,8.5,2.9,13.5,2.9c5,0,9.5-0.9,13.6-2.9c4-1.9,7.6-4.4,10.5-7.7
	C656.7,405,659,401.2,660.5,397z M794.7,327h26.7l-43.2,112.6h-33.1L702,327h26.7l33.1,86.2L794.7,327z M878.9,324.1
	c35.9,0,60.3,31.8,55.7,68.9h-87.3c0,9.7,9.8,28.4,33.1,28.4c20,0,33.4-17.6,33.4-17.6l17.8,13.8c-15.9,17-28.9,24.7-49.3,24.7
	c-36.4,0-61.2-23.1-61.2-59.2C821,350.6,846.6,324.1,878.9,324.1L878.9,324.1z M847.3,373.5h63.1c-0.2-2.1-3.6-28.4-31.7-28.4
	C850.5,345,847.4,371.3,847.3,373.5z M951.7,439.5v-169H978v169H951.7z"/>
<g>
	<path class="st3" d="M371,180.6h-61.4L298,214.8h-36.4l59.5-166.8h39.4l59.1,166.8h-37.8L371,180.6z M361.3,151.8l-20.8-65.6
		l-21.5,65.6H361.3z"/>
	<path class="st3" d="M511.5,154.9h-35.4v60h-34.6V48.1h72.6c16.7,0,30.1,4.3,40.1,12.9c10,8.6,14.9,21.9,14.9,39.9
		c0,19.7-5,33.6-14.9,41.8C544.2,150.8,530,154.9,511.5,154.9z M527.8,120.1c4.5-4,6.8-10.3,6.8-19c0-8.7-2.3-14.9-6.8-18.6
		c-4.6-3.7-11-5.5-19.2-5.5h-32.5v49.1h32.5C516.8,126.1,523.2,124.1,527.8,120.1z"/>
	<path class="st3" d="M592.5,48.1h34.6v166.8h-34.6V48.1z"/>
	<path class="st3" d="M689.2,72.5c0,11.4-2.8,20.4-8.3,26.9c-5.5,6.6-13.3,10.8-23.4,12.8v-11.9c7.4-2.3,12.5-6.3,15.3-11.9
		c1.5-3.3,2.1-6.7,1.9-10.1h-17.8V48.6h32.2V72.5z"/>
	<path class="st3" d="M797.9,97.2c9.7,6.2,15.2,16.8,16.6,31.9h-32.2c-0.5-4.1-1.6-7.4-3.5-9.8c-3.5-4.4-9.6-6.6-18.1-6.6
		c-7,0-12,1.1-15,3.3c-3,2.2-4.5,4.8-4.5,7.7c0,3.7,1.6,6.4,4.8,8c3.2,1.7,14.4,4.7,33.6,8.9c12.8,3,22.4,7.6,28.9,13.7
		c6.3,6.2,9.5,13.9,9.5,23.2c0,12.2-4.5,22.2-13.6,29.9c-9.1,7.7-23.1,11.6-42.2,11.6c-19.4,0-33.7-4.1-42.9-12.3
		c-9.2-8.2-13.9-18.6-13.9-31.3h32.7c0.7,5.7,2.2,9.8,4.4,12.2c4,4.3,11.4,6.5,22.2,6.5c6.3,0,11.4-0.9,15.1-2.8
		c3.7-1.9,5.6-4.7,5.6-8.5c0-3.6-1.5-6.4-4.5-8.3c-3-1.9-14.2-5.1-33.6-9.7c-14-3.5-23.8-7.8-29.5-13c-5.7-5.1-8.6-12.5-8.6-22.2
		c0-11.4,4.5-21.2,13.4-29.4C731.5,92.1,744,88,760.2,88C775.6,88,788.2,91.1,797.9,97.2z"/>
</g>
<g transform="matrix(1.3333 0 0 -1.3333 -76.311 313.34)">
	<g transform="translate(178.06 235.01)">
		<path class="st4" d="M12.9-402l-20.1-34.8L-27.2-402h-66.9l87-150.6l87,150.6H12.9z"/>
	</g>
	<g transform="translate(178.06 235.01)">
		<path class="st5" d="M12.9-402l-20.1-34.8L-27.2-402h-32.1l52.2-90.4L45-402H12.9z"/>
	</g>
</g>
<g>
	<path class="st3" d="M290.4,540.1h31.2l30.3,106l30.6-106h30.3l-47.6,139.6h-27.6L290.4,540.1z"/>
	<path class="st3" d="M486.9,665c-0.3,0.3-0.9,1.3-1.9,2.8c-1,1.6-2.2,3-3.6,4.2c-4.2,3.8-8.3,6.4-12.3,7.8
		c-3.9,1.4-8.6,2.1-13.9,2.1c-15.3,0-25.6-5.5-30.9-16.5c-3-6.1-4.5-15-4.5-26.8v-62.2h27.6v62.2c0,5.9,0.7,10.3,2.1,13.3
		c2.5,5.2,7.3,7.9,14.5,7.9c9.2,0,15.5-3.7,18.9-11.2c1.8-4,2.7-9.4,2.7-16v-56.1h27.4v103.2h-26.2V665z"/>
	<path class="st3" d="M627.6,649.3c-0.7,6.1-3.9,12.3-9.6,18.7c-8.8,10-21.2,15.1-37.1,15.1c-13.1,0-24.7-4.2-34.7-12.7
		c-10-8.5-15.1-22.2-15.1-41.3c0-17.9,4.5-31.6,13.6-41.1c9.1-9.5,20.8-14.3,35.3-14.3c8.6,0,16.3,1.6,23.2,4.8
		c6.9,3.2,12.6,8.3,17,15.2c4,6.1,6.7,13.2,7.9,21.3c0.7,4.7,1,11.6,0.9,20.5h-70.6c0.4,10.4,3.6,17.6,9.8,21.8
		c3.7,2.6,8.2,3.9,13.4,3.9c5.6,0,10.1-1.6,13.5-4.7c1.9-1.7,3.6-4.1,5-7.1H627.6z M600.9,617.7c-0.4-7.1-2.6-12.5-6.5-16.2
		c-3.9-3.7-8.7-5.5-14.4-5.5c-6.2,0-11.1,2-14.5,5.9c-3.4,3.9-5.6,9.2-6.5,15.9H600.9z"/>
	<path class="st3" d="M646.6,651.4h28.7v28.2h-28.7V651.4z"/>
	<path class="st3" d="M702.2,576.9h27v113.8c0,10.4-2.1,18.1-6.2,23.1c-4.1,5-12.2,7.5-24.1,7.5c-0.8,0-2,0-3.6-0.1
		c-1.6-0.1-3.6-0.1-6-0.2v-21.6c1.5,0.1,2.6,0.2,3.2,0.2c0.6,0,1.2,0,1.7,0c2.7,0,4.7-0.6,6-1.9c1.4-1.3,2-3.8,2-7.5V576.9z
		 M702.2,539.2h27v24.9h-27V539.2z"/>
	<path class="st3" d="M825.9,581.2c8.1,5.2,12.7,14.1,13.9,26.7h-27c-0.4-3.5-1.4-6.2-2.9-8.2c-3-3.7-8-5.5-15.1-5.5
		c-5.9,0-10.1,0.9-12.5,2.7c-2.5,1.8-3.7,4-3.7,6.4c0,3.1,1.3,5.3,4,6.7c2.7,1.5,12,3.9,28.1,7.5c10.7,2.5,18.8,6.3,24.1,11.5
		c5.3,5.2,8,11.6,8,19.4c0,10.2-3.8,18.6-11.4,25c-7.6,6.5-19.4,9.7-35.3,9.7c-16.2,0-28.2-3.4-35.9-10.3
		c-7.7-6.8-11.6-15.6-11.6-26.2h27.4c0.6,4.8,1.8,8.2,3.7,10.2c3.3,3.6,9.5,5.4,18.6,5.4c5.3,0,9.5-0.8,12.6-2.4
		c3.1-1.6,4.7-3.9,4.7-7.1c0-3-1.3-5.3-3.8-6.9c-2.5-1.6-11.9-4.3-28.1-8.1c-11.7-2.9-19.9-6.5-24.7-10.9
		c-4.8-4.3-7.2-10.5-7.2-18.6c0-9.5,3.7-17.7,11.2-24.6c7.5-6.8,18-10.3,31.6-10.3C807.3,573.5,817.8,576,825.9,581.2z"/>
</g>
</svg>
