<?xml version="1.0" encoding="utf-8"?>
<!-- Generator: Adobe Illustrator 27.5.0, SVG Export Plug-In . SVG Version: 6.00 Build 0)  -->
<svg version="1.1" id="Laag_1" xmlns="http://www.w3.org/2000/svg" xmlns:xlink="http://www.w3.org/1999/xlink" x="0px" y="0px"
	 viewBox="0 0 247 191" style="enable-background:new 0 0 247 191;" xml:space="preserve">
<style type="text/css">
	.st0{fill:#62A22D;}
	.st1{fill:#FFFFFF;}
</style>
<path class="st0" d="M41.8,190.6c-14.4,0-25-3.4-31.8-10.2s-10.2-17.3-10.2-31.6V42.4c0-14.6,3.4-25.2,10.2-32s17.4-10.1,31.8-10
	h163.1c14.5,0,25.1,3.4,31.9,10.1c6.8,6.8,10.1,17.4,10.1,31.9v106.2c0,14.4-3.4,25-10.1,31.8c-6.8,6.8-17.4,10.2-31.9,10.2H41.8z"
	/>
<g transform="translate(1.4065934065934016 1.4065934065934016) scale(2.81 2.81)">
	<path class="st1" d="M42.8,9.7c-0.1,0-0.2,0-0.3-0.1l-7-3.4c-0.2-0.1-0.4-0.4-0.4-0.6c0-0.3,0.1-0.5,0.4-0.6l7-3.4
		c0.2-0.1,0.4-0.1,0.6,0l7,3.4c0.2,0.1,0.4,0.4,0.4,0.6c0,0.3-0.1,0.5-0.4,0.6l-7,3.4C43,9.7,42.9,9.7,42.8,9.7z M37.4,5.7l5.4,2.6
		l5.4-2.6l-5.4-2.6L37.4,5.7z"/>
	<path class="st1" d="M42.8,18c-0.1,0-0.2,0-0.3-0.1l-7-3.4c-0.2-0.1-0.4-0.4-0.4-0.6V5.7c0-0.2,0.1-0.5,0.3-0.6
		c0.2-0.1,0.4-0.1,0.7,0l6.7,3.2l6.7-3.2c0.2-0.1,0.5-0.1,0.7,0c0.2,0.1,0.3,0.3,0.3,0.6V14c0,0.3-0.1,0.5-0.4,0.6l-7,3.4
		C43,18,42.9,18,42.8,18z M36.5,13.6l6.3,3.1l6.3-3.1V6.8l-6,2.9c-0.2,0.1-0.4,0.1-0.6,0l-6-2.9V13.6z"/>
	<path class="st1" d="M42.8,18c-0.4,0-0.7-0.3-0.7-0.7V9.1c0-0.4,0.3-0.7,0.7-0.7s0.7,0.3,0.7,0.7v8.3C43.5,17.7,43.2,18,42.8,18z"
		/>
	<path class="st1" d="M42.8,54.4c-0.1,0-0.2,0-0.3-0.1l-7-3.4c-0.2-0.1-0.4-0.4-0.4-0.6s0.1-0.5,0.4-0.6l7-3.4
		c0.2-0.1,0.4-0.1,0.6,0l7,3.4c0.2,0.1,0.4,0.4,0.4,0.6S50.3,50.9,50,51l-7,3.4C43,54.4,42.9,54.4,42.8,54.4z M37.4,50.4l5.4,2.6
		l5.4-2.6l-5.4-2.6L37.4,50.4z"/>
	<path class="st1" d="M42.8,62.7c-0.1,0-0.2,0-0.3-0.1l-7-3.4c-0.2-0.1-0.4-0.4-0.4-0.6v-8.3c0-0.2,0.1-0.5,0.3-0.6
		c0.2-0.1,0.4-0.1,0.7,0l6.7,3.2l6.7-3.2c0.2-0.1,0.5-0.1,0.7,0c0.2,0.1,0.3,0.3,0.3,0.6v8.3c0,0.3-0.1,0.5-0.4,0.6l-7,3.4
		C43,62.7,42.9,62.7,42.8,62.7z M36.5,58.2l6.3,3.1l6.3-3.1v-6.8l-6,2.9c-0.2,0.1-0.4,0.1-0.6,0l-6-2.9V58.2z"/>
	<path class="st1" d="M42.8,62.7c-0.4,0-0.7-0.3-0.7-0.7v-8.3c0-0.4,0.3-0.7,0.7-0.7s0.7,0.3,0.7,0.7v8.3
		C43.5,62.4,43.2,62.7,42.8,62.7z"/>
	<path class="st1" d="M21.4,44.2c-0.1,0-0.2,0-0.3-0.1l-7-3.4c-0.2-0.1-0.4-0.4-0.4-0.6c0-0.3,0.1-0.5,0.4-0.6l7-3.4
		c0.2-0.1,0.4-0.1,0.6,0l7,3.4c0.2,0.1,0.4,0.4,0.4,0.6c0,0.3-0.1,0.5-0.4,0.6l-7,3.4C21.6,44.2,21.5,44.2,21.4,44.2z M16,40.2
		l5.4,2.6l5.4-2.6l-5.4-2.6L16,40.2z"/>
	<path class="st1" d="M21.4,52.5c-0.1,0-0.2,0-0.3-0.1l-7-3.4c-0.2-0.1-0.4-0.4-0.4-0.6v-8.3c0-0.2,0.1-0.5,0.3-0.6
		c0.2-0.1,0.4-0.1,0.7,0l6.7,3.2l6.7-3.2c0.2-0.1,0.5-0.1,0.7,0c0.2,0.1,0.3,0.3,0.3,0.6v8.3c0,0.3-0.1,0.5-0.4,0.6l-7,3.4
		C21.6,52.5,21.5,52.5,21.4,52.5z M15.1,48l6.3,3.1l6.3-3.1v-6.8l-6,2.9c-0.2,0.1-0.4,0.1-0.6,0l-6-2.9C15.1,41.3,15.1,48,15.1,48z"
		/>
	<path class="st1" d="M21.4,52.5c-0.4,0-0.7-0.3-0.7-0.7v-8.3c0-0.4,0.3-0.7,0.7-0.7c0.4,0,0.7,0.3,0.7,0.7v8.3
		C22.1,52.2,21.7,52.5,21.4,52.5z"/>
	<path class="st1" d="M64.2,44.2c-0.1,0-0.2,0-0.3-0.1l-7-3.4c-0.2-0.1-0.4-0.4-0.4-0.6c0-0.3,0.1-0.5,0.4-0.6l7-3.4
		c0.2-0.1,0.4-0.1,0.6,0l7,3.4c0.2,0.1,0.4,0.4,0.4,0.6c0,0.3-0.1,0.5-0.4,0.6l-7,3.4C64.4,44.2,64.3,44.2,64.2,44.2z M58.8,40.2
		l5.4,2.6l5.4-2.6l-5.4-2.6L58.8,40.2z"/>
	<path class="st1" d="M64.2,52.5c-0.1,0-0.2,0-0.3-0.1l-7-3.4c-0.2-0.1-0.4-0.4-0.4-0.6v-8.3c0-0.2,0.1-0.5,0.3-0.6
		c0.2-0.1,0.4-0.1,0.7,0l6.7,3.2l6.7-3.2c0.2-0.1,0.5-0.1,0.7,0c0.2,0.1,0.3,0.3,0.3,0.6v8.3c0,0.3-0.1,0.5-0.4,0.6l-7,3.4
		C64.4,52.5,64.3,52.5,64.2,52.5z M57.9,48l6.3,3.1l6.3-3.1v-6.8l-6,2.9c-0.2,0.1-0.4,0.1-0.6,0l-6-2.9L57.9,48L57.9,48z"/>
	<path class="st1" d="M64.2,52.5c-0.4,0-0.7-0.3-0.7-0.7v-8.3c0-0.4,0.3-0.7,0.7-0.7c0.4,0,0.7,0.3,0.7,0.7v8.3
		C64.9,52.2,64.6,52.5,64.2,52.5z"/>
	<path class="st1" d="M21.4,19.9c-0.1,0-0.2,0-0.3-0.1l-7-3.4c-0.2-0.1-0.4-0.4-0.4-0.6c0-0.3,0.1-0.5,0.4-0.6l7-3.4
		c0.2-0.1,0.4-0.1,0.6,0l7,3.4c0.2,0.1,0.4,0.4,0.4,0.6c0,0.3-0.1,0.5-0.4,0.6l-7,3.4C21.6,19.9,21.5,19.9,21.4,19.9z M16,15.9
		l5.4,2.6l5.4-2.6l-5.4-2.6L16,15.9z"/>
	<path class="st1" d="M21.4,28.2c-0.1,0-0.2,0-0.3-0.1l-7-3.4c-0.2-0.1-0.4-0.4-0.4-0.6v-8.3c0-0.2,0.1-0.5,0.3-0.6
		c0.2-0.1,0.4-0.1,0.7,0l6.7,3.2l6.7-3.2c0.2-0.1,0.5-0.1,0.7,0c0.2,0.1,0.3,0.3,0.3,0.6v8.3c0,0.3-0.1,0.5-0.4,0.6l-7,3.4
		C21.6,28.2,21.5,28.2,21.4,28.2z M15.1,23.8l6.3,3.1l6.3-3.1V17l-6,2.9c-0.2,0.1-0.4,0.1-0.6,0l-6-2.9C15.1,17,15.1,23.8,15.1,23.8
		z"/>
	<path class="st1" d="M21.4,28.2c-0.4,0-0.7-0.3-0.7-0.7v-8.3c0-0.4,0.3-0.7,0.7-0.7c0.4,0,0.7,0.3,0.7,0.7v8.3
		C22.1,27.9,21.7,28.2,21.4,28.2z"/>
	<path class="st1" d="M64.2,19.9c-0.1,0-0.2,0-0.3-0.1l-7-3.4c-0.2-0.1-0.4-0.4-0.4-0.6c0-0.3,0.1-0.5,0.4-0.6l7-3.4
		c0.2-0.1,0.4-0.1,0.6,0l7,3.4c0.2,0.1,0.4,0.4,0.4,0.6c0,0.3-0.1,0.5-0.4,0.6l-7,3.4C64.4,19.9,64.3,19.9,64.2,19.9z M58.8,15.9
		l5.4,2.6l5.4-2.6l-5.4-2.6L58.8,15.9z"/>
	<path class="st1" d="M64.2,28.2c-0.1,0-0.2,0-0.3-0.1l-7-3.4c-0.2-0.1-0.4-0.4-0.4-0.6v-8.3c0-0.2,0.1-0.5,0.3-0.6
		c0.2-0.1,0.4-0.1,0.7,0l6.7,3.2l6.7-3.2c0.2-0.1,0.5-0.1,0.7,0c0.2,0.1,0.3,0.3,0.3,0.6v8.3c0,0.3-0.1,0.5-0.4,0.6l-7,3.4
		C64.4,28.2,64.3,28.2,64.2,28.2z M57.9,23.8l6.3,3.1l6.3-3.1V17l-6,2.9c-0.2,0.1-0.4,0.1-0.6,0l-6-2.9L57.9,23.8L57.9,23.8z"/>
	<path class="st1" d="M64.2,28.2c-0.4,0-0.7-0.3-0.7-0.7v-8.3c0-0.4,0.3-0.7,0.7-0.7c0.4,0,0.7,0.3,0.7,0.7v8.3
		C64.9,27.9,64.6,28.2,64.2,28.2z"/>
	<path class="st1" d="M35.8,52.1c-0.1,0-0.2,0-0.3-0.1L28,48c-0.3-0.2-0.5-0.6-0.3-0.9c0.2-0.3,0.6-0.5,0.9-0.3l7.5,4
		c0.3,0.2,0.5,0.6,0.3,0.9C36.3,51.9,36.1,52.1,35.8,52.1z"/>
	<path class="st1" d="M21.4,37.5c-0.4,0-0.7-0.3-0.7-0.7v-9.2c0-0.4,0.3-0.7,0.7-0.7c0.4,0,0.7,0.3,0.7,0.7v9.2
		C22.1,37.2,21.7,37.5,21.4,37.5z"/>
	<path class="st1" d="M28.3,17.7c-0.2,0-0.5-0.1-0.6-0.4c-0.2-0.3-0.1-0.7,0.3-0.9l7.5-4c0.3-0.2,0.7-0.1,0.9,0.3
		c0.2,0.3,0.1,0.7-0.3,0.9l-7.5,4C28.6,17.6,28.4,17.7,28.3,17.7z"/>
	<path class="st1" d="M57.2,17.7c-0.1,0-0.2,0-0.3-0.1l-7.5-4c-0.3-0.2-0.5-0.6-0.3-0.9c0.2-0.3,0.6-0.5,0.9-0.3l7.5,4
		c0.3,0.2,0.5,0.6,0.3,0.9C57.7,17.5,57.5,17.7,57.2,17.7z"/>
	<path class="st1" d="M64.2,37.5c-0.4,0-0.7-0.3-0.7-0.7v-9.2c0-0.4,0.3-0.7,0.7-0.7c0.4,0,0.7,0.3,0.7,0.7v9.2
		C64.9,37.2,64.6,37.5,64.2,37.5z"/>
	<path class="st1" d="M49.7,52.1c-0.2,0-0.5-0.1-0.6-0.4c-0.2-0.3-0.1-0.7,0.3-0.9l7.5-4c0.3-0.2,0.7-0.1,0.9,0.3
		c0.2,0.3,0.1,0.7-0.3,0.9l-7.5,4C50,52,49.8,52.1,49.7,52.1z"/>
	<path class="st1" d="M42.8,32.1c-0.1,0-0.2,0-0.3-0.1l-7-3.4c-0.2-0.1-0.4-0.4-0.4-0.6c0-0.3,0.1-0.5,0.4-0.6l7-3.4
		c0.2-0.1,0.4-0.1,0.6,0l7,3.4c0.2,0.1,0.4,0.4,0.4,0.6c0,0.3-0.1,0.5-0.4,0.6l-7,3.4C43,32.1,42.9,32.1,42.8,32.1z M37.4,28
		l5.4,2.6l5.4-2.6l-5.4-2.6L37.4,28z"/>
	<path class="st1" d="M42.8,40.4c-0.1,0-0.2,0-0.3-0.1l-7-3.4c-0.2-0.1-0.4-0.4-0.4-0.6V28c0-0.2,0.1-0.5,0.3-0.6
		c0.2-0.1,0.4-0.1,0.7,0l6.7,3.2l6.7-3.2c0.2-0.1,0.5-0.1,0.7,0c0.2,0.1,0.3,0.3,0.3,0.6v8.3c0,0.3-0.1,0.5-0.4,0.6l-7,3.4
		C43,40.4,42.9,40.4,42.8,40.4z M36.5,35.9l6.3,3.1l6.3-3.1v-6.8l-6,2.9c-0.2,0.1-0.4,0.1-0.6,0l-6-2.9V35.9z"/>
	<path class="st1" d="M42.8,40.4c-0.4,0-0.7-0.3-0.7-0.7v-8.3c0-0.4,0.3-0.7,0.7-0.7s0.7,0.3,0.7,0.7v8.3
		C43.5,40.1,43.2,40.4,42.8,40.4z"/>
	<path class="st1" d="M28.4,40.8c-0.2,0-0.5-0.1-0.6-0.4c-0.2-0.3,0-0.7,0.3-0.9l7.4-3.8c0.3-0.2,0.7,0,0.9,0.3
		c0.2,0.3,0,0.7-0.3,0.9l-7.4,3.8C28.6,40.8,28.5,40.8,28.4,40.8z"/>
	<path class="st1" d="M57.2,41c-0.1,0-0.2,0-0.3-0.1l-7.5-4c-0.3-0.2-0.5-0.6-0.3-0.9c0.2-0.3,0.6-0.5,0.9-0.3l7.5,4
		c0.3,0.2,0.5,0.6,0.3,0.9C57.7,40.9,57.4,41,57.2,41z"/>
	<path class="st1" d="M49.7,28.7c-0.2,0-0.5-0.1-0.6-0.4c-0.2-0.3-0.1-0.7,0.3-0.9l7.5-4c0.3-0.2,0.7-0.1,0.9,0.3
		c0.2,0.3,0.1,0.7-0.3,0.9l-7.5,4C50,28.7,49.8,28.7,49.7,28.7z"/>
	<path class="st1" d="M35.8,28.7c-0.1,0-0.2,0-0.3-0.1L28,24.8c-0.3-0.2-0.5-0.6-0.3-0.9c0.2-0.3,0.6-0.5,0.9-0.3l7.5,3.8
		c0.3,0.2,0.5,0.6,0.3,0.9C36.3,28.6,36.1,28.7,35.8,28.7z"/>
</g>
</svg>
