<?xml version="1.0" encoding="utf-8"?>
<!-- Generator: Adobe Illustrator 27.8.0, SVG Export Plug-In . SVG Version: 6.00 Build 0)  -->
<!DOCTYPE svg PUBLIC "-//W3C//DTD SVG 1.1//EN" "http://www.w3.org/Graphics/SVG/1.1/DTD/svg11.dtd" [
	<!ENTITY ns_extend "http://ns.adobe.com/Extensibility/1.0/">
	<!ENTITY ns_ai "http://ns.adobe.com/AdobeIllustrator/10.0/">
	<!ENTITY ns_graphs "http://ns.adobe.com/Graphs/1.0/">
	<!ENTITY ns_vars "http://ns.adobe.com/Variables/1.0/">
	<!ENTITY ns_imrep "http://ns.adobe.com/ImageReplacement/1.0/">
	<!ENTITY ns_sfw "http://ns.adobe.com/SaveForWeb/1.0/">
	<!ENTITY ns_custom "http://ns.adobe.com/GenericCustomNamespace/1.0/">
	<!ENTITY ns_adobe_xpath "http://ns.adobe.com/XPath/1.0/">
]>
<svg version="1.1" id="Laag_1" xmlns:x="&ns_extend;" xmlns:i="&ns_ai;" xmlns:graph="&ns_graphs;"
	 xmlns="http://www.w3.org/2000/svg" xmlns:xlink="http://www.w3.org/1999/xlink" x="0px" y="0px" width="247px" height="191px"
	 viewBox="0 0 247 191" style="enable-background:new 0 0 247 191;" xml:space="preserve">
<style type="text/css">
	.st0{fill:#FFF600;}
	.st1{fill:#E74C3C;}
	.st2{fill:none;stroke:#3498DB;stroke-width:6;}
	.st3{fill:#3498DB;}
</style>
<metadata>
	<sfw  xmlns="&ns_sfw;">
		<slices></slices>
		<sliceSourceBounds  bottomLeftOrigin="true" height="190.2" width="247.1" x="0.1" y="0.8"></sliceSourceBounds>
	</sfw>
</metadata>
<path class="st0" d="M42.1,190.2c-14.4,0-25-3.4-31.8-10.2S0.1,162.7,0.1,148.4V42c0-14.6,3.4-25.2,10.2-32S27.7-0.1,42.1,0h163.1
	c14.5,0,25.1,3.4,31.9,10.1c6.8,6.8,10.1,17.4,10.1,31.9v106.2c0,14.4-3.4,25-10.1,31.8c-6.8,6.8-17.4,10.2-31.9,10.2H42.1z"/>
<g>
	<rect x="111.9" y="41.1" class="st1" width="33.3" height="111"/>
	<rect x="73.1" y="80" class="st1" width="111" height="33.3"/>
	<line class="st2" x1="128.6" y1="41.1" x2="128.6" y2="13.4"/>
	<line class="st2" x1="128.6" y1="152.1" x2="128.6" y2="179.9"/>
	<line class="st2" x1="73.1" y1="96.6" x2="45.3" y2="96.6"/>
	<line class="st2" x1="184.1" y1="96.6" x2="211.8" y2="96.6"/>
	<circle class="st3" cx="128.6" cy="13.4" r="4.4"/>
	<circle class="st3" cx="128.6" cy="179.9" r="4.4"/>
	<circle class="st3" cx="45.3" cy="96.6" r="4.4"/>
	<circle class="st3" cx="211.8" cy="96.6" r="4.4"/>
</g>
</svg>
