<svg id="Laag_1" data-name="Laag 1" xmlns="http://www.w3.org/2000/svg" viewBox="0 0 464 80"><defs><style>.cls-1{fill:#ff8000;}.cls-2{fill:#fff;}</style></defs><path class="cls-1" d="M17.52,80.09q-9.13,0-13.43-4.3T-.21,62.46V17.56q0-9.21,4.3-13.49T17.52-.16H86.35q9.18,0,13.45,4.28t4.28,13.44v44.8q0,9.14-4.28,13.43t-13.45,4.3Z"/><path class="cls-2" d="M54.3,46.35v3.11c0,4.36.85,7.39,2.56,9.07s4.75,2.54,9.14,2.54h7.84q5.68,0,8.26-1.34a6.18,6.18,0,0,0,3.21-4.64,4.38,4.38,0,0,1,1-2.15,2.93,2.93,0,0,1,2.15-.71,3.07,3.07,0,0,1,2.27.79,2.54,2.54,0,0,1,.54,2.31q-.76,6-5.08,8.87t-12.4,2.89H66q-9.12,0-13.42-4.3t-4.3-13.33V38.56q0-9.26,4.3-13.54T66,20.84h7.84q9.16,0,13.45,4.28t4.27,13.44v4.78q0,3-3,3ZM66,26.86q-6.59-.09-9.14,2.44C55.15,31,54.3,34.07,54.3,38.56v1.77H85.54V38.56q0-6.63-2.53-9.17c-1.69-1.69-4.74-2.53-9.17-2.53Z"/><path d="M132.22,67.09q-9.12,0-13.43-4.3t-4.3-13.43V38.56q0-9.16,4.3-13.44t13.43-4.28h19.54V3.5q0-3,3-3a2.66,2.66,0,0,1,3,3V64.08a3,3,0,1,1-6,0v-3a13,13,0,0,1-6,4.47,27.58,27.58,0,0,1-9.91,1.51Zm0-6h3.63a26.6,26.6,0,0,0,11.49-2.13c2.95-1.42,4.42-3.54,4.42-6.38V26.86H132.22q-6.6,0-9.15,2.56c-1.7,1.7-2.56,4.75-2.56,9.14v10.8c0,4.4.86,7.45,2.56,9.15S127.82,61.07,132.22,61.07Z"/><path d="M213.82,20.84a2.66,2.66,0,0,1,3,3V64.08a3,3,0,0,1-6,0V60.54q-4.74,6.54-15.91,6.55h-2.68q-9.16,0-13.45-4.28T174.5,49.36V23.85q0-3,3-3t3,3V49.36q0,6.64,2.55,9.17t9.15,2.54h2.68a26.07,26.07,0,0,0,11.08-2,7.81,7.81,0,0,0,4.83-6.26V23.85Q210.81,20.84,213.82,20.84Z"/><path d="M254.47,67.09q-9,0-13.23-4.21T237,49.74V26.86h-5.35a2.66,2.66,0,0,1-3-3,2.66,2.66,0,0,1,3-3H237V11.67a2.66,2.66,0,0,1,3-3q3,0,3,3v9.17h11.66q3,0,3,3t-3,3H243.05V49.74c0,4.3.83,7.27,2.49,8.89s4.63,2.44,8.93,2.44a3.14,3.14,0,0,1,2.32.74,3.1,3.1,0,0,1,.74,2.27C257.53,66.08,256.51,67.09,254.47,67.09Z"/><path d="M285.72,67.09q-9.14,0-13.43-4.3T268,49.46V38.56q0-9.21,4.3-13.49t13.43-4.23h7.83q9.18,0,13.45,4.28t4.28,13.44v10.8q0,9.14-4.28,13.43t-13.45,4.3ZM274,49.46c0,4.36.85,7.39,2.56,9.07s4.75,2.54,9.15,2.54h7.83c4.43,0,7.49-.86,9.17-2.56s2.54-4.75,2.54-9.15V38.56q0-6.63-2.54-9.17t-9.17-2.53h-7.83a17.77,17.77,0,0,0-7,1,6.59,6.59,0,0,0-3.66,3.63,18.29,18.29,0,0,0-1.1,7Z"/><path d="M331.2,67.09a2.66,2.66,0,0,1-3-3V23.85q0-3,3-3a2.66,2.66,0,0,1,3,3V30a17.35,17.35,0,0,1,7.21-6.79,23.36,23.36,0,0,1,10.75-2.34q3,0,3,3t-3,3q-8.42,0-13,3.58a13.17,13.17,0,0,0-5,10V64.08A2.67,2.67,0,0,1,331.2,67.09Z"/><path d="M369.55,12.43c-2.48,0-3.72-1.25-3.72-3.77V6.27q0-3.66,3.72-3.66h2.34c2.4,0,3.59,1.22,3.59,3.66V8.66c0,2.52-1.19,3.77-3.59,3.77Zm1.16,54.66a2.66,2.66,0,0,1-3-3V23.85q0-3,3-3a2.66,2.66,0,0,1,3,3V64.08A2.67,2.67,0,0,1,370.71,67.09Z"/><path d="M404.24,67.09q-7.59,0-11.23-3.63t-3.63-11.23q0-7.65,3.63-11.28t11.23-3.63H425.5c-.13-3.91-1.06-6.64-2.79-8.17s-4.71-2.29-8.91-2.29h-5.55c-3.75,0-6.52.36-8.28,1.08a5.49,5.49,0,0,0-3.42,3.7,5,5,0,0,1-1.17,2.08,3,3,0,0,1-2.08.64,3.13,3.13,0,0,1-2.32-.84,2.45,2.45,0,0,1-.59-2.26,10.56,10.56,0,0,1,5.3-7.94q4.4-2.47,12.56-2.48h5.55q9.17,0,13.45,4.28t4.27,13.44V64.08a3,3,0,1,1-6,0V60.21q-4.72,6.87-15.91,6.88Zm0-6h5.35a29.77,29.77,0,0,0,7.67-.91,12.5,12.5,0,0,0,5.54-3,9.57,9.57,0,0,0,2.7-5.69V43.34H404.24q-5.12,0-7,1.87t-1.87,7q0,5.12,1.87,7T404.24,61.07Z"/><path d="M460.81,67.09q-6.93,0-10.25-3.32t-3.32-10.2V3.5q0-3,3-3a2.66,2.66,0,0,1,3,3V53.57c0,2.89.52,4.87,1.57,5.92s3,1.58,5.93,1.58q3.11,0,3.1,3C463.93,66.08,462.91,67.09,460.81,67.09Z"/></svg>