<svg id="Laag_1" data-name="Laag 1" xmlns="http://www.w3.org/2000/svg" viewBox="0 0 747.24 575"><path d="M716.91,30.65Q686.27,0,620.54,0H127.31Q61.93-.33,31.12,30.3T.31,127V448.68q0,64.69,30.81,95.51T127.31,575H620.54q65.73,0,96.37-30.81T747.55,448V127Q747.55,61.28,716.91,30.65Zm-59,281.06q0,21.57-21.57,21.57H390.86v22.25q0,46.91,18.32,65t65.56,18.15h56.14q40.73,0,59.22-9.59T613,395.93q2.4-10.28,7.53-15.41T636,375.39q10.6,0,16.26,5.65t3.94,16.59q-5.49,42.81-36.46,63.51t-88.83,20.71H474.74q-65.4,0-96.2-30.81t-30.81-95.51v-78q0-66.41,30.81-97.05t96.2-30h56.14q65.72,0,96.36,30.64t30.64,96.36Z" transform="translate(-0.31 0)"/><path d="M474.74,193.62q-47.25-.69-65.56,17.45t-18.32,66.41v12.67H614.75V277.48q0-47.58-18.15-65.73t-65.72-18.13Z" transform="translate(-0.31 0)"/></svg>