<svg version="1.1" xmlns="http://www.w3.org/2000/svg" xmlns:xlink="http://www.w3.org/1999/xlink" width="636" height="484"><defs/><g><text fill="#eeeeee" stroke="none" font-family="Arial" font-size="24px" font-style="normal" font-weight="normal" text-decoration="none" x="0" y="0">UNREGISTERED</text><text fill="#eeeeee" stroke="none" font-family="Arial" font-size="24px" font-style="normal" font-weight="normal" text-decoration="none" x="0" y="30">UNREGISTERED</text><text fill="#eeeeee" stroke="none" font-family="Arial" font-size="24px" font-style="normal" font-weight="normal" text-decoration="none" x="0" y="60">UNREGISTERED</text><text fill="#eeeeee" stroke="none" font-family="Arial" font-size="24px" font-style="normal" font-weight="normal" text-decoration="none" x="0" y="90">UNREGISTERED</text><text fill="#eeeeee" stroke="none" font-family="Arial" font-size="24px" font-style="normal" font-weight="normal" text-decoration="none" x="0" y="120">UNREGISTERED</text><text fill="#eeeeee" stroke="none" font-family="Arial" font-size="24px" font-style="normal" font-weight="normal" text-decoration="none" x="0" y="150">UNREGISTERED</text><text fill="#eeeeee" stroke="none" font-family="Arial" font-size="24px" font-style="normal" font-weight="normal" text-decoration="none" x="0" y="180">UNREGISTERED</text><text fill="#eeeeee" stroke="none" font-family="Arial" font-size="24px" font-style="normal" font-weight="normal" text-decoration="none" x="0" y="210">UNREGISTERED</text><text fill="#eeeeee" stroke="none" font-family="Arial" font-size="24px" font-style="normal" font-weight="normal" text-decoration="none" x="0" y="240">UNREGISTERED</text><text fill="#eeeeee" stroke="none" font-family="Arial" font-size="24px" font-style="normal" font-weight="normal" text-decoration="none" x="0" y="270">UNREGISTERED</text><text fill="#eeeeee" stroke="none" font-family="Arial" font-size="24px" font-style="normal" font-weight="normal" text-decoration="none" x="0" y="300">UNREGISTERED</text><text fill="#eeeeee" stroke="none" font-family="Arial" font-size="24px" font-style="normal" font-weight="normal" text-decoration="none" x="0" y="330">UNREGISTERED</text><text fill="#eeeeee" stroke="none" font-family="Arial" font-size="24px" font-style="normal" font-weight="normal" text-decoration="none" x="0" y="360">UNREGISTERED</text><text fill="#eeeeee" stroke="none" font-family="Arial" font-size="24px" font-style="normal" font-weight="normal" text-decoration="none" x="0" y="390">UNREGISTERED</text><text fill="#eeeeee" stroke="none" font-family="Arial" font-size="24px" font-style="normal" font-weight="normal" text-decoration="none" x="0" y="420">UNREGISTERED</text><text fill="#eeeeee" stroke="none" font-family="Arial" font-size="24px" font-style="normal" font-weight="normal" text-decoration="none" x="0" y="450">UNREGISTERED</text><text fill="#eeeeee" stroke="none" font-family="Arial" font-size="24px" font-style="normal" font-weight="normal" text-decoration="none" x="0" y="480">UNREGISTERED</text><text fill="#eeeeee" stroke="none" font-family="Arial" font-size="24px" font-style="normal" font-weight="normal" text-decoration="none" x="200" y="0">UNREGISTERED</text><text fill="#eeeeee" stroke="none" font-family="Arial" font-size="24px" font-style="normal" font-weight="normal" text-decoration="none" x="200" y="30">UNREGISTERED</text><text fill="#eeeeee" stroke="none" font-family="Arial" font-size="24px" font-style="normal" font-weight="normal" text-decoration="none" x="200" y="60">UNREGISTERED</text><text fill="#eeeeee" stroke="none" font-family="Arial" font-size="24px" font-style="normal" font-weight="normal" text-decoration="none" x="200" y="90">UNREGISTERED</text><text fill="#eeeeee" stroke="none" font-family="Arial" font-size="24px" font-style="normal" font-weight="normal" text-decoration="none" x="200" y="120">UNREGISTERED</text><text fill="#eeeeee" stroke="none" font-family="Arial" font-size="24px" font-style="normal" font-weight="normal" text-decoration="none" x="200" y="150">UNREGISTERED</text><text fill="#eeeeee" stroke="none" font-family="Arial" font-size="24px" font-style="normal" font-weight="normal" text-decoration="none" x="200" y="180">UNREGISTERED</text><text fill="#eeeeee" stroke="none" font-family="Arial" font-size="24px" font-style="normal" font-weight="normal" text-decoration="none" x="200" y="210">UNREGISTERED</text><text fill="#eeeeee" stroke="none" font-family="Arial" font-size="24px" font-style="normal" font-weight="normal" text-decoration="none" x="200" y="240">UNREGISTERED</text><text fill="#eeeeee" stroke="none" font-family="Arial" font-size="24px" font-style="normal" font-weight="normal" text-decoration="none" x="200" y="270">UNREGISTERED</text><text fill="#eeeeee" stroke="none" font-family="Arial" font-size="24px" font-style="normal" font-weight="normal" text-decoration="none" x="200" y="300">UNREGISTERED</text><text fill="#eeeeee" stroke="none" font-family="Arial" font-size="24px" font-style="normal" font-weight="normal" text-decoration="none" x="200" y="330">UNREGISTERED</text><text fill="#eeeeee" stroke="none" font-family="Arial" font-size="24px" font-style="normal" font-weight="normal" text-decoration="none" x="200" y="360">UNREGISTERED</text><text fill="#eeeeee" stroke="none" font-family="Arial" font-size="24px" font-style="normal" font-weight="normal" text-decoration="none" x="200" y="390">UNREGISTERED</text><text fill="#eeeeee" stroke="none" font-family="Arial" font-size="24px" font-style="normal" font-weight="normal" text-decoration="none" x="200" y="420">UNREGISTERED</text><text fill="#eeeeee" stroke="none" font-family="Arial" font-size="24px" font-style="normal" font-weight="normal" text-decoration="none" x="200" y="450">UNREGISTERED</text><text fill="#eeeeee" stroke="none" font-family="Arial" font-size="24px" font-style="normal" font-weight="normal" text-decoration="none" x="200" y="480">UNREGISTERED</text><text fill="#eeeeee" stroke="none" font-family="Arial" font-size="24px" font-style="normal" font-weight="normal" text-decoration="none" x="400" y="0">UNREGISTERED</text><text fill="#eeeeee" stroke="none" font-family="Arial" font-size="24px" font-style="normal" font-weight="normal" text-decoration="none" x="400" y="30">UNREGISTERED</text><text fill="#eeeeee" stroke="none" font-family="Arial" font-size="24px" font-style="normal" font-weight="normal" text-decoration="none" x="400" y="60">UNREGISTERED</text><text fill="#eeeeee" stroke="none" font-family="Arial" font-size="24px" font-style="normal" font-weight="normal" text-decoration="none" x="400" y="90">UNREGISTERED</text><text fill="#eeeeee" stroke="none" font-family="Arial" font-size="24px" font-style="normal" font-weight="normal" text-decoration="none" x="400" y="120">UNREGISTERED</text><text fill="#eeeeee" stroke="none" font-family="Arial" font-size="24px" font-style="normal" font-weight="normal" text-decoration="none" x="400" y="150">UNREGISTERED</text><text fill="#eeeeee" stroke="none" font-family="Arial" font-size="24px" font-style="normal" font-weight="normal" text-decoration="none" x="400" y="180">UNREGISTERED</text><text fill="#eeeeee" stroke="none" font-family="Arial" font-size="24px" font-style="normal" font-weight="normal" text-decoration="none" x="400" y="210">UNREGISTERED</text><text fill="#eeeeee" stroke="none" font-family="Arial" font-size="24px" font-style="normal" font-weight="normal" text-decoration="none" x="400" y="240">UNREGISTERED</text><text fill="#eeeeee" stroke="none" font-family="Arial" font-size="24px" font-style="normal" font-weight="normal" text-decoration="none" x="400" y="270">UNREGISTERED</text><text fill="#eeeeee" stroke="none" font-family="Arial" font-size="24px" font-style="normal" font-weight="normal" text-decoration="none" x="400" y="300">UNREGISTERED</text><text fill="#eeeeee" stroke="none" font-family="Arial" font-size="24px" font-style="normal" font-weight="normal" text-decoration="none" x="400" y="330">UNREGISTERED</text><text fill="#eeeeee" stroke="none" font-family="Arial" font-size="24px" font-style="normal" font-weight="normal" text-decoration="none" x="400" y="360">UNREGISTERED</text><text fill="#eeeeee" stroke="none" font-family="Arial" font-size="24px" font-style="normal" font-weight="normal" text-decoration="none" x="400" y="390">UNREGISTERED</text><text fill="#eeeeee" stroke="none" font-family="Arial" font-size="24px" font-style="normal" font-weight="normal" text-decoration="none" x="400" y="420">UNREGISTERED</text><text fill="#eeeeee" stroke="none" font-family="Arial" font-size="24px" font-style="normal" font-weight="normal" text-decoration="none" x="400" y="450">UNREGISTERED</text><text fill="#eeeeee" stroke="none" font-family="Arial" font-size="24px" font-style="normal" font-weight="normal" text-decoration="none" x="400" y="480">UNREGISTERED</text><text fill="#eeeeee" stroke="none" font-family="Arial" font-size="24px" font-style="normal" font-weight="normal" text-decoration="none" x="600" y="0">UNREGISTERED</text><text fill="#eeeeee" stroke="none" font-family="Arial" font-size="24px" font-style="normal" font-weight="normal" text-decoration="none" x="600" y="30">UNREGISTERED</text><text fill="#eeeeee" stroke="none" font-family="Arial" font-size="24px" font-style="normal" font-weight="normal" text-decoration="none" x="600" y="60">UNREGISTERED</text><text fill="#eeeeee" stroke="none" font-family="Arial" font-size="24px" font-style="normal" font-weight="normal" text-decoration="none" x="600" y="90">UNREGISTERED</text><text fill="#eeeeee" stroke="none" font-family="Arial" font-size="24px" font-style="normal" font-weight="normal" text-decoration="none" x="600" y="120">UNREGISTERED</text><text fill="#eeeeee" stroke="none" font-family="Arial" font-size="24px" font-style="normal" font-weight="normal" text-decoration="none" x="600" y="150">UNREGISTERED</text><text fill="#eeeeee" stroke="none" font-family="Arial" font-size="24px" font-style="normal" font-weight="normal" text-decoration="none" x="600" y="180">UNREGISTERED</text><text fill="#eeeeee" stroke="none" font-family="Arial" font-size="24px" font-style="normal" font-weight="normal" text-decoration="none" x="600" y="210">UNREGISTERED</text><text fill="#eeeeee" stroke="none" font-family="Arial" font-size="24px" font-style="normal" font-weight="normal" text-decoration="none" x="600" y="240">UNREGISTERED</text><text fill="#eeeeee" stroke="none" font-family="Arial" font-size="24px" font-style="normal" font-weight="normal" text-decoration="none" x="600" y="270">UNREGISTERED</text><text fill="#eeeeee" stroke="none" font-family="Arial" font-size="24px" font-style="normal" font-weight="normal" text-decoration="none" x="600" y="300">UNREGISTERED</text><text fill="#eeeeee" stroke="none" font-family="Arial" font-size="24px" font-style="normal" font-weight="normal" text-decoration="none" x="600" y="330">UNREGISTERED</text><text fill="#eeeeee" stroke="none" font-family="Arial" font-size="24px" font-style="normal" font-weight="normal" text-decoration="none" x="600" y="360">UNREGISTERED</text><text fill="#eeeeee" stroke="none" font-family="Arial" font-size="24px" font-style="normal" font-weight="normal" text-decoration="none" x="600" y="390">UNREGISTERED</text><text fill="#eeeeee" stroke="none" font-family="Arial" font-size="24px" font-style="normal" font-weight="normal" text-decoration="none" x="600" y="420">UNREGISTERED</text><text fill="#eeeeee" stroke="none" font-family="Arial" font-size="24px" font-style="normal" font-weight="normal" text-decoration="none" x="600" y="450">UNREGISTERED</text><text fill="#eeeeee" stroke="none" font-family="Arial" font-size="24px" font-style="normal" font-weight="normal" text-decoration="none" x="600" y="480">UNREGISTERED</text><g transform="translate(-294,-118) scale(1,1)"><rect fill="#ffffff" stroke="none" x="304" y="128" width="616" height="464"/></g><g transform="translate(-294,-118) scale(1,1)"><path fill="none" stroke="#000000" d="M 304 128 L 920 128 L 920 592 L 304 592 L 304 128 Z Z" stroke-miterlimit="10"/></g><g transform="translate(-294,-118) scale(1,1)"><path fill="#C0C0C0" stroke="none" d="M 553 199 L 636.859375 199 Q 646.859375 199 646.859375 209 L 646.859375 229 Q 646.859375 239 636.859375 239 L 553 239 Q 543 239 543 229 L 543 209 Q 543 199 553 199 Z" opacity="0.2"/></g><g transform="translate(-294,-118) scale(1,1)"><path fill="#ffffff" stroke="none" d="M 546 192 L 629.859375 192 Q 639.859375 192 639.859375 202 L 639.859375 222 Q 639.859375 232 629.859375 232 L 546 232 Q 536 232 536 222 L 536 202 Q 536 192 546 192 Z"/></g><g transform="translate(-294,-118) scale(1,1)"><path fill="none" stroke="#000000" d="M 546 192 L 629.859375 192 Q 639.859375 192 639.859375 202 L 639.859375 222 Q 639.859375 232 629.859375 232 L 546 232 Q 536 232 536 222 L 536 202 Q 536 192 546 192 Z" stroke-miterlimit="10"/></g><g transform="translate(-294,-118) scale(1,1)"><g><path fill="none" stroke="none"/><text fill="#000000" stroke="none" font-family="Arial" font-size="13px" font-style="normal" font-weight="bold" text-decoration="none" x="540.5" y="210">Vul formulier in</text></g></g><g transform="translate(-294,-118) scale(1,1)"><path fill="#C0C0C0" stroke="none" d="M 519 160.5 C 519 155.2532944 523.2532944 151 528.5 151 C 533.7467056 151 538 155.2532944 538 160.5 C 538 165.7467056 533.7467056 170 528.5 170 C 523.2532944 170 519 165.7467056 519 160.5 Z" opacity="0.2"/></g><g transform="translate(-294,-118) scale(1,1)"><path fill="#000000" stroke="none" d="M 512 153.5 C 512 148.2532944 516.2532944 144 521.5 144 C 526.7467056 144 531 148.2532944 531 153.5 C 531 158.7467056 526.7467056 163 521.5 163 C 516.2532944 163 512 158.7467056 512 153.5 Z"/></g><g transform="translate(-294,-118) scale(1,1)"><path fill="none" stroke="#000000" d="M 531 153 L 592 153 L 592 192" stroke-miterlimit="10"/></g><g transform="translate(-294,-118) scale(1,1)"><path fill="none" stroke="#000000" d="M 587.790482243984 181.83732514237585 L 592 192 L 596.209517756016 181.83732514237585" stroke-miterlimit="10"/></g><g transform="translate(-294,-118) scale(1,1)"><path fill="#C0C0C0" stroke="none" d="M 567 295.5 L 598.5 271 L 629 295.5 L 598.5 319 L 567 295.5" opacity="0.2"/></g><g transform="translate(-294,-118) scale(1,1)"><path fill="#ffffff" stroke="none" d="M 560 288 L 591 264 L 622 288 L 591 312 L 560 288"/></g><g transform="translate(-294,-118) scale(1,1)"><path fill="none" stroke="#000000" d="M 560 288 L 591 264 L 622 288 L 591 312 L 560 288 L 560 288" stroke-miterlimit="10"/></g><g transform="translate(-294,-118) scale(1,1)"><path fill="none" stroke="#000000" d="M 592 232 L 592 264" stroke-miterlimit="10"/></g><g transform="translate(-294,-118) scale(1,1)"><path fill="none" stroke="#000000" d="M 587.790482243984 253.83732514237585 L 592 264 L 596.209517756016 253.83732514237585" stroke-miterlimit="10"/></g><g transform="translate(-294,-118) scale(1,1)"><path fill="#C0C0C0" stroke="none" d="M 393 279 L 529.36083984375 279 Q 539.36083984375 279 539.36083984375 289 L 539.36083984375 309 Q 539.36083984375 319 529.36083984375 319 L 393 319 Q 383 319 383 309 L 383 289 Q 383 279 393 279 Z" opacity="0.2"/></g><g transform="translate(-294,-118) scale(1,1)"><path fill="#ffffff" stroke="none" d="M 386 272 L 522.36083984375 272 Q 532.36083984375 272 532.36083984375 282 L 532.36083984375 302 Q 532.36083984375 312 522.36083984375 312 L 386 312 Q 376 312 376 302 L 376 282 Q 376 272 386 272 Z"/></g><g transform="translate(-294,-118) scale(1,1)"><path fill="none" stroke="#000000" d="M 386 272 L 522.36083984375 272 Q 532.36083984375 272 532.36083984375 282 L 532.36083984375 302 Q 532.36083984375 312 522.36083984375 312 L 386 312 Q 376 312 376 302 L 376 282 Q 376 272 386 272 Z" stroke-miterlimit="10"/></g><g transform="translate(-294,-118) scale(1,1)"><g><path fill="none" stroke="none"/><text fill="#000000" stroke="none" font-family="Arial" font-size="13px" font-style="normal" font-weight="bold" text-decoration="none" x="380.5" y="290">Formulier niet compleet</text></g></g><g transform="translate(-294,-118) scale(1,1)"><path fill="none" stroke="#000000" d="M 462 312 L 462 360 L 591 360 L 591 312" stroke-miterlimit="10"/></g><g transform="translate(-294,-118) scale(1,1)"><path fill="none" stroke="#000000" d="M 595.209517756016 322.16267485762415 L 591 312 L 586.790482243984 322.16267485762415" stroke-miterlimit="10"/></g><g transform="translate(-294,-118) scale(1,1)"><path fill="none" stroke="#000000" d="M 454 272 L 454 208 L 536 208" stroke-miterlimit="10"/></g><g transform="translate(-294,-118) scale(1,1)"><path fill="none" stroke="#000000" d="M 525.8373251423759 212.209517756016 L 536 208 L 525.8373251423758 203.790482243984" stroke-miterlimit="10"/></g><g transform="translate(-294,-118) scale(1,1)"><path fill="#C0C0C0" stroke="none" d="M 625 383 L 724.525390625 383 Q 734.525390625 383 734.525390625 393 L 734.525390625 413 Q 734.525390625 423 724.525390625 423 L 625 423 Q 615 423 615 413 L 615 393 Q 615 383 625 383 Z" opacity="0.2"/></g><g transform="translate(-294,-118) scale(1,1)"><path fill="#ffffff" stroke="none" d="M 618 376 L 717.525390625 376 Q 727.525390625 376 727.525390625 386 L 727.525390625 406 Q 727.525390625 416 717.525390625 416 L 618 416 Q 608 416 608 406 L 608 386 Q 608 376 618 376 Z"/></g><g transform="translate(-294,-118) scale(1,1)"><path fill="none" stroke="#000000" d="M 618 376 L 717.525390625 376 Q 727.525390625 376 727.525390625 386 L 727.525390625 406 Q 727.525390625 416 717.525390625 416 L 618 416 Q 608 416 608 406 L 608 386 Q 608 376 618 376 Z" stroke-miterlimit="10"/></g><g transform="translate(-294,-118) scale(1,1)"><g><path fill="none" stroke="none"/><text fill="#000000" stroke="none" font-family="Arial" font-size="13px" font-style="normal" font-weight="bold" text-decoration="none" x="612.5" y="394">formulier akkoord</text></g></g><g transform="translate(-294,-118) scale(1,1)"><path fill="#C0C0C0" stroke="none" d="M 641 455 L 725 455 Q 735 455 735 465 L 735 511 Q 735 521 725 521 L 641 521 Q 631 521 631 511 L 631 465 Q 631 455 641 455 Z" opacity="0.2"/></g><g transform="translate(-294,-118) scale(1,1)"><path fill="#ffffff" stroke="none" d="M 634 448 L 718 448 Q 728 448 728 458 L 728 504 Q 728 514 718 514 L 634 514 Q 624 514 624 504 L 624 458 Q 624 448 634 448 Z"/></g><g transform="translate(-294,-118) scale(1,1)"><path fill="none" stroke="#000000" d="M 634 448 L 718 448 Q 728 448 728 458 L 728 504 Q 728 514 718 514 L 634 514 Q 624 514 624 504 L 624 458 Q 624 448 634 448 Z" stroke-miterlimit="10"/></g><g transform="translate(-294,-118) scale(1,1)"><g><path fill="none" stroke="none"/><text fill="#000000" stroke="none" font-family="Arial" font-size="13px" font-style="normal" font-weight="bold" text-decoration="none" x="637.707763671875" y="466">email sturen</text><text fill="#000000" stroke="none" font-family="Arial" font-size="13px" font-style="normal" font-weight="bold" text-decoration="none" x="645.648681640625" y="479">met serial</text><text fill="#000000" stroke="none" font-family="Arial" font-size="13px" font-style="normal" font-weight="bold" text-decoration="none" x="652.16455078125" y="492">number</text></g></g><g transform="translate(-294,-118) scale(1,1)"><path fill="none" stroke="#000000" d="M 622 288 L 652 288 L 652 376" stroke-miterlimit="10"/></g><g transform="translate(-294,-118) scale(1,1)"><path fill="none" stroke="#000000" d="M 647.790482243984 365.83732514237585 L 652 376 L 656.209517756016 365.83732514237585" stroke-miterlimit="10"/></g><g transform="translate(-294,-118) scale(1,1)"><path fill="none" stroke="#000000" d="M 664 416 L 664 448" stroke-miterlimit="10"/></g><g transform="translate(-294,-118) scale(1,1)"><path fill="none" stroke="#000000" d="M 659.790482243984 437.83732514237585 L 664 448 L 668.209517756016 437.83732514237585" stroke-miterlimit="10"/></g><g transform="translate(-294,-118) scale(1,1)"><path fill="#C0C0C0" stroke="none" d="M 663 579.5 C 663 572.59644 668.59644 567 675.5 567 C 682.40356 567 688 572.59644 688 579.5 C 688 586.40356 682.40356 592 675.5 592 C 668.59644 592 663 586.40356 663 579.5 Z" opacity="0.2"/></g><g transform="translate(-294,-118) scale(1,1)"><path fill="none" stroke="#000000" d="M 656 572.5 C 656 565.59644 661.59644 560 668.5 560 C 675.40356 560 681 565.59644 681 572.5 C 681 579.40356 675.40356 585 668.5 585 C 661.59644 585 656 579.40356 656 572.5 Z" stroke-miterlimit="10"/></g><g transform="translate(-294,-118) scale(1,1)"><path fill="#000000" stroke="none" d="M 661 572.5 C 661 568.357864 664.357864 565 668.5 565 C 672.642136 565 676 568.357864 676 572.5 C 676 576.642136 672.642136 580 668.5 580 C 664.357864 580 661 576.642136 661 572.5 Z"/></g><g transform="translate(-294,-118) scale(1,1)"><path fill="none" stroke="#000000" d="M 672 514 L 672 560" stroke-miterlimit="10"/></g><g transform="translate(-294,-118) scale(1,1)"><path fill="none" stroke="#000000" d="M 667.790482243984 549.8373251423759 L 672 560 L 676.209517756016 549.8373251423759" stroke-miterlimit="10"/></g></g></svg>