<svg xmlns="http://www.w3.org/2000/svg" xmlns:xlink="http://www.w3.org/1999/xlink" contentStyleType="text/css" data-diagram-type="ACTIVITY" height="675px" preserveAspectRatio="none" style="width:628px;height:675px;background:#FFFFFF;" version="1.1" viewBox="0 0 628 675" width="628px" zoomAndPan="magnify"><defs/><g><ellipse cx="372.6338" cy="20" fill="#222222" rx="10" ry="10" style="stroke:#222222;stroke-width:1;"/><rect fill="#F1F1F1" height="33.9688" rx="12.5" ry="12.5" style="stroke:#181818;stroke-width:0.5;" width="238.7598" x="253.2539" y="50"/><text fill="#000000" font-family="sans-serif" font-size="12" lengthAdjust="spacing" textLength="218.7598" x="263.2539" y="71.1387">Student meldt zich aan bij de school</text><polygon fill="#F1F1F1" points="298.6685,103.9688,446.5991,103.9688,458.5991,115.9688,446.5991,127.9688,298.6685,127.9688,286.6685,115.9688,298.6685,103.9688" style="stroke:#181818;stroke-width:0.5;"/><text fill="#000000" font-family="sans-serif" font-size="11" lengthAdjust="spacing" textLength="147.9307" x="298.6685" y="119.7769">Aanmelding goedgekeurd?</text><text fill="#000000" font-family="sans-serif" font-size="11" lengthAdjust="spacing" textLength="9.9849" x="276.6836" y="113.3745">Ja</text><text fill="#000000" font-family="sans-serif" font-size="11" lengthAdjust="spacing" textLength="21.7637" x="458.5991" y="113.3745">Nee</text><rect fill="#F1F1F1" height="33.9688" rx="12.5" ry="12.5" style="stroke:#181818;stroke-width:0.5;" width="190.0801" x="113.4268" y="137.9688"/><text fill="#000000" font-family="sans-serif" font-size="12" lengthAdjust="spacing" textLength="170.0801" x="123.4268" y="159.1074">Student wordt ingeschreven</text><rect fill="#F1F1F1" height="33.9688" rx="12.5" ry="12.5" style="stroke:#181818;stroke-width:0.5;" width="146.832" x="135.0508" y="191.9375"/><text fill="#000000" font-family="sans-serif" font-size="12" lengthAdjust="spacing" textLength="126.832" x="145.0508" y="213.0762">Student kiest vakken</text><rect fill="#F1F1F1" height="33.9688" rx="12.5" ry="12.5" style="stroke:#181818;stroke-width:0.5;" width="143.1758" x="136.8789" y="245.9063"/><text fill="#000000" font-family="sans-serif" font-size="12" lengthAdjust="spacing" textLength="123.1758" x="146.8789" y="267.0449">Student volgt lessen</text><rect fill="#F1F1F1" height="33.9688" rx="12.5" ry="12.5" style="stroke:#181818;stroke-width:0.5;" width="181.6777" x="117.6279" y="355.5854"/><text fill="#000000" font-family="sans-serif" font-size="12" lengthAdjust="spacing" textLength="161.6777" x="127.6279" y="376.7241">Student maakt opdrachten</text><rect fill="#F1F1F1" height="33.9688" rx="12.5" ry="12.5" style="stroke:#181818;stroke-width:0.5;" width="224.0586" x="96.4375" y="418.6519"/><text fill="#000000" font-family="sans-serif" font-size="12" lengthAdjust="spacing" textLength="204.0586" x="106.4375" y="439.7905">Student neemt deel aan examens</text><polygon fill="#F1F1F1" points="139.8833,299.875,277.0503,299.875,289.0503,311.875,277.0503,323.875,139.8833,323.875,127.8833,311.875,139.8833,299.875" style="stroke:#181818;stroke-width:0.5;"/><text fill="#000000" font-family="sans-serif" font-size="11" lengthAdjust="spacing" textLength="9.9849" x="212.4668" y="334.0854">Ja</text><text fill="#000000" font-family="sans-serif" font-size="11" lengthAdjust="spacing" textLength="137.167" x="139.8833" y="315.6831">Periode nog niet voorbij?</text><polygon fill="#F1F1F1" points="179.7852,494.6206,237.1484,494.6206,249.1484,506.6206,237.1484,518.6206,179.7852,518.6206,167.7852,506.6206,179.7852,494.6206" style="stroke:#181818;stroke-width:0.5;"/><text fill="#000000" font-family="sans-serif" font-size="11" lengthAdjust="spacing" textLength="57.3633" x="179.7852" y="510.4287">Geslaagd?</text><text fill="#000000" font-family="sans-serif" font-size="11" lengthAdjust="spacing" textLength="9.9849" x="157.8003" y="504.0264">Ja</text><text fill="#000000" font-family="sans-serif" font-size="11" lengthAdjust="spacing" textLength="21.7637" x="249.1484" y="504.0264">Nee</text><rect fill="#F1F1F1" height="33.9688" rx="12.5" ry="12.5" style="stroke:#181818;stroke-width:0.5;" width="177.1895" x="11" y="528.6206"/><text fill="#000000" font-family="sans-serif" font-size="12" lengthAdjust="spacing" textLength="157.1895" x="21" y="549.7593">Student ontvangt diploma</text><rect fill="#F1F1F1" height="33.9688" rx="12.5" ry="12.5" style="stroke:#181818;stroke-width:0.5;" width="218.2988" x="208.1895" y="528.6206"/><text fill="#000000" font-family="sans-serif" font-size="12" lengthAdjust="spacing" textLength="198.2988" x="218.1895" y="549.7593">Student herhaalt vakken of stopt</text><polygon fill="#F1F1F1" points="208.4668,568.5894,220.4668,580.5894,208.4668,592.5894,196.4668,580.5894,208.4668,568.5894" style="stroke:#181818;stroke-width:0.5;"/><rect fill="#F1F1F1" height="33.9688" rx="12.5" ry="12.5" style="stroke:#181818;stroke-width:0.5;" width="160.625" x="456.4883" y="137.9688"/><text fill="#000000" font-family="sans-serif" font-size="12" lengthAdjust="spacing" textLength="140.625" x="466.4883" y="159.1074">Aanmelding afgewezen</text><polygon fill="#F1F1F1" points="372.6338,598.5894,384.6338,610.5894,372.6338,622.5894,360.6338,610.5894,372.6338,598.5894" style="stroke:#181818;stroke-width:0.5;"/><ellipse cx="372.6338" cy="653.5894" fill="none" rx="11" ry="11" style="stroke:#222222;stroke-width:1;"/><ellipse cx="372.6338" cy="653.5894" fill="#222222" rx="6" ry="6" style="stroke:#222222;stroke-width:1;"/><line style="stroke:#181818;stroke-width:1;" x1="372.6338" x2="372.6338" y1="30" y2="50"/><polygon fill="#181818" points="368.6338,40,372.6338,50,376.6338,40,372.6338,44" style="stroke:#181818;stroke-width:1;"/><line style="stroke:#181818;stroke-width:1;" x1="208.4668" x2="208.4668" y1="171.9375" y2="191.9375"/><polygon fill="#181818" points="204.4668,181.9375,208.4668,191.9375,212.4668,181.9375,208.4668,185.9375" style="stroke:#181818;stroke-width:1;"/><line style="stroke:#181818;stroke-width:1;" x1="208.4668" x2="208.4668" y1="225.9063" y2="245.9063"/><polygon fill="#181818" points="204.4668,235.9063,208.4668,245.9063,212.4668,235.9063,208.4668,239.9063" style="stroke:#181818;stroke-width:1;"/><line style="stroke:#181818;stroke-width:1;" x1="208.4668" x2="208.4668" y1="389.5542" y2="418.6519"/><polygon fill="#181818" points="204.4668,408.6519,208.4668,418.6519,212.4668,408.6519,208.4668,412.6519" style="stroke:#181818;stroke-width:1;"/><line style="stroke:#181818;stroke-width:1;" x1="208.4668" x2="208.4668" y1="323.875" y2="355.5854"/><polygon fill="#181818" points="204.4668,345.5854,208.4668,355.5854,212.4668,345.5854,208.4668,349.5854" style="stroke:#181818;stroke-width:1;"/><line style="stroke:#181818;stroke-width:1;" x1="208.4668" x2="208.4668" y1="452.6206" y2="462.6206"/><line style="stroke:#181818;stroke-width:1;" x1="208.4668" x2="332.4961" y1="462.6206" y2="462.6206"/><polygon fill="#181818" points="328.4961,398.6519,332.4961,388.6519,336.4961,398.6519,332.4961,394.6519" style="stroke:#181818;stroke-width:1;"/><line style="stroke:#181818;stroke-width:1;" x1="332.4961" x2="332.4961" y1="311.875" y2="462.6206"/><line style="stroke:#181818;stroke-width:1;" x1="332.4961" x2="289.0503" y1="311.875" y2="311.875"/><polygon fill="#181818" points="299.0503,307.875,289.0503,311.875,299.0503,315.875,295.0503,311.875" style="stroke:#181818;stroke-width:1;"/><line style="stroke:#181818;stroke-width:1;" x1="127.8833" x2="84.4375" y1="311.875" y2="311.875"/><polygon fill="#181818" points="80.4375,384.6519,84.4375,394.6519,88.4375,384.6519,84.4375,388.6519" style="stroke:#181818;stroke-width:1;"/><line style="stroke:#181818;stroke-width:1;" x1="84.4375" x2="84.4375" y1="311.875" y2="474.6206"/><line style="stroke:#181818;stroke-width:1;" x1="84.4375" x2="208.4668" y1="474.6206" y2="474.6206"/><line style="stroke:#181818;stroke-width:1;" x1="208.4668" x2="208.4668" y1="474.6206" y2="494.6206"/><polygon fill="#181818" points="204.4668,484.6206,208.4668,494.6206,212.4668,484.6206,208.4668,488.6206" style="stroke:#181818;stroke-width:1;"/><line style="stroke:#181818;stroke-width:1;" x1="208.4668" x2="208.4668" y1="279.875" y2="299.875"/><polygon fill="#181818" points="204.4668,289.875,208.4668,299.875,212.4668,289.875,208.4668,293.875" style="stroke:#181818;stroke-width:1;"/><line style="stroke:#181818;stroke-width:1;" x1="167.7852" x2="99.5947" y1="506.6206" y2="506.6206"/><line style="stroke:#181818;stroke-width:1;" x1="99.5947" x2="99.5947" y1="506.6206" y2="528.6206"/><polygon fill="#181818" points="95.5947,518.6206,99.5947,528.6206,103.5947,518.6206,99.5947,522.6206" style="stroke:#181818;stroke-width:1;"/><line style="stroke:#181818;stroke-width:1;" x1="249.1484" x2="317.3389" y1="506.6206" y2="506.6206"/><line style="stroke:#181818;stroke-width:1;" x1="317.3389" x2="317.3389" y1="506.6206" y2="528.6206"/><polygon fill="#181818" points="313.3389,518.6206,317.3389,528.6206,321.3389,518.6206,317.3389,522.6206" style="stroke:#181818;stroke-width:1;"/><line style="stroke:#181818;stroke-width:1;" x1="99.5947" x2="99.5947" y1="562.5894" y2="580.5894"/><line style="stroke:#181818;stroke-width:1;" x1="99.5947" x2="196.4668" y1="580.5894" y2="580.5894"/><polygon fill="#181818" points="186.4668,576.5894,196.4668,580.5894,186.4668,584.5894,190.4668,580.5894" style="stroke:#181818;stroke-width:1;"/><line style="stroke:#181818;stroke-width:1;" x1="317.3389" x2="317.3389" y1="562.5894" y2="580.5894"/><line style="stroke:#181818;stroke-width:1;" x1="317.3389" x2="220.4668" y1="580.5894" y2="580.5894"/><polygon fill="#181818" points="230.4668,576.5894,220.4668,580.5894,230.4668,584.5894,226.4668,580.5894" style="stroke:#181818;stroke-width:1;"/><line style="stroke:#181818;stroke-width:1;" x1="286.6685" x2="208.4668" y1="115.9688" y2="115.9688"/><line style="stroke:#181818;stroke-width:1;" x1="208.4668" x2="208.4668" y1="115.9688" y2="137.9688"/><polygon fill="#181818" points="204.4668,127.9688,208.4668,137.9688,212.4668,127.9688,208.4668,131.9688" style="stroke:#181818;stroke-width:1;"/><line style="stroke:#181818;stroke-width:1;" x1="458.5991" x2="536.8008" y1="115.9688" y2="115.9688"/><line style="stroke:#181818;stroke-width:1;" x1="536.8008" x2="536.8008" y1="115.9688" y2="137.9688"/><polygon fill="#181818" points="532.8008,127.9688,536.8008,137.9688,540.8008,127.9688,536.8008,131.9688" style="stroke:#181818;stroke-width:1;"/><line style="stroke:#181818;stroke-width:1;" x1="208.4668" x2="208.4668" y1="592.5894" y2="610.5894"/><line style="stroke:#181818;stroke-width:1;" x1="208.4668" x2="360.6338" y1="610.5894" y2="610.5894"/><polygon fill="#181818" points="350.6338,606.5894,360.6338,610.5894,350.6338,614.5894,354.6338,610.5894" style="stroke:#181818;stroke-width:1;"/><line style="stroke:#181818;stroke-width:1;" x1="536.8008" x2="536.8008" y1="171.9375" y2="610.5894"/><line style="stroke:#181818;stroke-width:1;" x1="536.8008" x2="384.6338" y1="610.5894" y2="610.5894"/><polygon fill="#181818" points="394.6338,606.5894,384.6338,610.5894,394.6338,614.5894,390.6338,610.5894" style="stroke:#181818;stroke-width:1;"/><line style="stroke:#181818;stroke-width:1;" x1="372.6338" x2="372.6338" y1="83.9688" y2="103.9688"/><polygon fill="#181818" points="368.6338,93.9688,372.6338,103.9688,376.6338,93.9688,372.6338,97.9688" style="stroke:#181818;stroke-width:1;"/><line style="stroke:#181818;stroke-width:1;" x1="372.6338" x2="372.6338" y1="622.5894" y2="642.5894"/><polygon fill="#181818" points="368.6338,632.5894,372.6338,642.5894,376.6338,632.5894,372.6338,636.5894" style="stroke:#181818;stroke-width:1;"/><!--SRC=[RP51JiCm44NtESKiqokq2yGAYGL2uWH3_6ERE3EHFKrHJu-Jqa8eNbYovi-R_yV5E5lJxD_iw2168v8pEiSk4BFGU_mW1ofTK4s79lRKFh8ieYYUlC9v33Xczx0Z2n1gdtdNK3qtuabp9LOvAYLZXXosWY6Y6Cqy37UbMPCtIYZbMZg5c43jAtBKQapKaqGiIitLRBKHou-93Mna7enqSfcxO5VWHYB0Q3KmqfeUdpn2oaK8SUlmzR5UopQUK1Aply-_uQhOp5AZk3Wb7VcRc4gDyWByqn6G0tEwxeMqfs8wsSrBx9i__VjVFyEznmdd9UH5sopTNm00]--></g></svg>