<?xml version="1.0" encoding="utf-8"?>
<!-- Generator: Adobe Illustrator 25.4.1, SVG Export Plug-In . SVG Version: 6.00 Build 0)  -->
<svg version="1.2" baseProfile="tiny" id="Laag_1" xmlns="http://www.w3.org/2000/svg" xmlns:xlink="http://www.w3.org/1999/xlink"
	 x="0px" y="0px" viewBox="0 0 1344.2 315.6" overflow="visible" xml:space="preserve">
<path fill="none" stroke="#C6C6C6" stroke-width="4" stroke-miterlimit="10" d="M888.3,235.8h272.3"/>
<path fill="none" stroke="#C6C6C6" stroke-width="4" stroke-miterlimit="10" d="M829,153.8h331.5"/>
<path fill="none" stroke="#404040" stroke-width="4" stroke-miterlimit="10" d="M703.1,153.8c-22.6,0-41-18.4-41-41 M602,71.8h19.1
	c22.6,0,41,18.4,41,41"/>
<path fill="none" stroke="#404040" stroke-width="4" stroke-miterlimit="10" d="M27.4,71.8h1127.3"/>
<circle fill="#B18BE8" stroke="#404040" stroke-width="4" stroke-miterlimit="10" cx="1077.2" cy="71.8" r="21"/>
<circle fill="#B18BE8" stroke="#404040" stroke-width="4" stroke-miterlimit="10" cx="593.4" cy="71.8" r="21"/>
<path fill="none" stroke="#404040" stroke-width="4" stroke-miterlimit="10" d="M700.3,155c-22.6,0-41,18.4-41,41 M606.2,237h12.1
	c22.6,0,41-18.4,41-41"/>
<path fill="none" stroke="#404040" stroke-width="4" stroke-miterlimit="10" d="M911,71.8c-22.6,0-41,18.4-41,41 M816.9,153.8H829
	c22.6,0,41-18.4,41-41"/>
<path fill="none" stroke="#404040" stroke-width="4" stroke-miterlimit="10" d="M1057.2,71.8c-46.5,0-84.4,37.9-84.4,84.4
	 M309.7,235.8l578.6-0.1c46.5,0,84.4-32.9,84.4-79.4"/>
<path fill="none" stroke="#404040" stroke-width="4" stroke-miterlimit="10" d="M903.7-183.9"/>
<path fill="none" stroke="#404040" stroke-width="4" stroke-miterlimit="10" d="M200.7,156.2c0-46.5-37.9-84.4-84.4-84.4
	 M200.7,156.2c0,46.5,37.9,79.4,84.4,79.4l24.6,0.1"/>
<circle fill="#4ED1A1" stroke="#404040" stroke-width="4" stroke-miterlimit="10" cx="614.4" cy="235.8" r="21"/>
<circle fill="#4ED1A1" stroke="#404040" stroke-width="4" stroke-miterlimit="10" cx="306.1" cy="235.8" r="21"/>
<circle fill="#4ED1A1" stroke="#404040" stroke-width="4" stroke-miterlimit="10" cx="870" cy="235.8" r="21"/>
<circle fill="#4ED1A1" stroke="#404040" stroke-width="4" stroke-miterlimit="10" cx="745.7" cy="235.8" r="21"/>
<path fill="#B3E3FF" stroke="#404040" stroke-width="4" stroke-miterlimit="10" d="M454.2,153.8H800"/>
<circle fill="#B3E3FF" stroke="#404040" stroke-width="4" stroke-miterlimit="10" cx="572.4" cy="153.8" r="21"/>
<circle fill="#B3E3FF" stroke="#404040" stroke-width="4" stroke-miterlimit="10" cx="714.5" cy="153.8" r="21"/>
<path fill="none" stroke="#404040" stroke-width="4" stroke-miterlimit="10" d="M457.1,153.8c-22.6,0-41-18.4-41-41 M356,71.8h19.1
	c22.6,0,41,18.4,41,41"/>
<path fill="none" stroke="#404040" stroke-width="4" stroke-miterlimit="10" d="M454.2,155c-22.6,0-41,18.4-41,41 M360.2,237h12.1
	c22.6,0,41-18.4,41-41"/>
<circle fill="#B3E3FF" stroke="#404040" stroke-width="4" stroke-miterlimit="10" cx="468.5" cy="153.8" r="21"/>
<ellipse fill="#B3E3FF" stroke="#404040" stroke-width="4" stroke-miterlimit="9.9999" cx="802.6" cy="153.8" rx="21" ry="21"/>
<text transform="matrix(1 0 0 1 1166.7893 84.7739)" font-family="'Arial-BoldMT'" font-size="30.1269px">Main</text>
<text transform="matrix(1 0 0 1 1168.9287 163.791)" font-family="'Arial-BoldMT'" font-size="30.1269px">Bugfix</text>
<text transform="matrix(1 0 0 1 1168.9282 245.7904)" font-family="'Arial-BoldMT'" font-size="30.1269px">Feature</text>
<text transform="matrix(1 0 0 1 1051.9954 117.5373)" font-family="'Arial-BoldMT'" font-size="18.1269px">tag 1.0</text>
<text transform="matrix(1 0 0 1 570.0261 112.7907)" font-family="'Arial-BoldMT'" font-size="18.1269px">tag 1.01</text>
<text transform="matrix(1 0 0 1 319.7122 112.7907)" font-family="'Arial-BoldMT'" font-size="18.1269px">tag 1.02</text>
<text transform="matrix(1 0 0 1 86.7577 112.7907)" font-family="'Arial-BoldMT'" font-size="18.1269px">tag 1.1</text>
<circle fill="#B18BE8" stroke="#404040" stroke-width="4" stroke-miterlimit="10" cx="351.7" cy="71.8" r="21"/>
<circle fill="#B18BE8" stroke="#404040" stroke-width="4" stroke-miterlimit="10" cx="122.1" cy="71.8" r="21"/>
<circle fill="#4ED1A1" stroke="#404040" stroke-width="4" stroke-miterlimit="10" cx="372.7" cy="235.8" r="21"/>
</svg>
